<svg width="45" height="45" viewBox="0 0 45 45" fill="none" xmlns="http://www.w3.org/2000/svg">
<path d="M10.1009 31.0754L9.86084 31.514L9.88178 31.5254L9.90372 31.5349L10.1009 31.0754ZM12.0837 33.0582L11.6243 33.2554L11.6337 33.2773L11.6451 33.2983L12.0837 33.0582ZM12.7593 33.0582L13.1979 33.2983L13.2094 33.2773L13.2188 33.2554L12.7593 33.0582ZM14.7421 31.0754L14.9393 31.5349L14.9649 31.5239L14.9891 31.5102L14.7421 31.0754ZM14.7421 30.3998L14.9891 29.965L14.9649 29.9513L14.9393 29.9403L14.7421 30.3998ZM12.7593 28.417L13.2188 28.2198L13.2094 28.1978L13.1979 28.1769L12.7593 28.417ZM12.0837 28.417L11.6451 28.1769L11.6335 28.1981L11.6241 28.2203L12.0837 28.417ZM10.1009 30.3998L9.90421 29.9401L9.88202 29.9496L9.86084 29.9612L10.1009 30.3998ZM26.9123 11.8143L26.6723 12.2529L26.6932 12.2644L26.7151 12.2738L26.9123 11.8143ZM28.8952 13.7972L28.4357 13.9943L28.4451 14.0163L28.4566 14.0372L28.8952 13.7972ZM29.5707 13.7972L30.0093 14.0372L30.0208 14.0163L30.0302 13.9943L29.5707 13.7972ZM31.5536 11.8143L31.7508 12.2738L31.7763 12.2628L31.8005 12.2491L31.5536 11.8143ZM31.5536 11.1387L31.8005 10.704L31.7763 10.6902L31.7508 10.6793L31.5536 11.1387ZM29.5707 9.15591L30.0302 8.95872L30.0208 8.93678L30.0093 8.91584L29.5707 9.15591ZM28.8952 9.15591L28.4566 8.91584L28.445 8.93702L28.4355 8.95922L28.8952 9.15591ZM26.9123 11.1387L26.7156 10.6791L26.6934 10.6886L26.6723 10.7001L26.9123 11.1387ZM8.36917 20.624L8.72272 20.2704H8.72272L8.36917 20.624ZM19.624 9.36917L19.2704 9.72272V9.72272L19.624 9.36917ZM20.8893 11.6956L21.3782 11.5908L21.3781 11.5908L20.8893 11.6956ZM22.0726 17.2171L22.4261 17.5706L22.6185 17.3783L22.5615 17.1123L22.0726 17.2171ZM16.2171 23.0726L16.1123 23.5615L16.3783 23.6185L16.5706 23.4261L16.2171 23.0726ZM10.6951 21.8893L10.5902 22.3781L10.5903 22.3782L10.6951 21.8893ZM19.4929 26.5103L19.8468 26.8636L19.4929 26.5103ZM18.8125 26.5108L18.4592 26.8646L18.8125 26.5108ZM25.5392 19.7739L25.8925 19.4201L25.5392 19.7739ZM25.5397 20.4544L25.1859 20.1011L25.5397 20.4544ZM22.1815 17.1012L22.5353 17.4545L22.1815 17.1012ZM22.8619 17.1007L22.5086 17.4545L22.8619 17.1007ZM16.1347 23.1571L15.7809 22.8038L16.1347 23.1571ZM16.1352 23.8375L16.4885 23.4837H16.4885L16.1352 23.8375ZM13.4718 18.2106C13.2038 18.1441 12.9326 18.3075 12.8661 18.5755C12.7996 18.8435 12.963 19.1147 13.231 19.1812L13.4718 18.2106ZM18.7313 20.5457C18.9993 20.6122 19.2704 20.4489 19.3369 20.1808C19.4034 19.9128 19.2401 19.6417 18.972 19.5752L18.7313 20.5457ZM18.1952 14.2402C18.129 13.9722 17.8579 13.8086 17.5899 13.8748C17.3218 13.9411 17.1582 14.2121 17.2244 14.4802L18.1952 14.2402ZM18.5843 19.9816C18.6506 20.2497 18.9216 20.4133 19.1897 20.347C19.4578 20.2807 19.6214 20.0097 19.5551 19.7416L18.5843 19.9816ZM20.0896 25.8623L19.7358 25.509L19.357 25.8884L19.7618 26.2399L20.0896 25.8623ZM24.8403 21.1045L25.2169 20.7757L24.8648 20.3723L24.4864 20.7512L24.8403 21.1045ZM36.4612 37.2944L36.8319 37.6299L36.4612 37.2944ZM33.4653 37.4749L33.1375 37.8524L33.4653 37.4749ZM36.4866 34.4453L36.8632 34.1165L36.4866 34.4453ZM9.90372 31.5349C10.6766 31.8666 11.2926 32.4825 11.6243 33.2554L12.5432 32.861C12.1104 31.8525 11.3066 31.0487 10.2981 30.6159L9.90372 31.5349ZM11.6451 33.2983C11.7214 33.4376 11.8337 33.5538 11.9703 33.6347L12.4801 32.7745C12.4979 32.785 12.5124 32.8001 12.5223 32.8182L11.6451 33.2983ZM11.9703 33.6347C12.1069 33.7157 12.2628 33.7584 12.4215 33.7584V32.7584C12.4421 32.7584 12.4624 32.7639 12.4801 32.7745L11.9703 33.6347ZM12.4215 33.7584C12.5803 33.7584 12.7361 33.7157 12.8728 33.6347L12.3629 32.7745C12.3807 32.7639 12.4009 32.7584 12.4215 32.7584V33.7584ZM12.8728 33.6347C13.0094 33.5538 13.1217 33.4376 13.1979 33.2983L12.3207 32.8182C12.3306 32.8001 12.3452 32.785 12.3629 32.7745L12.8728 33.6347ZM13.2188 33.2554C13.5505 32.4825 14.1664 31.8666 14.9393 31.5349L14.545 30.6159C13.5364 31.0487 12.7327 31.8525 12.2998 32.861L13.2188 33.2554ZM14.9891 31.5102C15.1256 31.4326 15.2392 31.3203 15.3182 31.1846L14.4539 30.6815C14.4639 30.6644 14.4781 30.6503 14.4952 30.6406L14.9891 31.5102ZM15.3182 31.1846C15.3972 31.0488 15.4388 30.8946 15.4388 30.7376H14.4388C14.4388 30.7179 14.444 30.6985 14.4539 30.6815L15.3182 31.1846ZM15.4388 30.7376C15.4388 30.5806 15.3972 30.4264 15.3182 30.2906L14.4539 30.7937C14.444 30.7767 14.4388 30.7573 14.4388 30.7376H15.4388ZM15.3182 30.2906C15.2392 30.1549 15.1256 30.0426 14.9891 29.965L14.4952 30.8346C14.4781 30.8249 14.4638 30.8107 14.4539 30.7937L15.3182 30.2906ZM14.9393 29.9403C14.1664 29.6086 13.5505 28.9927 13.2188 28.2198L12.2998 28.6142C12.7327 29.6227 13.5364 30.4265 14.545 30.8593L14.9393 29.9403ZM13.1979 28.1769C13.1217 28.0376 13.0094 27.9214 12.8728 27.8405L12.3629 28.7007C12.3452 28.6902 12.3306 28.6751 12.3207 28.657L13.1979 28.1769ZM12.8728 27.8405C12.7362 27.7595 12.5803 27.7168 12.4215 27.7168V28.7168C12.4009 28.7168 12.3807 28.7112 12.3629 28.7007L12.8728 27.8405ZM12.4215 27.7168C12.2627 27.7168 12.1069 27.7595 11.9703 27.8405L12.4801 28.7007C12.4624 28.7112 12.4422 28.7168 12.4215 28.7168V27.7168ZM11.9703 27.8405C11.8337 27.9214 11.7214 28.0376 11.6451 28.1769L12.5223 28.657C12.5124 28.6751 12.4978 28.6902 12.4801 28.7007L11.9703 27.8405ZM11.6241 28.2203C11.2933 28.9934 10.6773 29.6093 9.90421 29.9401L10.2976 30.8595C11.3071 30.4275 12.1115 29.6232 12.5434 28.6137L11.6241 28.2203ZM9.86084 29.9612C9.72156 30.0374 9.60534 30.1497 9.52438 30.2864L10.3847 30.7962C10.3741 30.8139 10.3591 30.8285 10.341 30.8384L9.86084 29.9612ZM9.52438 30.2864C9.44343 30.423 9.40071 30.5788 9.40071 30.7376H10.4007C10.4007 30.7582 10.3952 30.7784 10.3847 30.7962L9.52438 30.2864ZM9.40071 30.7376C9.40071 30.8964 9.44343 31.0522 9.52438 31.1888L10.3847 30.679C10.3952 30.6967 10.4007 30.717 10.4007 30.7376H9.40071ZM9.52438 31.1888C9.60534 31.3254 9.72156 31.4377 9.86084 31.514L10.341 30.6368C10.3591 30.6467 10.3741 30.6613 10.3847 30.679L9.52438 31.1888ZM26.7151 12.2738C27.488 12.6055 28.104 13.2214 28.4357 13.9943L29.3546 13.6C28.9218 12.5914 28.1181 11.7877 27.1095 11.3548L26.7151 12.2738ZM28.4566 14.0372C28.5328 14.1765 28.6451 14.2927 28.7817 14.3737L29.2915 13.5134C29.3093 13.5239 29.3239 13.539 29.3338 13.5571L28.4566 14.0372ZM28.7817 14.3737C28.9183 14.4546 29.0742 14.4973 29.233 14.4973V13.4973C29.2535 13.4973 29.2738 13.5029 29.2915 13.5134L28.7817 14.3737ZM29.233 14.4973C29.3917 14.4973 29.5476 14.4546 29.6842 14.3737L29.1744 13.5134C29.1921 13.5029 29.2124 13.4973 29.233 13.4973V14.4973ZM29.6842 14.3737C29.8208 14.2927 29.9331 14.1765 30.0093 14.0372L29.1321 13.5571C29.1421 13.539 29.1566 13.5239 29.1744 13.5134L29.6842 14.3737ZM30.0302 13.9943C30.3619 13.2214 30.9779 12.6055 31.7508 12.2738L31.3564 11.3548C30.3478 11.7877 29.5441 12.5914 29.1113 13.6L30.0302 13.9943ZM31.8005 12.2491C31.937 12.1716 32.0506 12.0592 32.1296 11.9235L31.2654 11.4204C31.2753 11.4034 31.2895 11.3893 31.3067 11.3795L31.8005 12.2491ZM32.1296 11.9235C32.2086 11.7878 32.2502 11.6335 32.2502 11.4765H31.2502C31.2502 11.4568 31.2554 11.4375 31.2654 11.4204L32.1296 11.9235ZM32.2502 11.4765C32.2502 11.3195 32.2086 11.1653 32.1296 11.0296L31.2654 11.5326C31.2554 11.5156 31.2502 11.4962 31.2502 11.4765H32.2502ZM32.1296 11.0296C32.0506 10.8939 31.937 10.7815 31.8005 10.704L31.3067 11.5735C31.2895 11.5638 31.2753 11.5497 31.2654 11.5326L32.1296 11.0296ZM31.7508 10.6793C30.9779 10.3476 30.3619 9.73163 30.0302 8.95872L29.1113 9.3531C29.5441 10.3617 30.3478 11.1654 31.3564 11.5982L31.7508 10.6793ZM30.0093 8.91584C29.9331 8.77655 29.8208 8.66034 29.6842 8.57939L29.1744 9.43967C29.1566 9.42916 29.1421 9.41407 29.1321 9.39598L30.0093 8.91584ZM29.6842 8.57939C29.5476 8.49845 29.3918 8.45572 29.233 8.45572V9.45572C29.2123 9.45572 29.1921 9.45017 29.1744 9.43967L29.6842 8.57939ZM29.233 8.45572C29.0741 8.45572 28.9183 8.49845 28.7817 8.57939L29.2915 9.43967C29.2738 9.45017 29.2536 9.45572 29.233 9.45572V8.45572ZM28.7817 8.57939C28.6451 8.66034 28.5328 8.77655 28.4566 8.91584L29.3338 9.39598C29.3239 9.41407 29.3093 9.42916 29.2915 9.43967L28.7817 8.57939ZM28.4355 8.95922C28.1047 9.73232 27.4887 10.3483 26.7156 10.6791L27.109 11.5984C28.1186 11.1665 28.9229 10.3621 29.3549 9.35261L28.4355 8.95922ZM26.6723 10.7001C26.533 10.7764 26.4168 10.8887 26.3358 11.0253L27.1961 11.5351C27.1856 11.5529 27.1705 11.5674 27.1524 11.5773L26.6723 10.7001ZM26.3358 11.0253C26.2549 11.1619 26.2121 11.3178 26.2121 11.4765H27.2121C27.2121 11.4971 27.2066 11.5174 27.1961 11.5351L26.3358 11.0253ZM26.2121 11.4765C26.2121 11.6353 26.2549 11.7912 26.3358 11.9278L27.1961 11.4179C27.2066 11.4357 27.2121 11.4559 27.2121 11.4765H26.2121ZM26.3358 11.9278C26.4168 12.0644 26.533 12.1767 26.6723 12.2529L27.1524 11.3757C27.1705 11.3856 27.1856 11.4002 27.1961 11.4179L26.3358 11.9278ZM8.72272 20.2704C7.9336 19.4813 7.5 18.4343 7.5 17.3184H6.5C6.5 18.6995 7.03893 20.0008 8.01562 20.9775L8.72272 20.2704ZM7.5 17.3184C7.5 12.4565 11.4565 8.5 16.3184 8.5V7.5C10.9042 7.5 6.5 11.9042 6.5 17.3184H7.5ZM16.3184 8.5C17.4343 8.5 18.4813 8.9336 19.2704 9.72272L19.9775 9.01562C19.0008 8.03893 17.6995 7.5 16.3184 7.5V8.5ZM19.2704 9.72272C19.8407 10.293 20.2311 11.0111 20.4004 11.8004L21.3781 11.5908C21.1686 10.6133 20.6843 9.72236 19.9775 9.01562L19.2704 9.72272ZM20.4004 11.8004L21.5837 17.3219L22.5615 17.1123L21.3782 11.5908L20.4004 11.8004ZM21.719 16.8635L19.4422 19.1404L20.1493 19.8475L22.4261 17.5706L21.719 16.8635ZM18.1404 20.4422L15.8635 22.719L16.5706 23.4261L18.8475 21.1493L18.1404 20.4422ZM16.3218 22.5837L10.7998 21.4004L10.5903 22.3782L16.1123 23.5615L16.3218 22.5837ZM10.8 21.4004C10.0111 21.2311 9.293 20.8407 8.72272 20.2704L8.01562 20.9775C8.72234 21.6842 9.61323 22.1685 10.5902 22.3781L10.8 21.4004ZM16.4885 23.5104L22.5353 17.4545L21.8276 16.7479L15.7809 22.8038L16.4885 23.5104ZM22.5086 17.4545L25.1859 20.1278L25.8925 19.4201L23.2152 16.7469L22.5086 17.4545ZM25.1859 20.1011L19.1391 26.157L19.8468 26.8636L25.8935 20.8077L25.1859 20.1011ZM19.1658 26.157L16.4885 23.4837L15.7819 24.1914L18.4592 26.8646L19.1658 26.157ZM19.1391 26.157C19.1465 26.1496 19.1584 26.1496 19.1658 26.157L18.4592 26.8646C18.8427 27.2475 19.4639 27.247 19.8468 26.8636L19.1391 26.157ZM25.1859 20.1278C25.1785 20.1204 25.1785 20.1085 25.1859 20.1011L25.8935 20.8077C26.2764 20.4242 26.2759 19.803 25.8925 19.4201L25.1859 20.1278ZM22.5353 17.4545C22.5279 17.4618 22.516 17.4619 22.5086 17.4545L23.2152 16.7469C22.8317 16.364 22.2105 16.3644 21.8276 16.7479L22.5353 17.4545ZM15.7809 22.8038C15.398 23.1873 15.3985 23.8085 15.7819 24.1914L16.4885 23.4837C16.4959 23.4911 16.4959 23.503 16.4885 23.5104L15.7809 22.8038ZM28.1791 32.9657L31.9132 29.2316L31.2061 28.5245L27.472 32.2586L28.1791 32.9657ZM33.1317 30.4472L29.3976 34.1813L30.1047 34.8884L33.8388 31.1544L33.1317 30.4472ZM13.231 19.1812L18.7313 20.5457L18.972 19.5752L13.4718 18.2106L13.231 19.1812ZM17.2244 14.4802L18.5843 19.9816L19.5551 19.7416L18.1952 14.2402L17.2244 14.4802ZM20.4434 26.2156L25.1941 21.4578L24.4864 20.7512L19.7358 25.509L20.4434 26.2156ZM24.4636 21.4333L36.1099 34.7741L36.8632 34.1165L25.2169 20.7757L24.4636 21.4333ZM33.7931 37.0973L20.4174 25.4848L19.7618 26.2399L33.1375 37.8524L33.7931 37.0973ZM36.0904 36.9589C35.4899 37.6225 34.4689 37.684 33.7931 37.0973L33.1375 37.8524C34.2243 38.796 35.8662 38.6971 36.8319 37.6299L36.0904 36.9589ZM36.1099 34.7741C36.6581 35.4021 36.6497 36.3409 36.0904 36.9589L36.8319 37.6299C37.7313 36.636 37.7448 35.1263 36.8632 34.1165L36.1099 34.7741Z" fill="#663130"/>
</svg>
