<svg width="43" height="21" viewBox="0 0 43 21" fill="none" xmlns="http://www.w3.org/2000/svg">
<path d="M23.5998 3.6812C22.6998 2.8812 21.4998 2.4812 19.6998 2.4812C18.2998 2.4812 17.1998 2.5812 16.2998 2.7812V16.2812H18.0998V10.7812C18.4998 10.8812 18.9998 10.8812 19.4998 10.8812C21.1998 10.8812 22.6998 10.3812 23.6998 9.3812C24.3998 8.6812 24.7998 7.6812 24.7998 6.4812C24.6998 5.2812 24.2998 4.2812 23.5998 3.6812ZM19.5998 9.4812C18.9998 9.4812 18.4998 9.4812 18.0998 9.3812V4.0812C18.3998 3.9812 18.9998 3.9812 19.7998 3.9812C21.6998 3.9812 22.9998 4.8812 22.9998 6.6812C22.9998 8.4812 21.6998 9.4812 19.5998 9.4812ZM40.2998 6.4812L38.3998 12.1812C38.1998 12.8812 37.9998 13.6812 37.7998 14.1812C37.5998 13.5812 37.3998 12.7812 37.1998 12.1812L34.8998 6.4812H32.9998L36.5998 15.4812C36.6998 15.6812 36.6998 15.8812 36.6998 15.9812C36.6998 16.0812 36.5998 16.1812 36.5998 16.3812C36.1998 17.2812 35.5998 17.9812 35.0998 18.3812C34.5998 18.7812 33.9998 19.0812 33.4998 19.2812L33.8998 20.7812C34.2998 20.6812 35.1998 20.3812 36.0998 19.5812C37.2998 18.4812 38.1998 16.7812 39.4998 13.4812L42.1998 6.4812H40.2998ZM32.4998 10.2812C32.4998 8.2812 31.7998 6.2812 28.7998 6.2812C27.5998 6.2812 26.3998 6.5812 25.5998 7.1812L25.9998 8.3812C26.6998 7.9812 27.5998 7.6812 28.4998 7.6812C30.4998 7.6812 30.6998 9.1812 30.6998 9.9812V10.1812C26.8998 10.1812 24.7998 11.4812 24.7998 13.7812C24.7998 15.1812 25.7998 16.5812 27.7998 16.5812C29.1998 16.5812 30.1998 15.8812 30.7998 15.0812H30.9998L31.0998 16.2812H32.6998C32.5998 15.5812 32.4998 14.7812 32.4998 13.9812V10.2812ZM30.7998 12.9812C30.7998 13.1812 30.7998 13.3812 30.6998 13.5812C30.3998 14.3812 29.5998 15.1812 28.2998 15.1812C27.3998 15.1812 26.5998 14.6812 26.5998 13.4812C26.5998 11.5812 28.7998 11.2812 30.6998 11.2812V12.9812H30.7998Z" fill="#3D3030"/>
<path d="M5.91133 0.475265C5.58498 0.959117 5.25864 1.47753 5.07734 1.8577C4.85978 2.41068 4.78725 2.79085 4.89604 3.13645C4.9323 3.2747 5.00482 3.41294 5.1136 3.55119C5.14986 3.62031 5.14986 3.58575 5.04108 3.48206C4.89604 3.2747 4.75099 3.13645 4.56969 2.79085C4.20709 2.27243 3.69944 1.96138 2.93798 1.8577C2.8292 1.8577 2.75668 1.8577 2.46659 1.8577C2.10399 1.8577 2.06773 1.8577 2.03147 1.92682C1.99521 1.99594 2.10399 2.30699 2.28529 2.58348C2.39407 2.75628 2.50285 2.85997 2.68415 3.06733C2.86546 3.24014 3.0105 3.34382 3.1918 3.48206C3.26432 3.51662 3.30058 3.58575 3.30058 3.58575H3.26432C3.1918 3.55119 3.0105 3.51662 2.90172 3.51662C2.75668 3.48206 2.32155 3.51662 2.17651 3.51662C1.74139 3.58575 1.37878 3.68943 1.05244 3.86223C0.907397 3.93136 0.834877 4.00048 0.834877 4.03504C0.798616 4.10416 0.834877 4.20784 0.943658 4.20784C0.943658 4.20784 1.01618 4.20784 1.05244 4.17328C1.34252 4.10416 1.77765 4.13872 2.21277 4.31153C2.43033 4.38065 2.57537 4.44977 2.86546 4.58801C3.1918 4.76082 3.3731 4.82994 3.66318 4.89906C4.27961 5.0373 4.96856 4.96818 5.76628 4.72626C5.87507 4.6917 5.91133 4.6917 5.98385 4.6917C6.05637 4.6917 6.09263 4.6917 6.16515 4.72626C6.92662 4.96818 7.61556 5.00274 8.26825 4.89906C8.55833 4.82994 8.70337 4.79538 9.02972 4.62257C9.39232 4.44977 9.60988 4.34609 9.89996 4.27696C10.19 4.20784 10.3713 4.17328 10.6252 4.17328C10.7702 4.17328 10.879 4.17328 10.9878 4.20784C11.0603 4.2424 11.0966 4.2424 11.1328 4.20784C11.1691 4.17328 11.2053 4.10416 11.1691 4.03504C11.1328 3.96592 10.7702 3.75855 10.5527 3.68943C10.3351 3.62031 10.0813 3.55119 9.82744 3.51662C9.6824 3.48206 9.24728 3.48206 9.10224 3.51662C8.99346 3.51662 8.77589 3.55119 8.70337 3.58575C8.66711 3.58575 8.66711 3.58575 8.66711 3.58575C8.66711 3.58575 8.73963 3.55119 8.77589 3.48206C8.84841 3.4475 8.92094 3.34382 8.99346 3.30926C9.1385 3.20558 9.42858 2.89453 9.53736 2.75628C9.60988 2.6526 9.75492 2.4798 9.79118 2.37611C9.8637 2.23787 9.93622 2.06507 9.93622 1.99594C9.93622 1.92682 9.93622 1.89226 9.89996 1.8577C9.8637 1.82314 9.8637 1.82314 9.53736 1.82314C9.17476 1.82314 9.06598 1.82314 8.81215 1.89226C8.19573 2.03051 7.7606 2.34155 7.43426 2.79085C7.398 2.85997 7.32548 2.96365 7.28922 3.03277C7.18044 3.20558 7.07166 3.30926 6.96288 3.48206C6.85409 3.58575 6.85409 3.62031 6.85409 3.58575C6.96288 3.41294 7.07166 3.17102 7.10792 2.99821C7.14418 2.89453 7.14418 2.6526 7.10792 2.54892C7.0354 2.06507 6.74531 1.47753 6.31019 0.820874C6.16515 0.613508 5.98385 0.371582 5.98385 0.371582C5.98385 0.371582 5.94759 0.406143 5.91133 0.475265ZM6.20141 1.71946C6.45523 1.99594 6.63653 2.37611 6.70905 2.72172C6.74531 2.92909 6.74531 3.17102 6.74531 3.2747C6.70905 3.48206 6.60027 3.65487 6.41897 3.86223C6.34645 3.93136 6.20141 4.0696 6.09263 4.13872L6.02011 4.17328L6.05637 4.10416C6.23767 3.72399 6.31019 3.41294 6.34645 2.99821C6.38271 2.61804 6.31019 2.16875 6.16515 1.71946C6.16515 1.65034 6.12889 1.61577 6.12889 1.61577C6.12889 1.65034 6.12889 1.65034 6.20141 1.71946ZM8.48581 3.03277C8.48581 3.03277 8.44955 3.06733 8.37703 3.10189C8.23199 3.24014 8.05069 3.41294 7.90565 3.62031C7.61556 4.00048 7.2167 4.2424 6.63653 4.41521C6.60027 4.41521 6.52775 4.44977 6.52775 4.44977C6.52775 4.44977 6.70905 4.31153 6.81783 4.27696C7.10792 4.13872 7.28922 3.96592 7.47052 3.68943C7.5793 3.55119 7.68808 3.4475 7.83312 3.34382C7.97817 3.24014 8.19573 3.13645 8.37703 3.10189C8.44955 3.03277 8.48581 3.03277 8.48581 3.03277Z" fill="#3D3030"/>
<path d="M10.8427 6.83447C10.7702 6.76535 10.734 6.69623 10.6614 6.59255C10.6252 6.52342 10.5527 6.4543 10.4801 6.41974C10.0087 5.93589 9.3198 5.52116 8.52207 5.27923C8.37703 5.24467 8.41329 5.24467 8.15947 5.27923C7.83312 5.31379 7.47052 5.31379 7.07166 5.27923C6.81784 5.24467 6.45523 5.17555 6.16515 5.07187C6.09263 5.0373 6.02011 5.0373 6.02011 5.0373C6.02011 5.0373 5.98385 5.0373 5.94759 5.07187C5.51246 5.21011 5.00482 5.31379 4.60595 5.31379C4.31587 5.31379 4.13457 5.31379 3.80823 5.27923L3.62692 5.21011L3.48188 5.24467C3.11928 5.34835 2.68416 5.52116 2.39407 5.69396C1.52382 6.17781 0.979919 6.83447 0.726096 7.66393C0.653575 7.8713 0.617315 8.07866 0.581055 8.32059C0.581055 8.42427 0.581055 8.52796 0.581055 8.73532C0.581055 9.01181 0.581055 9.08093 0.617315 9.35742C0.617315 9.42654 0.653575 9.53022 0.653575 9.56478C0.689836 10.0832 0.907398 10.7053 1.37878 11.4656C1.88643 12.2951 2.68416 13.3665 3.30058 13.954C3.48188 14.1268 3.59066 14.2996 3.69945 14.4379C3.77197 14.6107 3.84449 14.6798 3.91701 14.8872C4.09831 15.3019 4.35213 15.6475 4.64221 15.924C4.67847 15.9586 4.67847 15.9586 4.71473 15.9931V16.0277C4.89604 16.2005 5.04108 16.3733 5.25864 16.477C5.73002 16.6843 6.20141 16.6843 6.67279 16.4424C7.2167 16.1659 7.72434 15.6129 8.01443 14.9217C8.15947 14.5761 8.34077 14.3342 8.63085 14.0577C9.10224 13.5738 9.89997 12.537 10.4076 11.8112C10.7702 11.2237 11.024 10.7399 11.1691 10.3251C11.2779 10.0486 11.3141 9.84127 11.3141 9.63391C11.3141 9.59934 11.3141 9.49566 11.3504 9.42654C11.5317 8.42427 11.3504 7.52569 10.8427 6.83447ZM8.59459 9.77215C8.63085 9.59935 8.70337 9.4611 8.81215 9.42654C8.84842 9.39198 8.9572 9.42654 8.99346 9.42654C9.10224 9.49566 9.21102 9.63391 9.24728 9.84127C9.28354 9.91039 9.28354 9.94495 9.28354 10.0486C9.28354 10.1523 9.28354 10.1523 9.24728 10.2214C9.21102 10.3597 9.1385 10.4634 9.02972 10.6016L8.99346 10.6362L8.92094 10.6016C8.73963 10.4634 8.59459 10.2906 8.55833 10.1178C8.55833 10.0486 8.55833 9.87583 8.59459 9.77215ZM10.4076 8.35515C10.3713 8.45884 10.3351 8.6662 10.2988 8.6662C10.2988 8.6662 10.1175 8.59708 10.045 8.56252C9.97249 8.52796 9.8637 8.45883 9.82744 8.42427C9.6824 8.28603 9.60988 8.07867 9.60988 7.8713C9.60988 7.73306 9.64614 7.69849 9.6824 7.62937C9.75492 7.56025 9.82744 7.52569 9.93623 7.56025C9.97249 7.56025 10.0813 7.62937 10.1175 7.66393C10.2263 7.76762 10.3351 7.94042 10.3713 8.0441C10.4439 8.11323 10.4439 8.25147 10.4076 8.35515ZM7.97817 5.93589C8.01443 5.86677 8.05069 5.83221 8.12321 5.79764C8.15947 5.79764 8.26825 5.79764 8.30451 5.83221C8.41329 5.86677 8.48581 5.90133 8.59459 6.03957C8.66711 6.10869 8.70337 6.14325 8.73963 6.21238C8.77589 6.31606 8.81215 6.38518 8.81215 6.48886C8.81215 6.52342 8.81215 6.55799 8.81215 6.62711C8.81215 6.69623 8.81215 6.73079 8.77589 6.79991V6.83447H8.73963C8.59459 6.83447 8.41329 6.76535 8.30451 6.69623C8.15947 6.62711 8.05069 6.4543 7.97817 6.2815C7.94191 6.21238 7.94191 6.17782 7.94191 6.10869C7.97817 5.97045 7.97817 5.97045 7.97817 5.93589ZM7.36174 7.66393C7.398 7.62937 7.50678 7.66393 7.54304 7.6985C7.72434 7.80218 7.90565 8.14779 7.86939 8.38971C7.83313 8.52796 7.79686 8.6662 7.68808 8.76988C7.61556 8.87357 7.61556 8.87357 7.50678 8.80444C7.25296 8.63164 7.14418 8.45884 7.10792 8.21691C7.10792 7.94042 7.18044 7.73306 7.36174 7.66393ZM6.8541 12.3988C6.89036 12.3297 6.96288 12.226 7.0354 12.1914C7.10792 12.1569 7.18044 12.1569 7.25296 12.1914C7.32548 12.226 7.398 12.3297 7.43426 12.4679C7.47052 12.6061 7.50678 12.8135 7.43426 12.9518C7.398 13.09 7.25296 13.2628 7.10792 13.3665L7.0354 13.2974C6.92662 13.1591 6.81784 13.0209 6.78157 12.8826C6.74531 12.7444 6.78157 12.537 6.8541 12.3988ZM6.34645 14.9563C6.34645 15.0945 6.31019 15.1982 6.23767 15.3365C6.16515 15.4056 6.02011 15.5784 5.98385 15.5784C5.94759 15.5784 5.80255 15.4401 5.76629 15.371C5.69376 15.3019 5.6575 15.1637 5.62124 15.0945C5.58498 15.0254 5.62124 14.818 5.62124 14.7489C5.69376 14.4724 5.87507 14.3342 6.05637 14.4033C6.23767 14.4724 6.34645 14.7144 6.34645 14.9563ZM5.6575 6.07413C5.69376 5.90133 5.80255 5.76308 5.91133 5.72852C5.98385 5.69396 6.05637 5.72852 6.09263 5.72852C6.27393 5.83221 6.41897 6.21238 6.31019 6.48886C6.27393 6.62711 6.20141 6.73079 6.05637 6.86903L5.98385 6.93815L5.91133 6.86903C5.76628 6.73079 5.6575 6.59255 5.62124 6.41974C5.62124 6.35062 5.62124 6.17781 5.6575 6.07413ZM5.87507 9.91039C5.91133 9.91039 5.98385 9.91039 6.02011 9.94495C6.12889 9.97952 6.20141 10.1178 6.23767 10.2906C6.27393 10.4288 6.27393 10.6016 6.23767 10.6707C6.20141 10.809 6.09263 10.9472 5.98385 11.0509C5.91133 11.12 5.91133 11.12 5.80255 11.0163C5.6575 10.8781 5.62124 10.7744 5.54872 10.6362C5.54872 10.5671 5.51246 10.5671 5.51246 10.4634C5.58498 10.1869 5.69376 9.94495 5.87507 9.91039ZM1.74139 8.59708C1.66887 8.63164 1.66887 8.63164 1.6326 8.52796C1.56008 8.38971 1.56008 8.32059 1.56008 8.18235C1.56008 8.0441 1.56008 7.97498 1.6326 7.8713C1.74139 7.6985 1.88643 7.56025 2.03147 7.52569C2.10399 7.52569 2.14025 7.52569 2.21277 7.56025C2.28529 7.59481 2.35781 7.69849 2.35781 7.80218C2.39407 7.97498 2.32155 8.21691 2.21277 8.35515C2.10399 8.45884 1.92269 8.56252 1.74139 8.59708ZM2.8292 12.4679C2.79294 12.537 2.72042 12.6753 2.72042 12.6753C2.72042 12.6753 2.57537 12.6061 2.50285 12.5716C2.46659 12.5716 2.39407 12.5025 2.35781 12.4679C2.21277 12.3297 2.17651 12.226 2.17651 12.0186C2.17651 11.8804 2.17651 11.8112 2.21277 11.7076C2.24903 11.6384 2.32155 11.5693 2.35781 11.5693C2.39407 11.5693 2.50285 11.5693 2.53911 11.6039C2.61163 11.6039 2.68416 11.673 2.75668 11.7767C2.75668 11.7767 2.79294 11.8458 2.8292 11.8804C2.90172 12.0877 2.90172 12.2605 2.8292 12.4679ZM3.30058 10.3251C3.22806 10.3942 3.11928 10.4979 3.04676 10.5671L2.97424 10.6362L2.93798 10.6016C2.8292 10.5325 2.75668 10.3597 2.68416 10.2214C2.64789 10.1178 2.64789 10.0486 2.64789 9.94495C2.72042 9.56478 2.93798 9.35742 3.15554 9.4611C3.30058 9.53022 3.3731 9.73759 3.3731 9.97951C3.40936 10.1178 3.3731 10.1869 3.30058 10.3251ZM3.88075 6.4543C3.80823 6.55799 3.69944 6.66167 3.62692 6.69623C3.51814 6.76535 3.33684 6.79991 3.1918 6.79991H3.15554V6.73079C3.11928 6.48886 3.11928 6.2815 3.22806 6.14325C3.26432 6.07413 3.3731 5.97045 3.44562 5.90133C3.59066 5.79764 3.77197 5.76308 3.84449 5.79764C3.95327 5.83221 3.98953 5.90133 3.98953 6.03957C4.02579 6.17781 3.98953 6.2815 3.88075 6.4543ZM4.20709 8.59708C4.09831 8.38971 4.09831 8.21691 4.17083 7.97498C4.24335 7.80218 4.35213 7.6985 4.46091 7.66393C4.49717 7.66393 4.60595 7.66393 4.64221 7.6985C4.78726 7.76762 4.85978 8.00954 4.82352 8.25147C4.78726 8.42427 4.751 8.52796 4.60595 8.6662C4.53343 8.76988 4.38839 8.87357 4.35213 8.87357C4.35213 8.83901 4.24335 8.70076 4.20709 8.59708ZM4.49717 12.8826C4.42465 12.6407 4.53343 12.3297 4.67847 12.226C4.751 12.1569 4.82352 12.1569 4.9323 12.1914C5.07734 12.2605 5.18612 12.5025 5.22238 12.7444C5.22238 12.8481 5.22238 12.8481 5.22238 12.9172C5.18612 13.0554 5.07734 13.2282 4.96856 13.3319L4.9323 13.3665L4.85978 13.2974C4.64221 13.1937 4.53343 13.0209 4.49717 12.8826Z" fill="#3D3030"/>
</svg>
