<svg width="21" height="22" viewBox="0 0 21 22" fill="none" xmlns="http://www.w3.org/2000/svg">
<path d="M16.5368 16.6579H7.36347C7.0085 16.6578 6.66479 16.5332 6.39229 16.3057C6.11979 16.0782 5.93577 15.7623 5.87232 15.4131L3.45558 2.12242C3.42385 1.94779 3.33184 1.78983 3.19559 1.67609C3.05934 1.56234 2.88749 1.50003 2.71 1.5H1M16.5368 16.6579C15.4904 16.6579 14.6421 17.5062 14.6421 18.5526C14.6421 19.5991 15.4904 20.4474 16.5368 20.4474C17.5833 20.4474 18.4316 19.5991 18.4316 18.5526C18.4316 17.5062 17.5833 16.6579 16.5368 16.6579ZM5.41 12.8684H17.3042C17.6592 12.8684 18.0029 12.7437 18.2754 12.5162C18.5479 12.2888 18.7319 11.9728 18.7954 11.6236L19.9474 5.28947H4.03158M9.33684 18.5526C9.33684 19.5991 8.48854 20.4474 7.44211 20.4474C6.39567 20.4474 5.54737 19.5991 5.54737 18.5526C5.54737 17.5062 6.39567 16.6579 7.44211 16.6579C8.48854 16.6579 9.33684 17.5062 9.33684 18.5526Z" stroke="#663130" stroke-width="1.2" stroke-linecap="round" stroke-linejoin="round"/>
</svg>
