<svg width="18" height="18" viewBox="0 0 18 18" fill="none" xmlns="http://www.w3.org/2000/svg">
<path d="M16.8128 8.86715L17.3434 9.39718L17.3431 9.39756L16.8128 8.86715ZM17 8.41515H17.75L17.75 8.4155L17 8.41515ZM17 1V0.25C17.4142 0.25 17.75 0.585786 17.75 1L17 1ZM9.58485 1L9.5845 0.25H9.58485V1ZM9.13285 1.1872L8.60252 0.656869L8.60282 0.656574L9.13285 1.1872ZM1.1873 9.13275L0.656797 8.60259L0.656971 8.60242L1.1873 9.13275ZM1.1873 10.0375L0.656878 10.5678L0.656797 10.5677L1.1873 10.0375ZM7.96006 16.8127L7.4299 17.3432L7.42963 17.3429L7.96006 16.8127ZM8.86485 16.8127L9.3951 17.3431L9.39501 17.3432L8.86485 16.8127ZM16.2822 8.33711C16.2616 8.35773 16.25 8.38567 16.25 8.4148L17.75 8.4155C17.7498 8.78366 17.6036 9.13671 17.3434 9.39718L16.2822 8.33711ZM16.25 8.41515V1H17.75V8.41515H16.25ZM17 1.75H9.58485V0.25H17V1.75ZM9.5852 1.75C9.61433 1.74999 9.64227 1.73841 9.66289 1.71782L8.60282 0.656574C8.86329 0.396392 9.21634 0.250171 9.5845 0.25L9.5852 1.75ZM9.66318 1.71753L1.71763 9.66308L0.656971 8.60242L8.60252 0.656869L9.66318 1.71753ZM1.71781 9.6629C1.73842 9.64228 1.75 9.61431 1.75 9.58514H0.25C0.25 9.21665 0.39632 8.86324 0.656797 8.60259L1.71781 9.6629ZM1.75 9.58514C1.75 9.55598 1.73842 9.52801 1.71781 9.50739L0.656797 10.5677C0.39632 10.307 0.25 9.95364 0.25 9.58514H1.75ZM1.71773 9.50731L8.49048 16.2825L7.42963 17.3429L0.656878 10.5678L1.71773 9.50731ZM8.49021 16.2822C8.46959 16.2616 8.44162 16.25 8.41246 16.25V17.75C8.04396 17.75 7.69055 17.6037 7.4299 17.3432L8.49021 16.2822ZM8.41246 16.25C8.38329 16.25 8.35532 16.2616 8.3347 16.2822L9.39501 17.3432C9.13436 17.6037 8.78095 17.75 8.41246 17.75V16.25ZM8.3346 16.2823L16.2826 8.33674L17.3431 9.39756L9.3951 17.3431L8.3346 16.2823ZM13.27 4.51998C13.27 4.63595 13.364 4.72997 13.48 4.72997V6.22997C12.5356 6.22997 11.77 5.46438 11.77 4.51998H13.27ZM13.48 4.72997C13.596 4.72997 13.69 4.63595 13.69 4.51998H15.19C15.19 5.46438 14.4244 6.22997 13.48 6.22997V4.72997ZM13.69 4.51998C13.69 4.404 13.596 4.30998 13.48 4.30998V2.80998C14.4244 2.80998 15.19 3.57557 15.19 4.51998H13.69ZM13.48 4.30998C13.364 4.30998 13.27 4.404 13.27 4.51998H11.77C11.77 3.57557 12.5356 2.80998 13.48 2.80998V4.30998Z" fill="#663130"/>
</svg>
