<svg width="45" height="45" viewBox="0 0 45 45" fill="none" xmlns="http://www.w3.org/2000/svg">
<path d="M21.0543 20.7791L21.4164 21.1239L21.4165 21.1239L21.0543 20.7791ZM21.2934 20.528L20.9313 20.1832L20.9313 20.1832L21.2934 20.528ZM35.2654 24.7921V25.2921H35.7654V24.7921H35.2654ZM29.7602 24.7921H29.2602V25.2921H29.7602V24.7921ZM34.4406 17.4519V17.9519H34.9406V17.4519H34.4406ZM30.4818 17.4519H29.9818V17.9519H30.4818V17.4519ZM19.0355 15.0498L18.7954 15.4884L18.8163 15.4998L18.8383 15.5093L19.0355 15.0498ZM20.4577 16.472L19.9982 16.6692L20.0077 16.6912L20.0191 16.7121L20.4577 16.472ZM20.9423 16.472L21.3809 16.7121L21.3924 16.6912L21.4018 16.6692L20.9423 16.472ZM22.3645 15.0498L22.5617 15.5093L22.5873 15.4983L22.6115 15.4846L22.3645 15.0498ZM22.3645 14.5652L22.6115 14.1304L22.5873 14.1167L22.5617 14.1057L22.3645 14.5652ZM20.9423 13.143L21.4018 12.9458L21.3924 12.9238L21.3809 12.9029L20.9423 13.143ZM20.4577 13.143L20.0191 12.9029L20.0075 12.9241L19.998 12.9463L20.4577 13.143ZM19.0355 14.5652L18.8388 14.1055L18.8166 14.115L18.7954 14.1266L19.0355 14.5652ZM14.2291 12.6297L13.989 13.0683L14.01 13.0798L14.0319 13.0892L14.2291 12.6297ZM15.2001 13.6007L14.7406 13.7979L14.7501 13.8199L14.7615 13.8408L15.2001 13.6007ZM15.5309 13.6007L15.9695 13.8408L15.981 13.8199L15.9904 13.7979L15.5309 13.6007ZM16.5019 12.6297L16.6991 13.0892L16.7247 13.0783L16.7489 13.0645L16.5019 12.6297ZM16.5019 12.2989L16.7489 11.8641L16.7247 11.8504L16.6991 11.8394L16.5019 12.2989ZM15.5309 11.3279L15.9904 11.1307L15.981 11.1088L15.9695 11.0878L15.5309 11.3279ZM15.2001 11.3279L14.7615 11.0878L14.7499 11.109L14.7404 11.1312L15.2001 11.3279ZM14.2291 12.2989L14.0324 11.8392L14.0102 11.8487L13.989 11.8603L14.2291 12.2989ZM15.7404 18.0761L15.5003 18.5147L15.5213 18.5261L15.5432 18.5355L15.7404 18.0761ZM16.7114 19.0471L16.2519 19.2443L16.2614 19.2662L16.2728 19.2871L16.7114 19.0471ZM17.0422 19.0471L17.4808 19.2871L17.4923 19.2662L17.5017 19.2443L17.0422 19.0471ZM18.0132 18.0761L18.2104 18.5355L18.236 18.5246L18.2602 18.5109L18.0132 18.0761ZM18.0132 17.7452L18.2602 17.3105L18.236 17.2967L18.2104 17.2858L18.0132 17.7452ZM17.0422 16.7742L17.5017 16.5771L17.4923 16.5551L17.4808 16.5342L17.0422 16.7742ZM16.7114 16.7742L16.2728 16.5342L16.2612 16.5554L16.2517 16.5775L16.7114 16.7742ZM15.7404 17.7452L15.5437 17.2856L15.5215 17.295L15.5003 17.3066L15.7404 17.7452ZM33.1536 24.7452C33.1536 25.0213 33.3775 25.2452 33.6536 25.2452C33.9298 25.2452 34.1536 25.0213 34.1536 24.7452H33.1536ZM34.1536 19.9789C34.1536 19.7028 33.9298 19.4789 33.6536 19.4789C33.3775 19.4789 33.1536 19.7028 33.1536 19.9789H34.1536ZM9.86398 27.4193H26.3145V26.4193H9.86398V27.4193ZM27.6785 28.7833V37.3787H28.6785V28.7833H27.6785ZM27.5571 37.5H8.62133V38.5H27.5571V37.5ZM8.5 37.3787V28.7833H7.5V37.3787H8.5ZM8.62133 37.5C8.55432 37.5 8.5 37.4457 8.5 37.3787H7.5C7.5 37.998 8.00204 38.5 8.62133 38.5V37.5ZM27.6785 37.3787C27.6785 37.4457 27.6241 37.5 27.5571 37.5V38.5C28.1764 38.5 28.6785 37.998 28.6785 37.3787H27.6785ZM26.3145 27.4193C27.0678 27.4193 27.6785 28.03 27.6785 28.7833H28.6785C28.6785 27.4777 27.6201 26.4193 26.3145 26.4193V27.4193ZM9.86398 26.4193C8.55839 26.4193 7.5 27.4777 7.5 28.7833H8.5C8.5 28.03 9.11068 27.4193 9.86398 27.4193V26.4193ZM10.409 25.0623H26.3156V24.0623H10.409V25.0623ZM26.1263 24.8729V26.6087H27.1263V24.8729H26.1263ZM26.3156 26.4193H10.409V27.4193H26.3156V26.4193ZM10.5983 26.6087V24.8729H9.59833V26.6087H10.5983ZM10.409 26.4193C10.5136 26.4193 10.5983 26.5041 10.5983 26.6087H9.59833C9.59833 27.0564 9.96127 27.4193 10.409 27.4193V26.4193ZM26.1263 26.6087C26.1263 26.5041 26.211 26.4193 26.3156 26.4193V27.4193C26.7633 27.4193 27.1263 27.0564 27.1263 26.6087H26.1263ZM26.3156 25.0623C26.2111 25.0623 26.1263 24.9775 26.1263 24.8729H27.1263C27.1263 24.4252 26.7633 24.0623 26.3156 24.0623V25.0623ZM10.409 24.0623C9.96128 24.0623 9.59833 24.4252 9.59833 24.8729H10.5983C10.5983 24.9775 10.5136 25.0623 10.409 25.0623V24.0623ZM25.4405 24.0623H11.0302V25.0623H25.4405V24.0623ZM14.3047 21.6885H20.0992V20.6885H14.3047V21.6885ZM21.4165 21.1239L21.6555 20.8728L20.9313 20.1832L20.6922 20.4343L21.4165 21.1239ZM23.2547 20.1873C24.3573 20.1873 25.2512 21.0812 25.2512 22.1838H26.2512C26.2512 20.5289 24.9096 19.1873 23.2547 19.1873V20.1873ZM20.0992 21.6885C20.597 21.6885 21.0731 21.4844 21.4164 21.1239L20.6922 20.4343C20.5377 20.5966 20.3233 20.6885 20.0992 20.6885V21.6885ZM11.0302 24.0623C11.2789 24.0623 11.4806 24.2639 11.4806 24.5127H10.4806C10.4806 24.8162 10.7267 25.0623 11.0302 25.0623V24.0623ZM25.2512 24.2516C25.2512 24.1471 25.336 24.0623 25.4405 24.0623V25.0623C25.8883 25.0623 26.2512 24.6993 26.2512 24.2516H25.2512ZM21.6555 20.8728C22.0723 20.435 22.6503 20.1873 23.2547 20.1873V19.1873C22.3766 19.1873 21.5368 19.5472 20.9313 20.1832L21.6555 20.8728ZM11.4806 24.5127C11.4806 22.9529 12.745 21.6885 14.3047 21.6885V20.6885C12.1927 20.6885 10.4806 22.4007 10.4806 24.5127H11.4806ZM28.7998 25.2921H36.2257V24.2921H28.7998V25.2921ZM36.3471 25.4134V37.3787H37.3471V25.4134H36.3471ZM36.2257 37.5H28.7998V38.5H36.2257V37.5ZM28.6785 37.3787V25.4134H27.6785V37.3787H28.6785ZM28.7998 37.5C28.7328 37.5 28.6785 37.4457 28.6785 37.3787H27.6785C27.6785 37.998 28.1805 38.5 28.7998 38.5V37.5ZM36.3471 37.3787C36.3471 37.4457 36.2927 37.5 36.2257 37.5V38.5C36.845 38.5 37.3471 37.998 37.3471 37.3787H36.3471ZM36.2257 25.2921C36.2927 25.2921 36.3471 25.3464 36.3471 25.4134H37.3471C37.3471 24.7941 36.845 24.2921 36.2257 24.2921V25.2921ZM28.7998 24.2921C28.1805 24.2921 27.6785 24.7941 27.6785 25.4134H28.6785C28.6785 25.3464 28.7328 25.2921 28.7998 25.2921V24.2921ZM30.3815 17.9519H34.644V16.9519H30.3815V17.9519ZM34.7654 18.0732V24.7921H35.7654V18.0732H34.7654ZM35.2654 24.2921H29.7602V25.2921H35.2654V24.2921ZM30.2602 24.7921V18.0732H29.2602V24.7921H30.2602ZM34.644 17.9519C34.711 17.9519 34.7654 18.0062 34.7654 18.0732H35.7654C35.7654 17.4539 35.2633 16.9519 34.644 16.9519V17.9519ZM30.3815 16.9519C29.7622 16.9519 29.2602 17.4539 29.2602 18.0732H30.2602C30.2602 18.0062 30.3145 17.9519 30.3815 17.9519V16.9519ZM33.9406 8.55837V17.4519H34.9406V8.55837H33.9406ZM34.4406 16.9519H30.4818V17.9519H34.4406V16.9519ZM30.9818 17.4519V11.3543H29.9818V17.4519H30.9818ZM18.8383 15.5093C19.3594 15.7329 19.7746 16.1481 19.9982 16.6692L20.9172 16.2748C20.5924 15.5181 19.9894 14.9151 19.2327 14.5903L18.8383 15.5093ZM20.0191 16.7121C20.086 16.8343 20.1845 16.9362 20.3043 17.0072L20.8141 16.1469C20.8486 16.1674 20.877 16.1967 20.8963 16.232L20.0191 16.7121ZM20.3043 17.0072C20.4241 17.0782 20.5608 17.1156 20.7 17.1156V16.1156C20.7401 16.1156 20.7795 16.1264 20.8141 16.1469L20.3043 17.0072ZM20.7 17.1156C20.8392 17.1156 20.9759 17.0782 21.0957 17.0072L20.5859 16.1469C20.6205 16.1264 20.6599 16.1156 20.7 16.1156V17.1156ZM21.0957 17.0072C21.2155 16.9362 21.314 16.8343 21.3809 16.7121L20.5037 16.232C20.523 16.1967 20.5514 16.1673 20.5859 16.1469L21.0957 17.0072ZM21.4018 16.6692C21.6254 16.1481 22.0407 15.7329 22.5617 15.5093L22.1674 14.5903C21.4106 14.9151 20.8076 15.5181 20.4828 16.2748L21.4018 16.6692ZM22.6115 15.4846C22.7311 15.4166 22.8306 15.3182 22.8999 15.1992L22.0356 14.6961C22.0553 14.6623 22.0836 14.6343 22.1176 14.615L22.6115 15.4846ZM22.8999 15.1992C22.9691 15.0802 23.0056 14.9451 23.0056 14.8075H22.0056C22.0056 14.7684 22.0159 14.73 22.0356 14.6961L22.8999 15.1992ZM23.0056 14.8075C23.0056 14.6699 22.9691 14.5347 22.8999 14.4158L22.0356 14.9189C22.0159 14.885 22.0056 14.8466 22.0056 14.8075H23.0056ZM22.8999 14.4158C22.8306 14.2968 22.7311 14.1984 22.6115 14.1304L22.1176 15C22.0836 14.9807 22.0553 14.9527 22.0356 14.9189L22.8999 14.4158ZM22.5617 14.1057C22.0407 13.8821 21.6254 13.4668 21.4018 12.9458L20.4828 13.3401C20.8076 14.0969 21.4106 14.6999 22.1674 15.0247L22.5617 14.1057ZM21.3809 12.9029C21.314 12.7807 21.2155 12.6788 21.0957 12.6078L20.5859 13.4681C20.5514 13.4476 20.523 13.4182 20.5037 13.383L21.3809 12.9029ZM21.0957 12.6078C20.976 12.5368 20.8393 12.4994 20.7 12.4994V13.4994C20.6598 13.4994 20.6204 13.4885 20.5859 13.4681L21.0957 12.6078ZM20.7 12.4994C20.5607 12.4994 20.424 12.5368 20.3043 12.6078L20.8141 13.4681C20.7796 13.4886 20.7402 13.4994 20.7 13.4994V12.4994ZM20.3043 12.6078C20.1845 12.6788 20.086 12.7807 20.0191 12.9029L20.8963 13.383C20.877 13.4182 20.8486 13.4476 20.8141 13.4681L20.3043 12.6078ZM19.998 12.9463C19.7751 13.4674 19.3599 13.8825 18.8388 14.1055L19.2322 15.0249C19.9897 14.7007 20.5933 14.0972 20.9174 13.3396L19.998 12.9463ZM18.7954 14.1266C18.6733 14.1935 18.5713 14.2919 18.5003 14.4117L19.3606 14.9216C19.3401 14.9561 19.3107 14.9845 19.2755 15.0038L18.7954 14.1266ZM18.5003 14.4117C18.4293 14.5315 18.3919 14.6682 18.3919 14.8075H19.3919C19.3919 14.8476 19.3811 14.887 19.3606 14.9216L18.5003 14.4117ZM18.3919 14.8075C18.3919 14.9467 18.4293 15.0834 18.5003 15.2032L19.3606 14.6934C19.3811 14.7279 19.3919 14.7673 19.3919 14.8075H18.3919ZM18.5003 15.2032C18.5713 15.323 18.6733 15.4215 18.7954 15.4884L19.2755 14.6112C19.3108 14.6305 19.3401 14.6588 19.3606 14.6934L18.5003 15.2032ZM14.0319 13.0892C14.3503 13.2258 14.604 13.4796 14.7406 13.7979L15.6596 13.4036C15.4218 12.8495 14.9803 12.408 14.4263 12.1703L14.0319 13.0892ZM14.7615 13.8408C14.8208 13.9492 14.9082 14.0396 15.0145 14.1026L15.5243 13.2423C15.5724 13.2708 15.6119 13.3117 15.6387 13.3607L14.7615 13.8408ZM15.0145 14.1026C15.1208 14.1656 15.242 14.1988 15.3655 14.1988V13.1988C15.4214 13.1988 15.4762 13.2138 15.5243 13.2423L15.0145 14.1026ZM15.3655 14.1988C15.489 14.1988 15.6103 14.1656 15.7166 14.1026L15.2068 13.2423C15.2548 13.2138 15.3097 13.1988 15.3655 13.1988V14.1988ZM15.7166 14.1026C15.8229 14.0396 15.9102 13.9492 15.9695 13.8408L15.0924 13.3607C15.1192 13.3117 15.1587 13.2708 15.2068 13.2423L15.7166 14.1026ZM15.9904 13.7979C16.1271 13.4796 16.3808 13.2258 16.6991 13.0892L16.3048 12.1703C15.7507 12.408 15.3092 12.8495 15.0715 13.4036L15.9904 13.7979ZM16.7489 13.0645C16.8549 13.0043 16.9431 12.917 17.0045 12.8116L16.1403 12.3085C16.1678 12.2611 16.2074 12.222 16.255 12.195L16.7489 13.0645ZM17.0045 12.8116C17.0659 12.7061 17.0982 12.5863 17.0982 12.4643H16.0982C16.0982 12.4096 16.1127 12.3558 16.1403 12.3085L17.0045 12.8116ZM17.0982 12.4643C17.0982 12.3424 17.0659 12.2225 17.0045 12.1171L16.1403 12.6202C16.1127 12.5728 16.0982 12.5191 16.0982 12.4643H17.0982ZM17.0045 12.1171C16.9432 12.0116 16.8549 11.9244 16.7489 11.8641L16.255 12.7337C16.2074 12.7067 16.1678 12.6675 16.1403 12.6202L17.0045 12.1171ZM16.6991 11.8394C16.3808 11.7028 16.1271 11.4491 15.9904 11.1307L15.0715 11.5251C15.3092 12.0791 15.7507 12.5206 16.3048 12.7584L16.6991 11.8394ZM15.9695 11.0878C15.9102 10.9795 15.8229 10.8891 15.7166 10.8261L15.2068 11.6864C15.1587 11.6579 15.1192 11.617 15.0924 11.568L15.9695 11.0878ZM15.7166 10.8261C15.6103 10.7631 15.4891 10.7299 15.3655 10.7299V11.7299C15.3096 11.7299 15.2548 11.7148 15.2068 11.6864L15.7166 10.8261ZM15.3655 10.7299C15.242 10.7299 15.1207 10.7631 15.0145 10.8261L15.5243 11.6864C15.4763 11.7148 15.4214 11.7299 15.3655 11.7299V10.7299ZM15.0145 10.8261C14.9082 10.8891 14.8208 10.9795 14.7615 11.0878L15.6387 11.568C15.6119 11.617 15.5724 11.6579 15.5243 11.6864L15.0145 10.8261ZM14.7404 11.1312C14.6042 11.4495 14.3507 11.703 14.0324 11.8392L14.4258 12.7586C14.9805 12.5212 15.4225 12.0793 15.6598 11.5246L14.7404 11.1312ZM13.989 11.8603C13.8807 11.9196 13.7903 12.007 13.7273 12.1133L14.5876 12.6231C14.5591 12.6712 14.5182 12.7107 14.4692 12.7375L13.989 11.8603ZM13.7273 12.1133C13.6643 12.2195 13.6311 12.3408 13.6311 12.4643H14.6311C14.6311 12.5202 14.6161 12.575 14.5876 12.6231L13.7273 12.1133ZM13.6311 12.4643C13.6311 12.5879 13.6643 12.7091 13.7273 12.8154L14.5876 12.3056C14.6161 12.3536 14.6311 12.4085 14.6311 12.4643H13.6311ZM13.7273 12.8154C13.7903 12.9217 13.8807 13.009 13.989 13.0683L14.4692 12.1911C14.5182 12.218 14.5591 12.2575 14.5876 12.3056L13.7273 12.8154ZM15.5432 18.5355C15.8616 18.6722 16.1153 18.9259 16.2519 19.2443L17.1709 18.8499C16.9331 18.2959 16.4916 17.8544 15.9376 17.6166L15.5432 18.5355ZM16.2728 19.2871C16.3321 19.3955 16.4195 19.4859 16.5258 19.5489L17.0356 18.6886C17.0837 18.7171 17.1232 18.758 17.15 18.807L16.2728 19.2871ZM16.5258 19.5489C16.6321 19.6119 16.7533 19.6451 16.8768 19.6451V18.6451C16.9327 18.6451 16.9875 18.6601 17.0356 18.6886L16.5258 19.5489ZM16.8768 19.6451C17.0003 19.6451 17.1216 19.6119 17.2279 19.5489L16.7181 18.6886C16.7662 18.6601 16.821 18.6451 16.8768 18.6451V19.6451ZM17.2279 19.5489C17.3342 19.4859 17.4215 19.3955 17.4808 19.2871L16.6037 18.807C16.6305 18.758 16.67 18.7171 16.7181 18.6886L17.2279 19.5489ZM17.5017 19.2443C17.6384 18.9259 17.8921 18.6722 18.2104 18.5355L17.8161 17.6166C17.262 17.8544 16.8205 18.2959 16.5828 18.8499L17.5017 19.2443ZM18.2602 18.5109C18.3662 18.4506 18.4544 18.3634 18.5158 18.2579L17.6516 17.7548C17.6792 17.7075 17.7188 17.6683 17.7663 17.6413L18.2602 18.5109ZM18.5158 18.2579C18.5772 18.1524 18.6095 18.0326 18.6095 17.9107H17.6095C17.6095 17.8559 17.624 17.8022 17.6516 17.7548L18.5158 18.2579ZM18.6095 17.9107C18.6095 17.7887 18.5772 17.6689 18.5158 17.5634L17.6516 18.0665C17.624 18.0192 17.6095 17.9654 17.6095 17.9107H18.6095ZM18.5158 17.5634C18.4545 17.458 18.3662 17.3707 18.2602 17.3105L17.7663 18.18C17.7187 18.153 17.6791 18.1138 17.6516 18.0665L18.5158 17.5634ZM18.2104 17.2858C17.8921 17.1491 17.6384 16.8954 17.5017 16.5771L16.5828 16.9714C16.8205 17.5254 17.262 17.967 17.8161 18.2047L18.2104 17.2858ZM17.4808 16.5342C17.4215 16.4258 17.3342 16.3354 17.2279 16.2724L16.7181 17.1327C16.67 17.1042 16.6305 17.0633 16.6037 17.0143L17.4808 16.5342ZM17.2279 16.2724C17.1216 16.2095 17.0004 16.1762 16.8768 16.1762V17.1762C16.8209 17.1762 16.7661 17.1612 16.7181 17.1327L17.2279 16.2724ZM16.8768 16.1762C16.7533 16.1762 16.632 16.2095 16.5258 16.2724L17.0356 17.1327C16.9876 17.1612 16.9327 17.1762 16.8768 17.1762V16.1762ZM16.5258 16.2724C16.4195 16.3354 16.3321 16.4258 16.2728 16.5342L17.15 17.0143C17.1232 17.0633 17.0837 17.1042 17.0356 17.1327L16.5258 16.2724ZM16.2517 16.5775C16.1155 16.8958 15.862 17.1494 15.5437 17.2856L15.9371 18.2049C16.4918 17.9676 16.9338 17.5256 17.1711 16.9709L16.2517 16.5775ZM15.5003 17.3066C15.392 17.366 15.3016 17.4533 15.2386 17.5596L16.0989 18.0694C16.0704 18.1175 16.0295 18.157 15.9805 18.1838L15.5003 17.3066ZM15.2386 17.5596C15.1756 17.6659 15.1424 17.7871 15.1424 17.9107H16.1424C16.1424 17.9665 16.1274 18.0214 16.0989 18.0694L15.2386 17.5596ZM15.1424 17.9107C15.1424 18.0342 15.1756 18.1554 15.2386 18.2617L16.0989 17.7519C16.1274 17.7999 16.1424 17.8548 16.1424 17.9107H15.1424ZM15.2386 18.2617C15.3016 18.368 15.392 18.4554 15.5003 18.5147L15.9805 17.6375C16.0295 17.6643 16.0704 17.7038 16.0989 17.7519L15.2386 18.2617ZM12.3565 30.7018H22.4362V29.7018H12.3565V30.7018ZM24.1109 32.3765V34.4695H25.1109V32.3765H24.1109ZM24.3002 34.2802H14.2205V35.2802H24.3002V34.2802ZM12.5458 32.6056V30.5125H11.5458V32.6056H12.5458ZM14.2205 34.2802C13.2956 34.2802 12.5458 33.5304 12.5458 32.6056H11.5458C11.5458 34.0827 12.7433 35.2802 14.2205 35.2802V34.2802ZM24.1109 34.4695C24.1109 34.365 24.1957 34.2802 24.3002 34.2802V35.2802C24.7479 35.2802 25.1109 34.9173 25.1109 34.4695H24.1109ZM22.4362 30.7018C23.3611 30.7018 24.1109 31.4516 24.1109 32.3765H25.1109C25.1109 30.8993 23.9134 29.7018 22.4362 29.7018V30.7018ZM12.3565 29.7018C11.9088 29.7018 11.5458 30.0648 11.5458 30.5125H12.5458C12.5458 30.6171 12.4611 30.7018 12.3565 30.7018V29.7018ZM33.981 8.46063C33.9234 8.39859 33.9538 8.35753 33.9417 8.44888C33.9301 8.53603 33.8857 8.67657 33.7854 8.86619C33.5872 9.24106 33.2232 9.70966 32.732 10.1659L33.4124 10.8986C33.9635 10.3869 34.4061 9.83164 34.6695 9.3336C34.8 9.08675 34.9 8.82858 34.933 8.58061C34.9654 8.33684 34.9404 8.02427 34.7138 7.78017L33.981 8.46063ZM32.732 10.1659C32.2407 10.6221 31.7464 10.9504 31.3579 11.1203C31.1614 11.2063 31.018 11.2402 30.9302 11.2453C30.8382 11.2507 30.8814 11.2233 30.939 11.2853L30.2062 11.9658C30.4329 12.2099 30.7428 12.2579 30.9883 12.2436C31.238 12.2291 31.5028 12.1484 31.7587 12.0365C32.2748 11.8107 32.8613 11.4104 33.4124 10.8986L32.732 10.1659ZM30.939 11.2853C30.9966 11.3474 30.9662 11.3885 30.9783 11.2971C30.9899 11.21 31.0343 11.0694 31.1346 10.8798C31.3328 10.5049 31.6968 10.0363 32.188 9.58012L31.5076 8.84733C30.9565 9.35906 30.5139 9.91434 30.2505 10.4124C30.12 10.6592 30.02 10.9174 29.987 11.1654C29.9546 11.4091 29.9796 11.7217 30.2062 11.9658L30.939 11.2853ZM32.188 9.58012C32.6793 9.12392 33.1736 8.79558 33.5621 8.62565C33.7586 8.5397 33.902 8.50577 33.9898 8.50067C34.0818 8.49532 34.0386 8.52267 33.981 8.46063L34.7138 7.78017C34.4871 7.53608 34.1772 7.48808 33.9317 7.50236C33.682 7.51688 33.4172 7.59756 33.1613 7.70946C32.6452 7.93523 32.0587 8.33561 31.5076 8.84733L32.188 9.58012ZM34.1536 24.7452V19.9789H33.1536V24.7452H34.1536ZM25.2512 22.1838V24.2516H26.2512V22.1838H25.2512Z" fill="#663130"/>
</svg>
