<svg width="219" height="38" viewBox="0 0 219 38" fill="none" xmlns="http://www.w3.org/2000/svg">
<path d="M65.01 32.76C62.426 32.76 60.0827 32.1647 57.98 30.974C55.9027 29.758 54.2687 28.1113 53.078 26.034C51.9127 23.9313 51.33 21.6133 51.33 19.08C51.33 16.648 51.8493 14.4567 52.888 12.506C53.9267 10.53 55.396 8.98467 57.296 7.87C59.2213 6.73 61.4127 6.16 63.87 6.16C66.0993 6.16 67.9993 6.45133 69.57 7.034C71.1407 7.61667 72.306 8.35133 73.066 9.238C73.4967 9.79533 73.7627 10.5047 73.864 11.366C73.9907 12.2273 74.054 13.2787 74.054 14.52H72.914C72.4327 12.2147 71.546 10.53 70.254 9.466C68.9873 8.402 67.2393 7.87 65.01 7.87C62.1727 7.87 60.07 8.934 58.702 11.062C57.334 13.19 56.65 15.8627 56.65 19.08C56.65 23.412 57.3973 26.528 58.892 28.428C60.412 30.3027 62.4513 31.24 65.01 31.24C66.986 31.24 68.696 30.9107 70.14 30.252V23.488C70.14 22.1453 70.6467 21.0433 71.66 20.182C72.6733 19.2953 74.624 18.852 77.512 18.852V19.802C75.8907 19.802 75.08 21.0053 75.08 23.412V30.214C73.636 31.1007 72.0907 31.7467 70.444 32.152C68.7973 32.5573 66.986 32.76 65.01 32.76ZM80.3383 11.86C80.3383 10.568 80.1609 9.618 79.8063 9.01C79.4516 8.37667 78.7423 8.06 77.6782 8.06H77.2982V6.92H81.8583C82.7703 6.92 83.4669 7.072 83.9483 7.376C84.4296 7.68 84.7716 8.18667 84.9743 8.896C85.1769 9.58 85.2783 10.568 85.2783 11.86V32H80.3383V11.86ZM98.1911 32.38C96.3418 32.38 94.7205 31.9747 93.3271 31.164C91.9591 30.328 90.9078 29.2133 90.1731 27.82C89.4385 26.4013 89.0711 24.818 89.0711 23.07C89.0711 21.322 89.4385 19.7513 90.1731 18.358C90.9078 16.9393 91.9591 15.8247 93.3271 15.014C94.7205 14.178 96.3418 13.76 98.1911 13.76C100.04 13.76 101.649 14.178 103.017 15.014C104.41 15.8247 105.474 16.9393 106.209 18.358C106.944 19.7513 107.311 21.322 107.311 23.07C107.311 24.818 106.944 26.4013 106.209 27.82C105.474 29.2133 104.41 30.328 103.017 31.164C101.649 31.9747 100.04 32.38 98.1911 32.38ZM98.1911 30.67C99.4831 30.67 100.471 29.9733 101.155 28.58C101.839 27.1867 102.181 25.35 102.181 23.07C102.181 20.79 101.839 18.9533 101.155 17.56C100.471 16.1667 99.4831 15.47 98.1911 15.47C96.8991 15.47 95.9111 16.1667 95.2271 17.56C94.5431 18.9533 94.2011 20.79 94.2011 23.07C94.2011 25.35 94.5431 27.1867 95.2271 28.58C95.9111 29.9733 96.8991 30.67 98.1911 30.67ZM111.227 18.51C110.619 17.0913 110.049 16.0907 109.517 15.508C108.985 14.9253 108.377 14.6087 107.693 14.558V13.836L109.517 13.76C111.189 13.76 112.544 14.102 113.583 14.786C114.647 15.47 115.597 16.7113 116.433 18.51L119.663 25.768L122.209 19.688L121.677 18.51C121.069 17.142 120.499 16.154 119.967 15.546C119.435 14.938 118.89 14.6087 118.333 14.558V13.836L119.777 13.76C121.499 13.76 122.943 14.1147 124.109 14.824C125.274 15.508 126.262 16.7367 127.073 18.51L130.569 26.148L135.205 14.14H137.219L130.227 32.38H128.479L123.539 21.702L119.131 32.38H117.421L111.227 18.51ZM140.743 11.86C140.743 10.568 140.565 9.618 140.211 9.01C139.856 8.37667 139.147 8.06 138.083 8.06H137.703V6.92H153.625C155.778 6.92 156.855 7.93333 156.855 9.96V13.19H155.715C155.715 11.594 155.309 10.4413 154.499 9.732C153.713 8.99733 152.535 8.63 150.965 8.63H145.683V18.32H154.043V20.03H145.683V32H140.743V11.86ZM160.717 11.86C160.717 10.568 160.54 9.618 160.185 9.01C159.83 8.37667 159.121 8.06 158.057 8.06H157.677V6.92H162.237C163.149 6.92 163.846 7.072 164.327 7.376C164.808 7.68 165.15 8.18667 165.353 8.896C165.556 9.58 165.657 10.568 165.657 11.86V32H160.717V11.86ZM178.57 32.38C176.721 32.38 175.099 31.9747 173.706 31.164C172.338 30.328 171.287 29.2133 170.552 27.82C169.817 26.4013 169.45 24.818 169.45 23.07C169.45 21.322 169.817 19.7513 170.552 18.358C171.287 16.9393 172.338 15.8247 173.706 15.014C175.099 14.178 176.721 13.76 178.57 13.76C180.419 13.76 182.028 14.178 183.396 15.014C184.789 15.8247 185.853 16.9393 186.588 18.358C187.323 19.7513 187.69 21.322 187.69 23.07C187.69 24.818 187.323 26.4013 186.588 27.82C185.853 29.2133 184.789 30.328 183.396 31.164C182.028 31.9747 180.419 32.38 178.57 32.38ZM178.57 30.67C179.862 30.67 180.85 29.9733 181.534 28.58C182.218 27.1867 182.56 25.35 182.56 23.07C182.56 20.79 182.218 18.9533 181.534 17.56C180.85 16.1667 179.862 15.47 178.57 15.47C177.278 15.47 176.29 16.1667 175.606 17.56C174.922 18.9533 174.58 20.79 174.58 23.07C174.58 25.35 174.922 27.1867 175.606 28.58C176.29 29.9733 177.278 30.67 178.57 30.67ZM191.606 18.51C190.998 17.0913 190.428 16.0907 189.896 15.508C189.364 14.9253 188.756 14.6087 188.072 14.558V13.836L189.896 13.76C191.568 13.76 192.923 14.102 193.962 14.786C195.026 15.47 195.976 16.7113 196.812 18.51L200.042 25.768L202.588 19.688L202.056 18.51C201.448 17.142 200.878 16.154 200.346 15.546C199.814 14.938 199.269 14.6087 198.712 14.558V13.836L200.156 13.76C201.878 13.76 203.322 14.1147 204.488 14.824C205.653 15.508 206.641 16.7367 207.452 18.51L210.948 26.148L215.584 14.14H217.598L210.606 32.38H208.858L203.918 21.702L199.51 32.38H197.8L191.606 18.51Z" fill="#3D3030"/>
<path d="M24.201 9.18588C21.4068 12.6794 21.0165 17.0122 21.293 20.3886C22.6559 14.231 28.7257 10.3471 33.2146 8.74024C29.8085 10.2161 26.966 12.7462 25.1053 15.9583C23.6611 18.4337 23.2772 21.1628 23.3163 23.4788C24.2399 22.0044 25.6844 20.9315 27.3628 20.4732C31.8744 19.1168 38.1947 15.9583 40 4.20906C40.0033 4.22207 29.617 2.41675 24.201 9.18588Z" fill="#663130"/>
<path d="M23.7879 32.2549C22.1908 30.2577 21.9663 27.7823 22.1225 25.8501C22.9032 29.3697 26.3707 31.5881 28.9534 32.5086C27.0072 31.6645 25.3827 30.219 24.3181 28.3841C23.5913 27.0708 23.238 25.5836 23.2967 24.0838C23.8239 24.9271 24.6498 25.5405 25.6095 25.8013C28.189 26.5755 31.7899 28.3841 32.834 35.0914C32.8178 35.0914 26.8846 36.1225 23.7879 32.2549Z" fill="#663130"/>
<path d="M15.8022 9.18588C18.5964 12.6794 18.9867 17.0122 18.7103 20.3886C17.3473 14.231 11.2775 10.3471 6.78865 8.74024C10.1941 10.2171 13.0364 12.7469 14.8979 15.9583C16.3422 18.4337 16.7228 21.1628 16.687 23.4788C15.7634 22.0044 14.3188 20.9315 12.6405 20.4732C8.12556 19.1168 1.80532 15.9583 3.05381e-06 4.20906C-0.0065026 4.22207 10.383 2.41675 15.8022 9.18588Z" fill="#663130"/>
<path d="M16.2153 32.2549C17.8125 30.2577 18.0369 27.7823 17.8775 25.8501C17.1001 29.3697 13.6293 31.5881 11.0629 32.5086C13.0096 31.6653 14.6343 30.2196 15.6981 28.3841C16.425 27.0708 16.7782 25.5836 16.7195 24.0838C16.1929 24.9263 15.3684 25.5394 14.41 25.8013C11.8273 26.5755 8.22965 28.3841 7.1855 35.0914C7.1855 35.0914 13.1186 36.1225 16.2153 32.2549Z" fill="#663130"/>
<path d="M20.0016 10.9912C21.746 10.9912 23.1601 9.5771 23.1601 7.83271C23.1601 6.08832 21.746 4.67421 20.0016 4.67421C18.2572 4.67421 16.8431 6.08832 16.8431 7.83271C16.8431 9.5771 18.2572 10.9912 20.0016 10.9912Z" fill="#663130"/>
<path d="M21.5825 32.4273C21.5825 32.74 21.4898 33.0456 21.3161 33.3056C21.1424 33.5656 20.8955 33.7682 20.6066 33.8879C20.3177 34.0075 19.9999 34.0388 19.6932 33.9778C19.3866 33.9168 19.1049 33.7663 18.8838 33.5452C18.6627 33.3241 18.5121 33.0424 18.4511 32.7357C18.3901 32.4291 18.4214 32.1112 18.5411 31.8224C18.6607 31.5335 18.8634 31.2866 19.1233 31.1129C19.3833 30.9392 19.689 30.8465 20.0016 30.8465C20.4209 30.8465 20.823 31.013 21.1195 31.3095C21.4159 31.6059 21.5825 32.008 21.5825 32.4273Z" fill="#663130"/>
</svg>
