<svg width="45" height="45" viewBox="0 0 45 45" fill="none" xmlns="http://www.w3.org/2000/svg">
<path d="M23.0155 29.4404L23.0218 28.9404L23.0162 28.9404L23.0155 29.4404ZM21.4145 29.2073L21.5564 28.7278L21.5533 28.7269L21.4145 29.2073ZM15.3057 19.4715L14.8057 19.4654V19.4715H15.3057ZM15.5803 17.2176L15.4839 16.727L15.1672 16.7892L15.0935 17.1035L15.5803 17.2176ZM17.4715 16.6995L17.6386 17.1708L17.6451 17.1684L17.4715 16.6995ZM17.6114 16.6477L17.7851 17.1166L17.787 17.1158L17.6114 16.6477ZM18.1036 16.4508L17.9045 15.9922L17.9032 15.9927L18.1036 16.4508ZM18.4974 16.2798L18.6966 16.7385L18.7014 16.7363L18.4974 16.2798ZM18.7409 16.171L18.9449 16.6275L18.952 16.6243L18.9591 16.6209L18.7409 16.171ZM18.9119 16.0881L19.13 16.538L19.1308 16.5376L18.9119 16.0881ZM20.658 15.1244L20.9493 14.718L20.6779 14.5235L20.3943 14.6996L20.658 15.1244ZM30.6321 18.2902L31.1284 18.2296L31.0744 17.787L30.6285 17.7902L30.6321 18.2902ZM30.715 19.5441H31.215L31.215 19.5388L30.715 19.5441ZM24.6062 29.2332L24.7404 29.7149L24.7482 29.7126L24.6062 29.2332ZM35.9844 28.1244H36.4844C36.4844 27.8482 36.2606 27.6244 35.9844 27.6244V28.1244ZM32.3575 28.1244V27.6244C32.0813 27.6244 31.8575 27.8482 31.8575 28.1244H32.3575ZM35.0619 23.9018L34.7083 24.2554L35.0619 23.9018ZM33.2593 23.9018L33.6129 24.2554L33.2593 23.9018ZM12.6321 22.9689V23.4689H13.1321V22.9689H12.6321ZM9.59067 22.9689H9.09067V23.4689H9.59067V22.9689ZM8 26.6891V26.1891H7.5V26.6891H8ZM14.2591 26.6891H14.7591V26.1891H14.2591V26.6891ZM14.2591 33.8135V34.3135H14.7591V33.8135H14.2591ZM8 33.8135H7.5V34.3135H8V33.8135ZM34.0622 19.6529L33.5622 19.6521V19.6529H34.0622ZM22.4145 8.00003V8.50003L22.4157 8.50003L22.4145 8.00003ZM28.7668 12.4197L28.9643 11.9604L28.2668 11.6605V12.4197H28.7668ZM30.9378 14.5907L30.4785 14.7882L30.4855 14.8046L30.4937 14.8204L30.9378 14.5907ZM31.0932 14.7513L31.368 14.3336L31.353 14.3237L31.3374 14.315L31.0932 14.7513ZM31.3057 14.8135L31.3024 14.3135L31.2996 14.3135L31.3057 14.8135ZM31.6735 14.5907L32.1151 14.8253L32.1247 14.8072L32.1328 14.7885L31.6735 14.5907ZM33.8497 12.4197L34.0464 12.8794L34.0716 12.8686L34.0954 12.8552L33.8497 12.4197ZM34.0052 12.2643L33.5706 12.0169L33.5696 12.0186L34.0052 12.2643ZM34.0622 12.0518L34.5622 12.0552L34.5621 12.0484L34.0622 12.0518ZM34.0052 11.8342L34.4426 11.5921L34.4346 11.5776L34.4257 11.5637L34.0052 11.8342ZM33.8497 11.6788L34.1202 11.2583L34.0842 11.2351L34.0448 11.2184L33.8497 11.6788ZM31.6735 9.5078L32.1335 9.31161L32.1202 9.28053L32.1029 9.2515L31.6735 9.5078ZM31.5233 9.34718L31.8076 8.93588L31.7871 8.92174L31.7654 8.90969L31.5233 9.34718ZM31.3057 9.29018L31.3091 8.79019L31.3072 8.79019L31.3057 9.29018ZM31.0932 9.34718L30.8417 8.91508L30.8352 8.91882L30.8289 8.92276L31.0932 9.34718ZM30.9378 9.5078L30.5049 9.25753L30.4891 9.28495L30.4768 9.31415L30.9378 9.5078ZM28.7668 11.7047L28.5677 11.246L28.5471 11.255L28.5273 11.2658L28.7668 11.7047ZM28.6062 11.8601L29.0304 12.1251L29.037 12.1139L28.6062 11.8601ZM28.544 12.0777L28.0438 12.0787L28.0442 12.0916L28.544 12.0777ZM28.7668 12.4456L28.523 12.8821L29.2668 13.2977V12.4456H28.7668ZM23.0162 28.9404C22.522 28.9397 22.0304 28.8681 21.5564 28.7278L21.2726 29.6867C21.8382 29.8541 22.4249 29.9396 23.0148 29.9404L23.0162 28.9404ZM21.5533 28.7269C19.9158 28.2536 18.4781 26.9692 17.4423 25.2719C16.4085 23.5778 15.8057 21.5197 15.8057 19.5803H14.8057C14.8057 21.7135 15.4645 23.9507 16.5887 25.7929C17.711 27.6318 19.3278 29.1246 21.2757 29.6876L21.5533 28.7269ZM15.8057 19.5803C15.8057 19.5803 15.8057 19.5802 15.8057 19.5801C15.8057 19.58 15.8057 19.58 15.8057 19.5799C15.8057 19.5798 15.8057 19.5798 15.8057 19.5797C15.8057 19.5796 15.8057 19.5795 15.8057 19.5795C15.8057 19.5794 15.8057 19.5793 15.8057 19.5793C15.8057 19.5792 15.8057 19.5791 15.8057 19.5791C15.8057 19.579 15.8057 19.5789 15.8057 19.5788C15.8057 19.5788 15.8057 19.5787 15.8057 19.5786C15.8057 19.5786 15.8057 19.5785 15.8057 19.5784C15.8057 19.5783 15.8057 19.5783 15.8057 19.5782C15.8057 19.5781 15.8057 19.5781 15.8057 19.578C15.8057 19.5779 15.8057 19.5778 15.8057 19.5778C15.8057 19.5777 15.8057 19.5776 15.8057 19.5776C15.8057 19.5775 15.8057 19.5774 15.8057 19.5774C15.8057 19.5773 15.8057 19.5772 15.8057 19.5771C15.8057 19.5771 15.8057 19.577 15.8057 19.5769C15.8057 19.5769 15.8057 19.5768 15.8057 19.5767C15.8057 19.5766 15.8057 19.5766 15.8057 19.5765C15.8057 19.5764 15.8057 19.5764 15.8057 19.5763C15.8057 19.5762 15.8057 19.5761 15.8057 19.5761C15.8057 19.576 15.8057 19.5759 15.8057 19.5759C15.8057 19.5758 15.8057 19.5757 15.8057 19.5757C15.8057 19.5756 15.8057 19.5755 15.8057 19.5754C15.8057 19.5754 15.8057 19.5753 15.8057 19.5752C15.8057 19.5752 15.8057 19.5751 15.8057 19.575C15.8057 19.5749 15.8057 19.5749 15.8057 19.5748C15.8057 19.5747 15.8057 19.5747 15.8057 19.5746C15.8057 19.5745 15.8057 19.5744 15.8057 19.5744C15.8057 19.5743 15.8057 19.5742 15.8057 19.5742C15.8057 19.5741 15.8057 19.574 15.8057 19.574C15.8057 19.5739 15.8057 19.5738 15.8057 19.5737C15.8057 19.5737 15.8057 19.5736 15.8057 19.5735C15.8057 19.5735 15.8057 19.5734 15.8057 19.5733C15.8057 19.5732 15.8057 19.5732 15.8057 19.5731C15.8057 19.573 15.8057 19.573 15.8057 19.5729C15.8057 19.5728 15.8057 19.5727 15.8057 19.5727C15.8057 19.5726 15.8057 19.5725 15.8057 19.5725C15.8057 19.5724 15.8057 19.5723 15.8057 19.5723C15.8057 19.5722 15.8057 19.5721 15.8057 19.572C15.8057 19.572 15.8057 19.5719 15.8057 19.5718C15.8057 19.5718 15.8057 19.5717 15.8057 19.5716C15.8057 19.5715 15.8057 19.5715 15.8057 19.5714C15.8057 19.5713 15.8057 19.5713 15.8057 19.5712C15.8057 19.5711 15.8057 19.571 15.8057 19.571C15.8057 19.5709 15.8057 19.5708 15.8057 19.5708C15.8057 19.5707 15.8057 19.5706 15.8057 19.5706C15.8057 19.5705 15.8057 19.5704 15.8057 19.5703C15.8057 19.5703 15.8057 19.5702 15.8057 19.5701C15.8057 19.5701 15.8057 19.57 15.8057 19.5699C15.8057 19.5698 15.8057 19.5698 15.8057 19.5697C15.8057 19.5696 15.8057 19.5696 15.8057 19.5695C15.8057 19.5694 15.8057 19.5693 15.8057 19.5693C15.8057 19.5692 15.8057 19.5691 15.8057 19.5691C15.8057 19.569 15.8057 19.5689 15.8057 19.5689C15.8057 19.5688 15.8057 19.5687 15.8057 19.5686C15.8057 19.5686 15.8057 19.5685 15.8057 19.5684C15.8057 19.5684 15.8057 19.5683 15.8057 19.5682C15.8057 19.5681 15.8057 19.5681 15.8057 19.568C15.8057 19.5679 15.8057 19.5679 15.8057 19.5678C15.8057 19.5677 15.8057 19.5676 15.8057 19.5676C15.8057 19.5675 15.8057 19.5674 15.8057 19.5674C15.8057 19.5673 15.8057 19.5672 15.8057 19.5672C15.8057 19.5671 15.8057 19.567 15.8057 19.5669C15.8057 19.5669 15.8057 19.5668 15.8057 19.5667C15.8057 19.5667 15.8057 19.5666 15.8057 19.5665C15.8057 19.5664 15.8057 19.5664 15.8057 19.5663C15.8057 19.5662 15.8057 19.5662 15.8057 19.5661C15.8057 19.566 15.8057 19.5659 15.8057 19.5659C15.8057 19.5658 15.8057 19.5657 15.8057 19.5657C15.8057 19.5656 15.8057 19.5655 15.8057 19.5655C15.8057 19.5654 15.8057 19.5653 15.8057 19.5652C15.8057 19.5652 15.8057 19.5651 15.8057 19.565C15.8057 19.565 15.8057 19.5649 15.8057 19.5648C15.8057 19.5647 15.8057 19.5647 15.8057 19.5646C15.8057 19.5645 15.8057 19.5645 15.8057 19.5644C15.8057 19.5643 15.8057 19.5642 15.8057 19.5642C15.8057 19.5641 15.8057 19.564 15.8057 19.564C15.8057 19.5639 15.8057 19.5638 15.8057 19.5638C15.8057 19.5637 15.8057 19.5636 15.8057 19.5635C15.8057 19.5635 15.8057 19.5634 15.8057 19.5633C15.8057 19.5633 15.8057 19.5632 15.8057 19.5631C15.8057 19.563 15.8057 19.563 15.8057 19.5629C15.8057 19.5628 15.8057 19.5628 15.8057 19.5627C15.8057 19.5626 15.8057 19.5625 15.8057 19.5625C15.8057 19.5624 15.8057 19.5623 15.8057 19.5623C15.8057 19.5622 15.8057 19.5621 15.8057 19.5621C15.8057 19.562 15.8057 19.5619 15.8057 19.5618C15.8057 19.5618 15.8057 19.5617 15.8057 19.5616C15.8057 19.5616 15.8057 19.5615 15.8057 19.5614C15.8057 19.5613 15.8057 19.5613 15.8057 19.5612C15.8057 19.5611 15.8057 19.5611 15.8057 19.561C15.8057 19.5609 15.8057 19.5608 15.8057 19.5608C15.8057 19.5607 15.8057 19.5606 15.8057 19.5606C15.8057 19.5605 15.8057 19.5604 15.8057 19.5604C15.8057 19.5603 15.8057 19.5602 15.8057 19.5601C15.8057 19.5601 15.8057 19.56 15.8057 19.5599C15.8057 19.5599 15.8057 19.5598 15.8057 19.5597C15.8057 19.5596 15.8057 19.5596 15.8057 19.5595C15.8057 19.5594 15.8057 19.5594 15.8057 19.5593C15.8057 19.5592 15.8057 19.5591 15.8057 19.5591C15.8057 19.559 15.8057 19.5589 15.8057 19.5589C15.8057 19.5588 15.8057 19.5587 15.8057 19.5587C15.8057 19.5586 15.8057 19.5585 15.8057 19.5584C15.8057 19.5584 15.8057 19.5583 15.8057 19.5582C15.8057 19.5582 15.8057 19.5581 15.8057 19.558C15.8057 19.5579 15.8057 19.5579 15.8057 19.5578C15.8057 19.5577 15.8057 19.5577 15.8057 19.5576C15.8057 19.5575 15.8057 19.5574 15.8057 19.5574C15.8057 19.5573 15.8057 19.5572 15.8057 19.5572C15.8057 19.5571 15.8057 19.557 15.8057 19.557C15.8057 19.5569 15.8057 19.5568 15.8057 19.5567C15.8057 19.5567 15.8057 19.5566 15.8057 19.5565C15.8057 19.5565 15.8057 19.5564 15.8057 19.5563C15.8057 19.5562 15.8057 19.5562 15.8057 19.5561C15.8057 19.556 15.8057 19.556 15.8057 19.5559C15.8057 19.5558 15.8057 19.5557 15.8057 19.5557C15.8057 19.5556 15.8057 19.5555 15.8057 19.5555C15.8057 19.5554 15.8057 19.5553 15.8057 19.5553C15.8057 19.5552 15.8057 19.5551 15.8057 19.555C15.8057 19.555 15.8057 19.5549 15.8057 19.5548C15.8057 19.5548 15.8057 19.5547 15.8057 19.5546C15.8057 19.5545 15.8057 19.5545 15.8057 19.5544C15.8057 19.5543 15.8057 19.5543 15.8057 19.5542C15.8057 19.5541 15.8057 19.554 15.8057 19.554C15.8057 19.5539 15.8057 19.5538 15.8057 19.5538C15.8057 19.5537 15.8057 19.5536 15.8057 19.5536C15.8057 19.5535 15.8057 19.5534 15.8057 19.5533C15.8057 19.5533 15.8057 19.5532 15.8057 19.5531C15.8057 19.5531 15.8057 19.553 15.8057 19.5529C15.8057 19.5528 15.8057 19.5528 15.8057 19.5527C15.8057 19.5526 15.8057 19.5526 15.8057 19.5525C15.8057 19.5524 15.8057 19.5523 15.8057 19.5523C15.8057 19.5522 15.8057 19.5521 15.8057 19.5521C15.8057 19.552 15.8057 19.5519 15.8057 19.5519C15.8057 19.5518 15.8057 19.5517 15.8057 19.5516C15.8057 19.5516 15.8057 19.5515 15.8057 19.5514C15.8057 19.5514 15.8057 19.5513 15.8057 19.5512C15.8057 19.5511 15.8057 19.5511 15.8057 19.551C15.8057 19.5509 15.8057 19.5509 15.8057 19.5508C15.8057 19.5507 15.8057 19.5506 15.8057 19.5506C15.8057 19.5505 15.8057 19.5504 15.8057 19.5504C15.8057 19.5503 15.8057 19.5502 15.8057 19.5501C15.8057 19.5501 15.8057 19.55 15.8057 19.5499C15.8057 19.5499 15.8057 19.5498 15.8057 19.5497C15.8057 19.5497 15.8057 19.5496 15.8057 19.5495C15.8057 19.5494 15.8057 19.5494 15.8057 19.5493C15.8057 19.5492 15.8057 19.5492 15.8057 19.5491C15.8057 19.549 15.8057 19.5489 15.8057 19.5489C15.8057 19.5488 15.8057 19.5487 15.8057 19.5487C15.8057 19.5486 15.8057 19.5485 15.8057 19.5485C15.8057 19.5484 15.8057 19.5483 15.8057 19.5482C15.8057 19.5482 15.8057 19.5481 15.8057 19.548C15.8057 19.548 15.8057 19.5479 15.8057 19.5478C15.8057 19.5477 15.8057 19.5477 15.8057 19.5476C15.8057 19.5475 15.8057 19.5475 15.8057 19.5474C15.8057 19.5473 15.8057 19.5472 15.8057 19.5472C15.8057 19.5471 15.8057 19.547 15.8057 19.547C15.8057 19.5469 15.8057 19.5468 15.8057 19.5468C15.8057 19.5467 15.8057 19.5466 15.8057 19.5465C15.8057 19.5465 15.8057 19.5464 15.8057 19.5463C15.8057 19.5463 15.8057 19.5462 15.8057 19.5461C15.8057 19.546 15.8057 19.546 15.8057 19.5459C15.8057 19.5458 15.8057 19.5458 15.8057 19.5457C15.8057 19.5456 15.8057 19.5455 15.8057 19.5455C15.8057 19.5454 15.8057 19.5453 15.8057 19.5453C15.8057 19.5452 15.8057 19.5451 15.8057 19.5451C15.8057 19.545 15.8057 19.5449 15.8057 19.5448C15.8057 19.5448 15.8057 19.5447 15.8057 19.5446C15.8057 19.5446 15.8057 19.5445 15.8057 19.5444C15.8057 19.5443 15.8057 19.5443 15.8057 19.5442C15.8057 19.5441 15.8057 19.5441 15.8057 19.544C15.8057 19.5439 15.8057 19.5438 15.8057 19.5438C15.8057 19.5437 15.8057 19.5436 15.8057 19.5436C15.8057 19.5435 15.8057 19.5434 15.8057 19.5434C15.8057 19.5433 15.8057 19.5432 15.8057 19.5431C15.8057 19.5431 15.8057 19.543 15.8057 19.5429C15.8057 19.5429 15.8057 19.5428 15.8057 19.5427C15.8057 19.5426 15.8057 19.5426 15.8057 19.5425C15.8057 19.5424 15.8057 19.5424 15.8057 19.5423C15.8057 19.5422 15.8057 19.5421 15.8057 19.5421C15.8057 19.542 15.8057 19.5419 15.8057 19.5419C15.8057 19.5418 15.8057 19.5417 15.8057 19.5416C15.8057 19.5416 15.8057 19.5415 15.8057 19.5414C15.8057 19.5414 15.8057 19.5413 15.8057 19.5412C15.8057 19.5412 15.8057 19.5411 15.8057 19.541C15.8057 19.5409 15.8057 19.5409 15.8057 19.5408C15.8057 19.5407 15.8057 19.5407 15.8057 19.5406C15.8057 19.5405 15.8057 19.5404 15.8057 19.5404C15.8057 19.5403 15.8057 19.5402 15.8057 19.5402C15.8057 19.5401 15.8057 19.54 15.8057 19.54C15.8057 19.5399 15.8057 19.5398 15.8057 19.5397C15.8057 19.5397 15.8057 19.5396 15.8057 19.5395C15.8057 19.5395 15.8057 19.5394 15.8057 19.5393C15.8057 19.5392 15.8057 19.5392 15.8057 19.5391C15.8057 19.539 15.8057 19.539 15.8057 19.5389C15.8057 19.5388 15.8057 19.5387 15.8057 19.5387C15.8057 19.5386 15.8057 19.5385 15.8057 19.5385C15.8057 19.5384 15.8057 19.5383 15.8057 19.5382C15.8057 19.5382 15.8057 19.5381 15.8057 19.538C15.8057 19.538 15.8057 19.5379 15.8057 19.5378C15.8057 19.5378 15.8057 19.5377 15.8057 19.5376C15.8057 19.5375 15.8057 19.5375 15.8057 19.5374C15.8057 19.5373 15.8057 19.5373 15.8057 19.5372C15.8057 19.5371 15.8057 19.537 15.8057 19.537C15.8057 19.5369 15.8057 19.5368 15.8057 19.5368C15.8057 19.5367 15.8057 19.5366 15.8057 19.5365C15.8057 19.5365 15.8057 19.5364 15.8057 19.5363C15.8057 19.5363 15.8057 19.5362 15.8057 19.5361C15.8057 19.5361 15.8057 19.536 15.8057 19.5359C15.8057 19.5358 15.8057 19.5358 15.8057 19.5357C15.8057 19.5356 15.8057 19.5356 15.8057 19.5355C15.8057 19.5354 15.8057 19.5353 15.8057 19.5353C15.8057 19.5352 15.8057 19.5351 15.8057 19.5351C15.8057 19.535 15.8057 19.5349 15.8057 19.5349C15.8057 19.5348 15.8057 19.5347 15.8057 19.5346C15.8057 19.5346 15.8057 19.5345 15.8057 19.5344C15.8057 19.5344 15.8057 19.5343 15.8057 19.5342C15.8057 19.5341 15.8057 19.5341 15.8057 19.534C15.8057 19.5339 15.8057 19.5339 15.8057 19.5338C15.8057 19.5337 15.8057 19.5336 15.8057 19.5336C15.8057 19.5335 15.8057 19.5334 15.8057 19.5334C15.8057 19.5333 15.8057 19.5332 15.8057 19.5331C15.8057 19.5331 15.8057 19.533 15.8057 19.5329C15.8057 19.5329 15.8057 19.5328 15.8057 19.5327C15.8057 19.5327 15.8057 19.5326 15.8057 19.5325C15.8057 19.5324 15.8057 19.5324 15.8057 19.5323C15.8057 19.5322 15.8057 19.5322 15.8057 19.5321C15.8057 19.532 15.8057 19.5319 15.8057 19.5319C15.8057 19.5318 15.8057 19.5317 15.8057 19.5317C15.8057 19.5316 15.8057 19.5315 15.8057 19.5315C15.8057 19.5314 15.8057 19.5313 15.8057 19.5312C15.8057 19.5312 15.8057 19.5311 15.8057 19.531C15.8057 19.531 15.8057 19.5309 15.8057 19.5308C15.8057 19.5307 15.8057 19.5307 15.8057 19.5306C15.8057 19.5305 15.8057 19.5305 15.8057 19.5304C15.8057 19.5303 15.8057 19.5302 15.8057 19.5302C15.8057 19.5301 15.8057 19.53 15.8057 19.53C15.8057 19.5299 15.8057 19.5298 15.8057 19.5297C15.8057 19.5297 15.8057 19.5296 15.8057 19.5295C15.8057 19.5295 15.8057 19.5294 15.8057 19.5293C15.8057 19.5293 15.8057 19.5292 15.8057 19.5291C15.8057 19.529 15.8057 19.529 15.8057 19.5289C15.8057 19.5288 15.8057 19.5288 15.8057 19.5287C15.8057 19.5286 15.8057 19.5285 15.8057 19.5285C15.8057 19.5284 15.8057 19.5283 15.8057 19.5283C15.8057 19.5282 15.8057 19.5281 15.8057 19.528C15.8057 19.528 15.8057 19.5279 15.8057 19.5278C15.8057 19.5278 15.8057 19.5277 15.8057 19.5276C15.8057 19.5276 15.8057 19.5275 15.8057 19.5274C15.8057 19.5273 15.8057 19.5273 15.8057 19.5272C15.8057 19.5271 15.8057 19.5271 15.8057 19.527C15.8057 19.5269 15.8057 19.5268 15.8057 19.5268C15.8057 19.5267 15.8057 19.5266 15.8057 19.5266C15.8057 19.5265 15.8057 19.5264 15.8057 19.5264C15.8057 19.5263 15.8057 19.5262 15.8057 19.5261C15.8057 19.5261 15.8057 19.526 15.8057 19.5259C15.8057 19.5259 15.8057 19.5258 15.8057 19.5257C15.8057 19.5256 15.8057 19.5256 15.8057 19.5255C15.8057 19.5254 15.8057 19.5254 15.8057 19.5253C15.8057 19.5252 15.8057 19.5251 15.8057 19.5251C15.8057 19.525 15.8057 19.5249 15.8057 19.5249C15.8057 19.5248 15.8057 19.5247 15.8057 19.5246C15.8057 19.5246 15.8057 19.5245 15.8057 19.5244C15.8057 19.5244 15.8057 19.5243 15.8057 19.5242C15.8057 19.5242 15.8057 19.5241 15.8057 19.524C15.8057 19.5239 15.8057 19.5239 15.8057 19.5238C15.8057 19.5237 15.8057 19.5237 15.8057 19.5236C15.8057 19.5235 15.8057 19.5234 15.8057 19.5234C15.8057 19.5233 15.8057 19.5232 15.8057 19.5232C15.8057 19.5231 15.8057 19.523 15.8057 19.523C15.8057 19.5229 15.8057 19.5228 15.8057 19.5227C15.8057 19.5227 15.8057 19.5226 15.8057 19.5225C15.8057 19.5225 15.8057 19.5224 15.8057 19.5223C15.8057 19.5222 15.8057 19.5222 15.8057 19.5221C15.8057 19.522 15.8057 19.522 15.8057 19.5219C15.8057 19.5218 15.8057 19.5217 15.8057 19.5217C15.8057 19.5216 15.8057 19.5215 15.8057 19.5215C15.8057 19.5214 15.8057 19.5213 15.8057 19.5212C15.8057 19.5212 15.8057 19.5211 15.8057 19.521C15.8057 19.521 15.8057 19.5209 15.8057 19.5208C15.8057 19.5208 15.8057 19.5207 15.8057 19.5206C15.8057 19.5205 15.8057 19.5205 15.8057 19.5204C15.8057 19.5203 15.8057 19.5203 15.8057 19.5202C15.8057 19.5201 15.8057 19.52 15.8057 19.52C15.8057 19.5199 15.8057 19.5198 15.8057 19.5198C15.8057 19.5197 15.8057 19.5196 15.8057 19.5195C15.8057 19.5195 15.8057 19.5194 15.8057 19.5193C15.8057 19.5193 15.8057 19.5192 15.8057 19.5191C15.8057 19.5191 15.8057 19.519 15.8057 19.5189C15.8057 19.5188 15.8057 19.5188 15.8057 19.5187C15.8057 19.5186 15.8057 19.5186 15.8057 19.5185C15.8057 19.5184 15.8057 19.5183 15.8057 19.5183C15.8057 19.5182 15.8057 19.5181 15.8057 19.5181C15.8057 19.518 15.8057 19.5179 15.8057 19.5178C15.8057 19.5178 15.8057 19.5177 15.8057 19.5176C15.8057 19.5176 15.8057 19.5175 15.8057 19.5174C15.8057 19.5174 15.8057 19.5173 15.8057 19.5172C15.8057 19.5171 15.8057 19.5171 15.8057 19.517C15.8057 19.5169 15.8057 19.5169 15.8057 19.5168C15.8057 19.5167 15.8057 19.5166 15.8057 19.5166C15.8057 19.5165 15.8057 19.5164 15.8057 19.5164C15.8057 19.5163 15.8057 19.5162 15.8057 19.5161C15.8057 19.5161 15.8057 19.516 15.8057 19.5159C15.8057 19.5159 15.8057 19.5158 15.8057 19.5157C15.8057 19.5157 15.8057 19.5156 15.8057 19.5155C15.8057 19.5154 15.8057 19.5154 15.8057 19.5153C15.8057 19.5152 15.8057 19.5152 15.8057 19.5151C15.8057 19.515 15.8057 19.5149 15.8057 19.5149C15.8057 19.5148 15.8057 19.5147 15.8057 19.5147C15.8057 19.5146 15.8057 19.5145 15.8057 19.5145C15.8057 19.5144 15.8057 19.5143 15.8057 19.5142C15.8057 19.5142 15.8057 19.5141 15.8057 19.514C15.8057 19.514 15.8057 19.5139 15.8057 19.5138C15.8057 19.5137 15.8057 19.5137 15.8057 19.5136C15.8057 19.5135 15.8057 19.5135 15.8057 19.5134C15.8057 19.5133 15.8057 19.5132 15.8057 19.5132C15.8057 19.5131 15.8057 19.513 15.8057 19.513C15.8057 19.5129 15.8057 19.5128 15.8057 19.5127C15.8057 19.5127 15.8057 19.5126 15.8057 19.5125C15.8057 19.5125 15.8057 19.5124 15.8057 19.5123C15.8057 19.5123 15.8057 19.5122 15.8057 19.5121C15.8057 19.512 15.8057 19.512 15.8057 19.5119C15.8057 19.5118 15.8057 19.5118 15.8057 19.5117C15.8057 19.5116 15.8057 19.5115 15.8057 19.5115C15.8057 19.5114 15.8057 19.5113 15.8057 19.5113C15.8057 19.5112 15.8057 19.5111 15.8057 19.511C15.8057 19.511 15.8057 19.5109 15.8057 19.5108C15.8057 19.5108 15.8057 19.5107 15.8057 19.5106C15.8057 19.5106 15.8057 19.5105 15.8057 19.5104C15.8057 19.5103 15.8057 19.5103 15.8057 19.5102C15.8057 19.5101 15.8057 19.5101 15.8057 19.51C15.8057 19.5099 15.8057 19.5098 15.8057 19.5098C15.8057 19.5097 15.8057 19.5096 15.8057 19.5096C15.8057 19.5095 15.8057 19.5094 15.8057 19.5093C15.8057 19.5093 15.8057 19.5092 15.8057 19.5091C15.8057 19.5091 15.8057 19.509 15.8057 19.5089C15.8057 19.5089 15.8057 19.5088 15.8057 19.5087C15.8057 19.5086 15.8057 19.5086 15.8057 19.5085C15.8057 19.5084 15.8057 19.5084 15.8057 19.5083C15.8057 19.5082 15.8057 19.5081 15.8057 19.5081C15.8057 19.508 15.8057 19.5079 15.8057 19.5079C15.8057 19.5078 15.8057 19.5077 15.8057 19.5076C15.8057 19.5076 15.8057 19.5075 15.8057 19.5074C15.8057 19.5074 15.8057 19.5073 15.8057 19.5072C15.8057 19.5072 15.8057 19.5071 15.8057 19.507C15.8057 19.5069 15.8057 19.5069 15.8057 19.5068C15.8057 19.5067 15.8057 19.5067 15.8057 19.5066C15.8057 19.5065 15.8057 19.5064 15.8057 19.5064C15.8057 19.5063 15.8057 19.5062 15.8057 19.5062C15.8057 19.5061 15.8057 19.506 15.8057 19.5059C15.8057 19.5059 15.8057 19.5058 15.8057 19.5057C15.8057 19.5057 15.8057 19.5056 15.8057 19.5055C15.8057 19.5055 15.8057 19.5054 15.8057 19.5053C15.8057 19.5052 15.8057 19.5052 15.8057 19.5051C15.8057 19.505 15.8057 19.505 15.8057 19.5049C15.8057 19.5048 15.8057 19.5047 15.8057 19.5047C15.8057 19.5046 15.8057 19.5045 15.8057 19.5045C15.8057 19.5044 15.8057 19.5043 15.8057 19.5042C15.8057 19.5042 15.8057 19.5041 15.8057 19.504C15.8057 19.504 15.8057 19.5039 15.8057 19.5038C15.8057 19.5038 15.8057 19.5037 15.8057 19.5036C15.8057 19.5035 15.8057 19.5035 15.8057 19.5034C15.8057 19.5033 15.8057 19.5033 15.8057 19.5032C15.8057 19.5031 15.8057 19.503 15.8057 19.503C15.8057 19.5029 15.8057 19.5028 15.8057 19.5028C15.8057 19.5027 15.8057 19.5026 15.8057 19.5025C15.8057 19.5025 15.8057 19.5024 15.8057 19.5023C15.8057 19.5023 15.8057 19.5022 15.8057 19.5021C15.8057 19.5021 15.8057 19.502 15.8057 19.5019C15.8057 19.5018 15.8057 19.5018 15.8057 19.5017C15.8057 19.5016 15.8057 19.5016 15.8057 19.5015C15.8057 19.5014 15.8057 19.5013 15.8057 19.5013C15.8057 19.5012 15.8057 19.5011 15.8057 19.5011C15.8057 19.501 15.8057 19.5009 15.8057 19.5008C15.8057 19.5008 15.8057 19.5007 15.8057 19.5006C15.8057 19.5006 15.8057 19.5005 15.8057 19.5004C15.8057 19.5004 15.8057 19.5003 15.8057 19.5002C15.8057 19.5001 15.8057 19.5001 15.8057 19.5C15.8057 19.4999 15.8057 19.4999 15.8057 19.4998C15.8057 19.4997 15.8057 19.4996 15.8057 19.4996C15.8057 19.4995 15.8057 19.4994 15.8057 19.4994C15.8057 19.4993 15.8057 19.4992 15.8057 19.4991C15.8057 19.4991 15.8057 19.499 15.8057 19.4989C15.8057 19.4989 15.8057 19.4988 15.8057 19.4987C15.8057 19.4987 15.8057 19.4986 15.8057 19.4985C15.8057 19.4984 15.8057 19.4984 15.8057 19.4983C15.8057 19.4982 15.8057 19.4982 15.8057 19.4981C15.8057 19.498 15.8057 19.4979 15.8057 19.4979C15.8057 19.4978 15.8057 19.4977 15.8057 19.4977C15.8057 19.4976 15.8057 19.4975 15.8057 19.4974C15.8057 19.4974 15.8057 19.4973 15.8057 19.4972C15.8057 19.4972 15.8057 19.4971 15.8057 19.497C15.8057 19.497 15.8057 19.4969 15.8057 19.4968C15.8057 19.4967 15.8057 19.4967 15.8057 19.4966C15.8057 19.4965 15.8057 19.4965 15.8057 19.4964C15.8057 19.4963 15.8057 19.4962 15.8057 19.4962C15.8057 19.4961 15.8057 19.496 15.8057 19.496C15.8057 19.4959 15.8057 19.4958 15.8057 19.4957C15.8057 19.4957 15.8057 19.4956 15.8057 19.4955C15.8057 19.4955 15.8057 19.4954 15.8057 19.4953C15.8057 19.4953 15.8057 19.4952 15.8057 19.4951C15.8057 19.495 15.8057 19.495 15.8057 19.4949C15.8057 19.4948 15.8057 19.4948 15.8057 19.4947C15.8057 19.4946 15.8057 19.4945 15.8057 19.4945C15.8057 19.4944 15.8057 19.4943 15.8057 19.4943C15.8057 19.4942 15.8057 19.4941 15.8057 19.494C15.8057 19.494 15.8057 19.4939 15.8057 19.4938C15.8057 19.4938 15.8057 19.4937 15.8057 19.4936C15.8057 19.4936 15.8057 19.4935 15.8057 19.4934C15.8057 19.4933 15.8057 19.4933 15.8057 19.4932C15.8057 19.4931 15.8057 19.4931 15.8057 19.493C15.8057 19.4929 15.8057 19.4928 15.8057 19.4928C15.8057 19.4927 15.8057 19.4926 15.8057 19.4926C15.8057 19.4925 15.8057 19.4924 15.8057 19.4923C15.8057 19.4923 15.8057 19.4922 15.8057 19.4921C15.8057 19.4921 15.8057 19.492 15.8057 19.4919C15.8057 19.4919 15.8057 19.4918 15.8057 19.4917C15.8057 19.4916 15.8057 19.4916 15.8057 19.4915C15.8057 19.4914 15.8057 19.4914 15.8057 19.4913C15.8057 19.4912 15.8057 19.4911 15.8057 19.4911C15.8057 19.491 15.8057 19.4909 15.8057 19.4909C15.8057 19.4908 15.8057 19.4907 15.8057 19.4906C15.8057 19.4906 15.8057 19.4905 15.8057 19.4904C15.8057 19.4904 15.8057 19.4903 15.8057 19.4902C15.8057 19.4902 15.8057 19.4901 15.8057 19.49C15.8057 19.4899 15.8057 19.4899 15.8057 19.4898C15.8057 19.4897 15.8057 19.4897 15.8057 19.4896C15.8057 19.4895 15.8057 19.4894 15.8057 19.4894C15.8057 19.4893 15.8057 19.4892 15.8057 19.4892C15.8057 19.4891 15.8057 19.489 15.8057 19.4889C15.8057 19.4889 15.8057 19.4888 15.8057 19.4887C15.8057 19.4887 15.8057 19.4886 15.8057 19.4885C15.8057 19.4885 15.8057 19.4884 15.8057 19.4883C15.8057 19.4882 15.8057 19.4882 15.8057 19.4881C15.8057 19.488 15.8057 19.488 15.8057 19.4879C15.8057 19.4878 15.8057 19.4877 15.8057 19.4877C15.8057 19.4876 15.8057 19.4875 15.8057 19.4875C15.8057 19.4874 15.8057 19.4873 15.8057 19.4872C15.8057 19.4872 15.8057 19.4871 15.8057 19.487C15.8057 19.487 15.8057 19.4869 15.8057 19.4868C15.8057 19.4868 15.8057 19.4867 15.8057 19.4866C15.8057 19.4865 15.8057 19.4865 15.8057 19.4864C15.8057 19.4863 15.8057 19.4863 15.8057 19.4862C15.8057 19.4861 15.8057 19.486 15.8057 19.486C15.8057 19.4859 15.8057 19.4858 15.8057 19.4858C15.8057 19.4857 15.8057 19.4856 15.8057 19.4855C15.8057 19.4855 15.8057 19.4854 15.8057 19.4853C15.8057 19.4853 15.8057 19.4852 15.8057 19.4851C15.8057 19.4851 15.8057 19.485 15.8057 19.4849C15.8057 19.4848 15.8057 19.4848 15.8057 19.4847C15.8057 19.4846 15.8057 19.4846 15.8057 19.4845C15.8057 19.4844 15.8057 19.4843 15.8057 19.4843C15.8057 19.4842 15.8057 19.4841 15.8057 19.4841C15.8057 19.484 15.8057 19.4839 15.8057 19.4838C15.8057 19.4838 15.8057 19.4837 15.8057 19.4836C15.8057 19.4836 15.8057 19.4835 15.8057 19.4834C15.8057 19.4834 15.8057 19.4833 15.8057 19.4832C15.8057 19.4831 15.8057 19.4831 15.8057 19.483C15.8057 19.4829 15.8057 19.4829 15.8057 19.4828C15.8057 19.4827 15.8057 19.4826 15.8057 19.4826C15.8057 19.4825 15.8057 19.4824 15.8057 19.4824C15.8057 19.4823 15.8057 19.4822 15.8057 19.4821C15.8057 19.4821 15.8057 19.482 15.8057 19.4819C15.8057 19.4819 15.8057 19.4818 15.8057 19.4817C15.8057 19.4817 15.8057 19.4816 15.8057 19.4815C15.8057 19.4814 15.8057 19.4814 15.8057 19.4813C15.8057 19.4812 15.8057 19.4812 15.8057 19.4811C15.8057 19.481 15.8057 19.4809 15.8057 19.4809C15.8057 19.4808 15.8057 19.4807 15.8057 19.4807C15.8057 19.4806 15.8057 19.4805 15.8057 19.4804C15.8057 19.4804 15.8057 19.4803 15.8057 19.4802C15.8057 19.4802 15.8057 19.4801 15.8057 19.48C15.8057 19.48 15.8057 19.4799 15.8057 19.4798C15.8057 19.4797 15.8057 19.4797 15.8057 19.4796C15.8057 19.4795 15.8057 19.4795 15.8057 19.4794C15.8057 19.4793 15.8057 19.4792 15.8057 19.4792C15.8057 19.4791 15.8057 19.479 15.8057 19.479C15.8057 19.4789 15.8057 19.4788 15.8057 19.4787C15.8057 19.4787 15.8057 19.4786 15.8057 19.4785C15.8057 19.4785 15.8057 19.4784 15.8057 19.4783C15.8057 19.4783 15.8057 19.4782 15.8057 19.4781C15.8057 19.478 15.8057 19.478 15.8057 19.4779C15.8057 19.4778 15.8057 19.4778 15.8057 19.4777C15.8057 19.4776 15.8057 19.4775 15.8057 19.4775C15.8057 19.4774 15.8057 19.4773 15.8057 19.4773C15.8057 19.4772 15.8057 19.4771 15.8057 19.477C15.8057 19.477 15.8057 19.4769 15.8057 19.4768C15.8057 19.4768 15.8057 19.4767 15.8057 19.4766C15.8057 19.4766 15.8057 19.4765 15.8057 19.4764C15.8057 19.4763 15.8057 19.4763 15.8057 19.4762C15.8057 19.4761 15.8057 19.4761 15.8057 19.476C15.8057 19.4759 15.8057 19.4758 15.8057 19.4758C15.8057 19.4757 15.8057 19.4756 15.8057 19.4756C15.8057 19.4755 15.8057 19.4754 15.8057 19.4753C15.8057 19.4753 15.8057 19.4752 15.8057 19.4751C15.8057 19.4751 15.8057 19.475 15.8057 19.4749C15.8057 19.4749 15.8057 19.4748 15.8057 19.4747C15.8057 19.4746 15.8057 19.4746 15.8057 19.4745C15.8057 19.4744 15.8057 19.4744 15.8057 19.4743C15.8057 19.4742 15.8057 19.4741 15.8057 19.4741C15.8057 19.474 15.8057 19.4739 15.8057 19.4739C15.8057 19.4738 15.8057 19.4737 15.8057 19.4736C15.8057 19.4736 15.8057 19.4735 15.8057 19.4734C15.8057 19.4734 15.8057 19.4733 15.8057 19.4732C15.8057 19.4732 15.8057 19.4731 15.8057 19.473C15.8057 19.4729 15.8057 19.4729 15.8057 19.4728C15.8057 19.4727 15.8057 19.4727 15.8057 19.4726C15.8057 19.4725 15.8057 19.4724 15.8057 19.4724C15.8057 19.4723 15.8057 19.4722 15.8057 19.4722C15.8057 19.4721 15.8057 19.472 15.8057 19.4719C15.8057 19.4719 15.8057 19.4718 15.8057 19.4717C15.8057 19.4717 15.8057 19.4716 15.8057 19.4715H14.8057C14.8057 19.4716 14.8057 19.4717 14.8057 19.4717C14.8057 19.4718 14.8057 19.4719 14.8057 19.4719C14.8057 19.472 14.8057 19.4721 14.8057 19.4722C14.8057 19.4722 14.8057 19.4723 14.8057 19.4724C14.8057 19.4724 14.8057 19.4725 14.8057 19.4726C14.8057 19.4727 14.8057 19.4727 14.8057 19.4728C14.8057 19.4729 14.8057 19.4729 14.8057 19.473C14.8057 19.4731 14.8057 19.4732 14.8057 19.4732C14.8057 19.4733 14.8057 19.4734 14.8057 19.4734C14.8057 19.4735 14.8057 19.4736 14.8057 19.4736C14.8057 19.4737 14.8057 19.4738 14.8057 19.4739C14.8057 19.4739 14.8057 19.474 14.8057 19.4741C14.8057 19.4741 14.8057 19.4742 14.8057 19.4743C14.8057 19.4744 14.8057 19.4744 14.8057 19.4745C14.8057 19.4746 14.8057 19.4746 14.8057 19.4747C14.8057 19.4748 14.8057 19.4749 14.8057 19.4749C14.8057 19.475 14.8057 19.4751 14.8057 19.4751C14.8057 19.4752 14.8057 19.4753 14.8057 19.4753C14.8057 19.4754 14.8057 19.4755 14.8057 19.4756C14.8057 19.4756 14.8057 19.4757 14.8057 19.4758C14.8057 19.4758 14.8057 19.4759 14.8057 19.476C14.8057 19.4761 14.8057 19.4761 14.8057 19.4762C14.8057 19.4763 14.8057 19.4763 14.8057 19.4764C14.8057 19.4765 14.8057 19.4766 14.8057 19.4766C14.8057 19.4767 14.8057 19.4768 14.8057 19.4768C14.8057 19.4769 14.8057 19.477 14.8057 19.477C14.8057 19.4771 14.8057 19.4772 14.8057 19.4773C14.8057 19.4773 14.8057 19.4774 14.8057 19.4775C14.8057 19.4775 14.8057 19.4776 14.8057 19.4777C14.8057 19.4778 14.8057 19.4778 14.8057 19.4779C14.8057 19.478 14.8057 19.478 14.8057 19.4781C14.8057 19.4782 14.8057 19.4783 14.8057 19.4783C14.8057 19.4784 14.8057 19.4785 14.8057 19.4785C14.8057 19.4786 14.8057 19.4787 14.8057 19.4787C14.8057 19.4788 14.8057 19.4789 14.8057 19.479C14.8057 19.479 14.8057 19.4791 14.8057 19.4792C14.8057 19.4792 14.8057 19.4793 14.8057 19.4794C14.8057 19.4795 14.8057 19.4795 14.8057 19.4796C14.8057 19.4797 14.8057 19.4797 14.8057 19.4798C14.8057 19.4799 14.8057 19.48 14.8057 19.48C14.8057 19.4801 14.8057 19.4802 14.8057 19.4802C14.8057 19.4803 14.8057 19.4804 14.8057 19.4804C14.8057 19.4805 14.8057 19.4806 14.8057 19.4807C14.8057 19.4807 14.8057 19.4808 14.8057 19.4809C14.8057 19.4809 14.8057 19.481 14.8057 19.4811C14.8057 19.4812 14.8057 19.4812 14.8057 19.4813C14.8057 19.4814 14.8057 19.4814 14.8057 19.4815C14.8057 19.4816 14.8057 19.4817 14.8057 19.4817C14.8057 19.4818 14.8057 19.4819 14.8057 19.4819C14.8057 19.482 14.8057 19.4821 14.8057 19.4821C14.8057 19.4822 14.8057 19.4823 14.8057 19.4824C14.8057 19.4824 14.8057 19.4825 14.8057 19.4826C14.8057 19.4826 14.8057 19.4827 14.8057 19.4828C14.8057 19.4829 14.8057 19.4829 14.8057 19.483C14.8057 19.4831 14.8057 19.4831 14.8057 19.4832C14.8057 19.4833 14.8057 19.4834 14.8057 19.4834C14.8057 19.4835 14.8057 19.4836 14.8057 19.4836C14.8057 19.4837 14.8057 19.4838 14.8057 19.4838C14.8057 19.4839 14.8057 19.484 14.8057 19.4841C14.8057 19.4841 14.8057 19.4842 14.8057 19.4843C14.8057 19.4843 14.8057 19.4844 14.8057 19.4845C14.8057 19.4846 14.8057 19.4846 14.8057 19.4847C14.8057 19.4848 14.8057 19.4848 14.8057 19.4849C14.8057 19.485 14.8057 19.4851 14.8057 19.4851C14.8057 19.4852 14.8057 19.4853 14.8057 19.4853C14.8057 19.4854 14.8057 19.4855 14.8057 19.4855C14.8057 19.4856 14.8057 19.4857 14.8057 19.4858C14.8057 19.4858 14.8057 19.4859 14.8057 19.486C14.8057 19.486 14.8057 19.4861 14.8057 19.4862C14.8057 19.4863 14.8057 19.4863 14.8057 19.4864C14.8057 19.4865 14.8057 19.4865 14.8057 19.4866C14.8057 19.4867 14.8057 19.4868 14.8057 19.4868C14.8057 19.4869 14.8057 19.487 14.8057 19.487C14.8057 19.4871 14.8057 19.4872 14.8057 19.4872C14.8057 19.4873 14.8057 19.4874 14.8057 19.4875C14.8057 19.4875 14.8057 19.4876 14.8057 19.4877C14.8057 19.4877 14.8057 19.4878 14.8057 19.4879C14.8057 19.488 14.8057 19.488 14.8057 19.4881C14.8057 19.4882 14.8057 19.4882 14.8057 19.4883C14.8057 19.4884 14.8057 19.4885 14.8057 19.4885C14.8057 19.4886 14.8057 19.4887 14.8057 19.4887C14.8057 19.4888 14.8057 19.4889 14.8057 19.4889C14.8057 19.489 14.8057 19.4891 14.8057 19.4892C14.8057 19.4892 14.8057 19.4893 14.8057 19.4894C14.8057 19.4894 14.8057 19.4895 14.8057 19.4896C14.8057 19.4897 14.8057 19.4897 14.8057 19.4898C14.8057 19.4899 14.8057 19.4899 14.8057 19.49C14.8057 19.4901 14.8057 19.4902 14.8057 19.4902C14.8057 19.4903 14.8057 19.4904 14.8057 19.4904C14.8057 19.4905 14.8057 19.4906 14.8057 19.4906C14.8057 19.4907 14.8057 19.4908 14.8057 19.4909C14.8057 19.4909 14.8057 19.491 14.8057 19.4911C14.8057 19.4911 14.8057 19.4912 14.8057 19.4913C14.8057 19.4914 14.8057 19.4914 14.8057 19.4915C14.8057 19.4916 14.8057 19.4916 14.8057 19.4917C14.8057 19.4918 14.8057 19.4919 14.8057 19.4919C14.8057 19.492 14.8057 19.4921 14.8057 19.4921C14.8057 19.4922 14.8057 19.4923 14.8057 19.4923C14.8057 19.4924 14.8057 19.4925 14.8057 19.4926C14.8057 19.4926 14.8057 19.4927 14.8057 19.4928C14.8057 19.4928 14.8057 19.4929 14.8057 19.493C14.8057 19.4931 14.8057 19.4931 14.8057 19.4932C14.8057 19.4933 14.8057 19.4933 14.8057 19.4934C14.8057 19.4935 14.8057 19.4936 14.8057 19.4936C14.8057 19.4937 14.8057 19.4938 14.8057 19.4938C14.8057 19.4939 14.8057 19.494 14.8057 19.494C14.8057 19.4941 14.8057 19.4942 14.8057 19.4943C14.8057 19.4943 14.8057 19.4944 14.8057 19.4945C14.8057 19.4945 14.8057 19.4946 14.8057 19.4947C14.8057 19.4948 14.8057 19.4948 14.8057 19.4949C14.8057 19.495 14.8057 19.495 14.8057 19.4951C14.8057 19.4952 14.8057 19.4953 14.8057 19.4953C14.8057 19.4954 14.8057 19.4955 14.8057 19.4955C14.8057 19.4956 14.8057 19.4957 14.8057 19.4957C14.8057 19.4958 14.8057 19.4959 14.8057 19.496C14.8057 19.496 14.8057 19.4961 14.8057 19.4962C14.8057 19.4962 14.8057 19.4963 14.8057 19.4964C14.8057 19.4965 14.8057 19.4965 14.8057 19.4966C14.8057 19.4967 14.8057 19.4967 14.8057 19.4968C14.8057 19.4969 14.8057 19.497 14.8057 19.497C14.8057 19.4971 14.8057 19.4972 14.8057 19.4972C14.8057 19.4973 14.8057 19.4974 14.8057 19.4974C14.8057 19.4975 14.8057 19.4976 14.8057 19.4977C14.8057 19.4977 14.8057 19.4978 14.8057 19.4979C14.8057 19.4979 14.8057 19.498 14.8057 19.4981C14.8057 19.4982 14.8057 19.4982 14.8057 19.4983C14.8057 19.4984 14.8057 19.4984 14.8057 19.4985C14.8057 19.4986 14.8057 19.4987 14.8057 19.4987C14.8057 19.4988 14.8057 19.4989 14.8057 19.4989C14.8057 19.499 14.8057 19.4991 14.8057 19.4991C14.8057 19.4992 14.8057 19.4993 14.8057 19.4994C14.8057 19.4994 14.8057 19.4995 14.8057 19.4996C14.8057 19.4996 14.8057 19.4997 14.8057 19.4998C14.8057 19.4999 14.8057 19.4999 14.8057 19.5C14.8057 19.5001 14.8057 19.5001 14.8057 19.5002C14.8057 19.5003 14.8057 19.5004 14.8057 19.5004C14.8057 19.5005 14.8057 19.5006 14.8057 19.5006C14.8057 19.5007 14.8057 19.5008 14.8057 19.5008C14.8057 19.5009 14.8057 19.501 14.8057 19.5011C14.8057 19.5011 14.8057 19.5012 14.8057 19.5013C14.8057 19.5013 14.8057 19.5014 14.8057 19.5015C14.8057 19.5016 14.8057 19.5016 14.8057 19.5017C14.8057 19.5018 14.8057 19.5018 14.8057 19.5019C14.8057 19.502 14.8057 19.5021 14.8057 19.5021C14.8057 19.5022 14.8057 19.5023 14.8057 19.5023C14.8057 19.5024 14.8057 19.5025 14.8057 19.5025C14.8057 19.5026 14.8057 19.5027 14.8057 19.5028C14.8057 19.5028 14.8057 19.5029 14.8057 19.503C14.8057 19.503 14.8057 19.5031 14.8057 19.5032C14.8057 19.5033 14.8057 19.5033 14.8057 19.5034C14.8057 19.5035 14.8057 19.5035 14.8057 19.5036C14.8057 19.5037 14.8057 19.5038 14.8057 19.5038C14.8057 19.5039 14.8057 19.504 14.8057 19.504C14.8057 19.5041 14.8057 19.5042 14.8057 19.5042C14.8057 19.5043 14.8057 19.5044 14.8057 19.5045C14.8057 19.5045 14.8057 19.5046 14.8057 19.5047C14.8057 19.5047 14.8057 19.5048 14.8057 19.5049C14.8057 19.505 14.8057 19.505 14.8057 19.5051C14.8057 19.5052 14.8057 19.5052 14.8057 19.5053C14.8057 19.5054 14.8057 19.5055 14.8057 19.5055C14.8057 19.5056 14.8057 19.5057 14.8057 19.5057C14.8057 19.5058 14.8057 19.5059 14.8057 19.5059C14.8057 19.506 14.8057 19.5061 14.8057 19.5062C14.8057 19.5062 14.8057 19.5063 14.8057 19.5064C14.8057 19.5064 14.8057 19.5065 14.8057 19.5066C14.8057 19.5067 14.8057 19.5067 14.8057 19.5068C14.8057 19.5069 14.8057 19.5069 14.8057 19.507C14.8057 19.5071 14.8057 19.5072 14.8057 19.5072C14.8057 19.5073 14.8057 19.5074 14.8057 19.5074C14.8057 19.5075 14.8057 19.5076 14.8057 19.5076C14.8057 19.5077 14.8057 19.5078 14.8057 19.5079C14.8057 19.5079 14.8057 19.508 14.8057 19.5081C14.8057 19.5081 14.8057 19.5082 14.8057 19.5083C14.8057 19.5084 14.8057 19.5084 14.8057 19.5085C14.8057 19.5086 14.8057 19.5086 14.8057 19.5087C14.8057 19.5088 14.8057 19.5089 14.8057 19.5089C14.8057 19.509 14.8057 19.5091 14.8057 19.5091C14.8057 19.5092 14.8057 19.5093 14.8057 19.5093C14.8057 19.5094 14.8057 19.5095 14.8057 19.5096C14.8057 19.5096 14.8057 19.5097 14.8057 19.5098C14.8057 19.5098 14.8057 19.5099 14.8057 19.51C14.8057 19.5101 14.8057 19.5101 14.8057 19.5102C14.8057 19.5103 14.8057 19.5103 14.8057 19.5104C14.8057 19.5105 14.8057 19.5106 14.8057 19.5106C14.8057 19.5107 14.8057 19.5108 14.8057 19.5108C14.8057 19.5109 14.8057 19.511 14.8057 19.511C14.8057 19.5111 14.8057 19.5112 14.8057 19.5113C14.8057 19.5113 14.8057 19.5114 14.8057 19.5115C14.8057 19.5115 14.8057 19.5116 14.8057 19.5117C14.8057 19.5118 14.8057 19.5118 14.8057 19.5119C14.8057 19.512 14.8057 19.512 14.8057 19.5121C14.8057 19.5122 14.8057 19.5123 14.8057 19.5123C14.8057 19.5124 14.8057 19.5125 14.8057 19.5125C14.8057 19.5126 14.8057 19.5127 14.8057 19.5127C14.8057 19.5128 14.8057 19.5129 14.8057 19.513C14.8057 19.513 14.8057 19.5131 14.8057 19.5132C14.8057 19.5132 14.8057 19.5133 14.8057 19.5134C14.8057 19.5135 14.8057 19.5135 14.8057 19.5136C14.8057 19.5137 14.8057 19.5137 14.8057 19.5138C14.8057 19.5139 14.8057 19.514 14.8057 19.514C14.8057 19.5141 14.8057 19.5142 14.8057 19.5142C14.8057 19.5143 14.8057 19.5144 14.8057 19.5145C14.8057 19.5145 14.8057 19.5146 14.8057 19.5147C14.8057 19.5147 14.8057 19.5148 14.8057 19.5149C14.8057 19.5149 14.8057 19.515 14.8057 19.5151C14.8057 19.5152 14.8057 19.5152 14.8057 19.5153C14.8057 19.5154 14.8057 19.5154 14.8057 19.5155C14.8057 19.5156 14.8057 19.5157 14.8057 19.5157C14.8057 19.5158 14.8057 19.5159 14.8057 19.5159C14.8057 19.516 14.8057 19.5161 14.8057 19.5161C14.8057 19.5162 14.8057 19.5163 14.8057 19.5164C14.8057 19.5164 14.8057 19.5165 14.8057 19.5166C14.8057 19.5166 14.8057 19.5167 14.8057 19.5168C14.8057 19.5169 14.8057 19.5169 14.8057 19.517C14.8057 19.5171 14.8057 19.5171 14.8057 19.5172C14.8057 19.5173 14.8057 19.5174 14.8057 19.5174C14.8057 19.5175 14.8057 19.5176 14.8057 19.5176C14.8057 19.5177 14.8057 19.5178 14.8057 19.5178C14.8057 19.5179 14.8057 19.518 14.8057 19.5181C14.8057 19.5181 14.8057 19.5182 14.8057 19.5183C14.8057 19.5183 14.8057 19.5184 14.8057 19.5185C14.8057 19.5186 14.8057 19.5186 14.8057 19.5187C14.8057 19.5188 14.8057 19.5188 14.8057 19.5189C14.8057 19.519 14.8057 19.5191 14.8057 19.5191C14.8057 19.5192 14.8057 19.5193 14.8057 19.5193C14.8057 19.5194 14.8057 19.5195 14.8057 19.5195C14.8057 19.5196 14.8057 19.5197 14.8057 19.5198C14.8057 19.5198 14.8057 19.5199 14.8057 19.52C14.8057 19.52 14.8057 19.5201 14.8057 19.5202C14.8057 19.5203 14.8057 19.5203 14.8057 19.5204C14.8057 19.5205 14.8057 19.5205 14.8057 19.5206C14.8057 19.5207 14.8057 19.5208 14.8057 19.5208C14.8057 19.5209 14.8057 19.521 14.8057 19.521C14.8057 19.5211 14.8057 19.5212 14.8057 19.5212C14.8057 19.5213 14.8057 19.5214 14.8057 19.5215C14.8057 19.5215 14.8057 19.5216 14.8057 19.5217C14.8057 19.5217 14.8057 19.5218 14.8057 19.5219C14.8057 19.522 14.8057 19.522 14.8057 19.5221C14.8057 19.5222 14.8057 19.5222 14.8057 19.5223C14.8057 19.5224 14.8057 19.5225 14.8057 19.5225C14.8057 19.5226 14.8057 19.5227 14.8057 19.5227C14.8057 19.5228 14.8057 19.5229 14.8057 19.523C14.8057 19.523 14.8057 19.5231 14.8057 19.5232C14.8057 19.5232 14.8057 19.5233 14.8057 19.5234C14.8057 19.5234 14.8057 19.5235 14.8057 19.5236C14.8057 19.5237 14.8057 19.5237 14.8057 19.5238C14.8057 19.5239 14.8057 19.5239 14.8057 19.524C14.8057 19.5241 14.8057 19.5242 14.8057 19.5242C14.8057 19.5243 14.8057 19.5244 14.8057 19.5244C14.8057 19.5245 14.8057 19.5246 14.8057 19.5246C14.8057 19.5247 14.8057 19.5248 14.8057 19.5249C14.8057 19.5249 14.8057 19.525 14.8057 19.5251C14.8057 19.5251 14.8057 19.5252 14.8057 19.5253C14.8057 19.5254 14.8057 19.5254 14.8057 19.5255C14.8057 19.5256 14.8057 19.5256 14.8057 19.5257C14.8057 19.5258 14.8057 19.5259 14.8057 19.5259C14.8057 19.526 14.8057 19.5261 14.8057 19.5261C14.8057 19.5262 14.8057 19.5263 14.8057 19.5264C14.8057 19.5264 14.8057 19.5265 14.8057 19.5266C14.8057 19.5266 14.8057 19.5267 14.8057 19.5268C14.8057 19.5268 14.8057 19.5269 14.8057 19.527C14.8057 19.5271 14.8057 19.5271 14.8057 19.5272C14.8057 19.5273 14.8057 19.5273 14.8057 19.5274C14.8057 19.5275 14.8057 19.5276 14.8057 19.5276C14.8057 19.5277 14.8057 19.5278 14.8057 19.5278C14.8057 19.5279 14.8057 19.528 14.8057 19.528C14.8057 19.5281 14.8057 19.5282 14.8057 19.5283C14.8057 19.5283 14.8057 19.5284 14.8057 19.5285C14.8057 19.5285 14.8057 19.5286 14.8057 19.5287C14.8057 19.5288 14.8057 19.5288 14.8057 19.5289C14.8057 19.529 14.8057 19.529 14.8057 19.5291C14.8057 19.5292 14.8057 19.5293 14.8057 19.5293C14.8057 19.5294 14.8057 19.5295 14.8057 19.5295C14.8057 19.5296 14.8057 19.5297 14.8057 19.5297C14.8057 19.5298 14.8057 19.5299 14.8057 19.53C14.8057 19.53 14.8057 19.5301 14.8057 19.5302C14.8057 19.5302 14.8057 19.5303 14.8057 19.5304C14.8057 19.5305 14.8057 19.5305 14.8057 19.5306C14.8057 19.5307 14.8057 19.5307 14.8057 19.5308C14.8057 19.5309 14.8057 19.531 14.8057 19.531C14.8057 19.5311 14.8057 19.5312 14.8057 19.5312C14.8057 19.5313 14.8057 19.5314 14.8057 19.5315C14.8057 19.5315 14.8057 19.5316 14.8057 19.5317C14.8057 19.5317 14.8057 19.5318 14.8057 19.5319C14.8057 19.5319 14.8057 19.532 14.8057 19.5321C14.8057 19.5322 14.8057 19.5322 14.8057 19.5323C14.8057 19.5324 14.8057 19.5324 14.8057 19.5325C14.8057 19.5326 14.8057 19.5327 14.8057 19.5327C14.8057 19.5328 14.8057 19.5329 14.8057 19.5329C14.8057 19.533 14.8057 19.5331 14.8057 19.5331C14.8057 19.5332 14.8057 19.5333 14.8057 19.5334C14.8057 19.5334 14.8057 19.5335 14.8057 19.5336C14.8057 19.5336 14.8057 19.5337 14.8057 19.5338C14.8057 19.5339 14.8057 19.5339 14.8057 19.534C14.8057 19.5341 14.8057 19.5341 14.8057 19.5342C14.8057 19.5343 14.8057 19.5344 14.8057 19.5344C14.8057 19.5345 14.8057 19.5346 14.8057 19.5346C14.8057 19.5347 14.8057 19.5348 14.8057 19.5349C14.8057 19.5349 14.8057 19.535 14.8057 19.5351C14.8057 19.5351 14.8057 19.5352 14.8057 19.5353C14.8057 19.5353 14.8057 19.5354 14.8057 19.5355C14.8057 19.5356 14.8057 19.5356 14.8057 19.5357C14.8057 19.5358 14.8057 19.5358 14.8057 19.5359C14.8057 19.536 14.8057 19.5361 14.8057 19.5361C14.8057 19.5362 14.8057 19.5363 14.8057 19.5363C14.8057 19.5364 14.8057 19.5365 14.8057 19.5365C14.8057 19.5366 14.8057 19.5367 14.8057 19.5368C14.8057 19.5368 14.8057 19.5369 14.8057 19.537C14.8057 19.537 14.8057 19.5371 14.8057 19.5372C14.8057 19.5373 14.8057 19.5373 14.8057 19.5374C14.8057 19.5375 14.8057 19.5375 14.8057 19.5376C14.8057 19.5377 14.8057 19.5378 14.8057 19.5378C14.8057 19.5379 14.8057 19.538 14.8057 19.538C14.8057 19.5381 14.8057 19.5382 14.8057 19.5382C14.8057 19.5383 14.8057 19.5384 14.8057 19.5385C14.8057 19.5385 14.8057 19.5386 14.8057 19.5387C14.8057 19.5387 14.8057 19.5388 14.8057 19.5389C14.8057 19.539 14.8057 19.539 14.8057 19.5391C14.8057 19.5392 14.8057 19.5392 14.8057 19.5393C14.8057 19.5394 14.8057 19.5395 14.8057 19.5395C14.8057 19.5396 14.8057 19.5397 14.8057 19.5397C14.8057 19.5398 14.8057 19.5399 14.8057 19.54C14.8057 19.54 14.8057 19.5401 14.8057 19.5402C14.8057 19.5402 14.8057 19.5403 14.8057 19.5404C14.8057 19.5404 14.8057 19.5405 14.8057 19.5406C14.8057 19.5407 14.8057 19.5407 14.8057 19.5408C14.8057 19.5409 14.8057 19.5409 14.8057 19.541C14.8057 19.5411 14.8057 19.5412 14.8057 19.5412C14.8057 19.5413 14.8057 19.5414 14.8057 19.5414C14.8057 19.5415 14.8057 19.5416 14.8057 19.5416C14.8057 19.5417 14.8057 19.5418 14.8057 19.5419C14.8057 19.5419 14.8057 19.542 14.8057 19.5421C14.8057 19.5421 14.8057 19.5422 14.8057 19.5423C14.8057 19.5424 14.8057 19.5424 14.8057 19.5425C14.8057 19.5426 14.8057 19.5426 14.8057 19.5427C14.8057 19.5428 14.8057 19.5429 14.8057 19.5429C14.8057 19.543 14.8057 19.5431 14.8057 19.5431C14.8057 19.5432 14.8057 19.5433 14.8057 19.5434C14.8057 19.5434 14.8057 19.5435 14.8057 19.5436C14.8057 19.5436 14.8057 19.5437 14.8057 19.5438C14.8057 19.5438 14.8057 19.5439 14.8057 19.544C14.8057 19.5441 14.8057 19.5441 14.8057 19.5442C14.8057 19.5443 14.8057 19.5443 14.8057 19.5444C14.8057 19.5445 14.8057 19.5446 14.8057 19.5446C14.8057 19.5447 14.8057 19.5448 14.8057 19.5448C14.8057 19.5449 14.8057 19.545 14.8057 19.5451C14.8057 19.5451 14.8057 19.5452 14.8057 19.5453C14.8057 19.5453 14.8057 19.5454 14.8057 19.5455C14.8057 19.5455 14.8057 19.5456 14.8057 19.5457C14.8057 19.5458 14.8057 19.5458 14.8057 19.5459C14.8057 19.546 14.8057 19.546 14.8057 19.5461C14.8057 19.5462 14.8057 19.5463 14.8057 19.5463C14.8057 19.5464 14.8057 19.5465 14.8057 19.5465C14.8057 19.5466 14.8057 19.5467 14.8057 19.5468C14.8057 19.5468 14.8057 19.5469 14.8057 19.547C14.8057 19.547 14.8057 19.5471 14.8057 19.5472C14.8057 19.5472 14.8057 19.5473 14.8057 19.5474C14.8057 19.5475 14.8057 19.5475 14.8057 19.5476C14.8057 19.5477 14.8057 19.5477 14.8057 19.5478C14.8057 19.5479 14.8057 19.548 14.8057 19.548C14.8057 19.5481 14.8057 19.5482 14.8057 19.5482C14.8057 19.5483 14.8057 19.5484 14.8057 19.5485C14.8057 19.5485 14.8057 19.5486 14.8057 19.5487C14.8057 19.5487 14.8057 19.5488 14.8057 19.5489C14.8057 19.5489 14.8057 19.549 14.8057 19.5491C14.8057 19.5492 14.8057 19.5492 14.8057 19.5493C14.8057 19.5494 14.8057 19.5494 14.8057 19.5495C14.8057 19.5496 14.8057 19.5497 14.8057 19.5497C14.8057 19.5498 14.8057 19.5499 14.8057 19.5499C14.8057 19.55 14.8057 19.5501 14.8057 19.5501C14.8057 19.5502 14.8057 19.5503 14.8057 19.5504C14.8057 19.5504 14.8057 19.5505 14.8057 19.5506C14.8057 19.5506 14.8057 19.5507 14.8057 19.5508C14.8057 19.5509 14.8057 19.5509 14.8057 19.551C14.8057 19.5511 14.8057 19.5511 14.8057 19.5512C14.8057 19.5513 14.8057 19.5514 14.8057 19.5514C14.8057 19.5515 14.8057 19.5516 14.8057 19.5516C14.8057 19.5517 14.8057 19.5518 14.8057 19.5519C14.8057 19.5519 14.8057 19.552 14.8057 19.5521C14.8057 19.5521 14.8057 19.5522 14.8057 19.5523C14.8057 19.5523 14.8057 19.5524 14.8057 19.5525C14.8057 19.5526 14.8057 19.5526 14.8057 19.5527C14.8057 19.5528 14.8057 19.5528 14.8057 19.5529C14.8057 19.553 14.8057 19.5531 14.8057 19.5531C14.8057 19.5532 14.8057 19.5533 14.8057 19.5533C14.8057 19.5534 14.8057 19.5535 14.8057 19.5536C14.8057 19.5536 14.8057 19.5537 14.8057 19.5538C14.8057 19.5538 14.8057 19.5539 14.8057 19.554C14.8057 19.554 14.8057 19.5541 14.8057 19.5542C14.8057 19.5543 14.8057 19.5543 14.8057 19.5544C14.8057 19.5545 14.8057 19.5545 14.8057 19.5546C14.8057 19.5547 14.8057 19.5548 14.8057 19.5548C14.8057 19.5549 14.8057 19.555 14.8057 19.555C14.8057 19.5551 14.8057 19.5552 14.8057 19.5553C14.8057 19.5553 14.8057 19.5554 14.8057 19.5555C14.8057 19.5555 14.8057 19.5556 14.8057 19.5557C14.8057 19.5557 14.8057 19.5558 14.8057 19.5559C14.8057 19.556 14.8057 19.556 14.8057 19.5561C14.8057 19.5562 14.8057 19.5562 14.8057 19.5563C14.8057 19.5564 14.8057 19.5565 14.8057 19.5565C14.8057 19.5566 14.8057 19.5567 14.8057 19.5567C14.8057 19.5568 14.8057 19.5569 14.8057 19.557C14.8057 19.557 14.8057 19.5571 14.8057 19.5572C14.8057 19.5572 14.8057 19.5573 14.8057 19.5574C14.8057 19.5574 14.8057 19.5575 14.8057 19.5576C14.8057 19.5577 14.8057 19.5577 14.8057 19.5578C14.8057 19.5579 14.8057 19.5579 14.8057 19.558C14.8057 19.5581 14.8057 19.5582 14.8057 19.5582C14.8057 19.5583 14.8057 19.5584 14.8057 19.5584C14.8057 19.5585 14.8057 19.5586 14.8057 19.5587C14.8057 19.5587 14.8057 19.5588 14.8057 19.5589C14.8057 19.5589 14.8057 19.559 14.8057 19.5591C14.8057 19.5591 14.8057 19.5592 14.8057 19.5593C14.8057 19.5594 14.8057 19.5594 14.8057 19.5595C14.8057 19.5596 14.8057 19.5596 14.8057 19.5597C14.8057 19.5598 14.8057 19.5599 14.8057 19.5599C14.8057 19.56 14.8057 19.5601 14.8057 19.5601C14.8057 19.5602 14.8057 19.5603 14.8057 19.5604C14.8057 19.5604 14.8057 19.5605 14.8057 19.5606C14.8057 19.5606 14.8057 19.5607 14.8057 19.5608C14.8057 19.5608 14.8057 19.5609 14.8057 19.561C14.8057 19.5611 14.8057 19.5611 14.8057 19.5612C14.8057 19.5613 14.8057 19.5613 14.8057 19.5614C14.8057 19.5615 14.8057 19.5616 14.8057 19.5616C14.8057 19.5617 14.8057 19.5618 14.8057 19.5618C14.8057 19.5619 14.8057 19.562 14.8057 19.5621C14.8057 19.5621 14.8057 19.5622 14.8057 19.5623C14.8057 19.5623 14.8057 19.5624 14.8057 19.5625C14.8057 19.5625 14.8057 19.5626 14.8057 19.5627C14.8057 19.5628 14.8057 19.5628 14.8057 19.5629C14.8057 19.563 14.8057 19.563 14.8057 19.5631C14.8057 19.5632 14.8057 19.5633 14.8057 19.5633C14.8057 19.5634 14.8057 19.5635 14.8057 19.5635C14.8057 19.5636 14.8057 19.5637 14.8057 19.5638C14.8057 19.5638 14.8057 19.5639 14.8057 19.564C14.8057 19.564 14.8057 19.5641 14.8057 19.5642C14.8057 19.5642 14.8057 19.5643 14.8057 19.5644C14.8057 19.5645 14.8057 19.5645 14.8057 19.5646C14.8057 19.5647 14.8057 19.5647 14.8057 19.5648C14.8057 19.5649 14.8057 19.565 14.8057 19.565C14.8057 19.5651 14.8057 19.5652 14.8057 19.5652C14.8057 19.5653 14.8057 19.5654 14.8057 19.5655C14.8057 19.5655 14.8057 19.5656 14.8057 19.5657C14.8057 19.5657 14.8057 19.5658 14.8057 19.5659C14.8057 19.5659 14.8057 19.566 14.8057 19.5661C14.8057 19.5662 14.8057 19.5662 14.8057 19.5663C14.8057 19.5664 14.8057 19.5664 14.8057 19.5665C14.8057 19.5666 14.8057 19.5667 14.8057 19.5667C14.8057 19.5668 14.8057 19.5669 14.8057 19.5669C14.8057 19.567 14.8057 19.5671 14.8057 19.5672C14.8057 19.5672 14.8057 19.5673 14.8057 19.5674C14.8057 19.5674 14.8057 19.5675 14.8057 19.5676C14.8057 19.5676 14.8057 19.5677 14.8057 19.5678C14.8057 19.5679 14.8057 19.5679 14.8057 19.568C14.8057 19.5681 14.8057 19.5681 14.8057 19.5682C14.8057 19.5683 14.8057 19.5684 14.8057 19.5684C14.8057 19.5685 14.8057 19.5686 14.8057 19.5686C14.8057 19.5687 14.8057 19.5688 14.8057 19.5689C14.8057 19.5689 14.8057 19.569 14.8057 19.5691C14.8057 19.5691 14.8057 19.5692 14.8057 19.5693C14.8057 19.5693 14.8057 19.5694 14.8057 19.5695C14.8057 19.5696 14.8057 19.5696 14.8057 19.5697C14.8057 19.5698 14.8057 19.5698 14.8057 19.5699C14.8057 19.57 14.8057 19.5701 14.8057 19.5701C14.8057 19.5702 14.8057 19.5703 14.8057 19.5703C14.8057 19.5704 14.8057 19.5705 14.8057 19.5706C14.8057 19.5706 14.8057 19.5707 14.8057 19.5708C14.8057 19.5708 14.8057 19.5709 14.8057 19.571C14.8057 19.571 14.8057 19.5711 14.8057 19.5712C14.8057 19.5713 14.8057 19.5713 14.8057 19.5714C14.8057 19.5715 14.8057 19.5715 14.8057 19.5716C14.8057 19.5717 14.8057 19.5718 14.8057 19.5718C14.8057 19.5719 14.8057 19.572 14.8057 19.572C14.8057 19.5721 14.8057 19.5722 14.8057 19.5723C14.8057 19.5723 14.8057 19.5724 14.8057 19.5725C14.8057 19.5725 14.8057 19.5726 14.8057 19.5727C14.8057 19.5727 14.8057 19.5728 14.8057 19.5729C14.8057 19.573 14.8057 19.573 14.8057 19.5731C14.8057 19.5732 14.8057 19.5732 14.8057 19.5733C14.8057 19.5734 14.8057 19.5735 14.8057 19.5735C14.8057 19.5736 14.8057 19.5737 14.8057 19.5737C14.8057 19.5738 14.8057 19.5739 14.8057 19.574C14.8057 19.574 14.8057 19.5741 14.8057 19.5742C14.8057 19.5742 14.8057 19.5743 14.8057 19.5744C14.8057 19.5744 14.8057 19.5745 14.8057 19.5746C14.8057 19.5747 14.8057 19.5747 14.8057 19.5748C14.8057 19.5749 14.8057 19.5749 14.8057 19.575C14.8057 19.5751 14.8057 19.5752 14.8057 19.5752C14.8057 19.5753 14.8057 19.5754 14.8057 19.5754C14.8057 19.5755 14.8057 19.5756 14.8057 19.5757C14.8057 19.5757 14.8057 19.5758 14.8057 19.5759C14.8057 19.5759 14.8057 19.576 14.8057 19.5761C14.8057 19.5761 14.8057 19.5762 14.8057 19.5763C14.8057 19.5764 14.8057 19.5764 14.8057 19.5765C14.8057 19.5766 14.8057 19.5766 14.8057 19.5767C14.8057 19.5768 14.8057 19.5769 14.8057 19.5769C14.8057 19.577 14.8057 19.5771 14.8057 19.5771C14.8057 19.5772 14.8057 19.5773 14.8057 19.5774C14.8057 19.5774 14.8057 19.5775 14.8057 19.5776C14.8057 19.5776 14.8057 19.5777 14.8057 19.5778C14.8057 19.5778 14.8057 19.5779 14.8057 19.578C14.8057 19.5781 14.8057 19.5781 14.8057 19.5782C14.8057 19.5783 14.8057 19.5783 14.8057 19.5784C14.8057 19.5785 14.8057 19.5786 14.8057 19.5786C14.8057 19.5787 14.8057 19.5788 14.8057 19.5788C14.8057 19.5789 14.8057 19.579 14.8057 19.5791C14.8057 19.5791 14.8057 19.5792 14.8057 19.5793C14.8057 19.5793 14.8057 19.5794 14.8057 19.5795C14.8057 19.5795 14.8057 19.5796 14.8057 19.5797C14.8057 19.5798 14.8057 19.5798 14.8057 19.5799C14.8057 19.58 14.8057 19.58 14.8057 19.5801C14.8057 19.5802 14.8057 19.5803 14.8057 19.5803H15.8057ZM15.8057 19.4776C15.8145 18.755 15.9021 18.0354 16.0671 17.3318L15.0935 17.1035C14.9119 17.878 14.8154 18.67 14.8057 19.4654L15.8057 19.4776ZM15.6767 17.7083C16.3429 17.5774 16.9987 17.3977 17.6386 17.1707L17.3043 16.2283C16.7106 16.4389 16.1021 16.6056 15.4839 16.727L15.6767 17.7083ZM17.6451 17.1684L17.7851 17.1166L17.4377 16.1788L17.2978 16.2306L17.6451 17.1684ZM17.787 17.1158C17.9555 17.0526 18.1259 16.9868 18.304 16.9089L17.9032 15.9927C17.7497 16.0599 17.5989 16.1184 17.4358 16.1795L17.787 17.1158ZM18.3028 16.9094L18.6965 16.7384L18.2983 15.8212L17.9045 15.9922L18.3028 16.9094ZM18.7014 16.7363L18.9449 16.6275L18.5369 15.7145L18.2934 15.8233L18.7014 16.7363ZM18.9591 16.6209L19.13 16.538L18.6938 15.6382L18.5228 15.7211L18.9591 16.6209ZM19.1308 16.5376C19.7442 16.2389 20.342 15.909 20.9217 15.5492L20.3943 14.6996C19.8436 15.0414 19.2758 15.3548 18.693 15.6386L19.1308 16.5376ZM20.3668 15.5308C23.3592 17.6752 26.9542 18.8163 30.6356 18.7902L30.6285 17.7902C27.1585 17.8148 23.7699 16.7393 20.9493 14.718L20.3668 15.5308ZM30.1358 18.3508C30.1844 18.7485 30.2108 19.1486 30.215 19.5493L31.215 19.5388C31.2104 19.1011 31.1815 18.664 31.1284 18.2296L30.1358 18.3508ZM30.215 19.5441V19.6062H31.215V19.5441H30.215ZM30.215 19.6062C30.215 21.5454 29.6123 23.5969 28.5786 25.2878C27.543 26.9816 26.1045 28.2678 24.4642 28.7538L24.7482 29.7126C26.6934 29.1363 28.3093 27.6454 29.4317 25.8094C30.556 23.9705 31.215 21.7396 31.215 19.6062H30.215ZM24.472 28.7515C24 28.883 23.5117 28.9466 23.0218 28.9405L23.0093 29.9404C23.5941 29.9477 24.177 29.8718 24.7404 29.7148L24.472 28.7515ZM9.03627 23.4482H13.2228V22.4482H9.03627V23.4482ZM13.2228 23.4482C13.519 23.4482 13.7591 23.6883 13.7591 23.9845H14.7591C14.7591 23.136 14.0712 22.4482 13.2228 22.4482V23.4482ZM13.7591 23.9845V36.9585H14.7591V23.9845H13.7591ZM13.7591 36.9585C13.7591 37.2547 13.519 37.4948 13.2228 37.4948V38.4948C14.0712 38.4948 14.7591 37.807 14.7591 36.9585H13.7591ZM13.2228 37.4948H9.03627V38.4948H13.2228V37.4948ZM9.03627 37.4948C8.7401 37.4948 8.5 37.2547 8.5 36.9585H7.5C7.5 37.807 8.18781 38.4948 9.03627 38.4948V37.4948ZM8.5 36.9585V23.9845H7.5V36.9585H8.5ZM8.5 23.9845C8.5 23.6883 8.7401 23.4482 9.03627 23.4482V22.4482C8.18781 22.4482 7.5 23.136 7.5 23.9845H8.5ZM31.8186 30.7591H36.5026V29.7591H31.8186V30.7591ZM36.5026 30.7591C36.5126 30.7591 36.5207 30.7672 36.5207 30.7772H37.5207C37.5207 30.2149 37.0649 29.7591 36.5026 29.7591V30.7591ZM36.5207 30.7772V37.4819H37.5207V30.7772H36.5207ZM36.5207 37.4819C36.5207 37.4919 36.5126 37.5 36.5026 37.5V38.5C37.0649 38.5 37.5207 38.0442 37.5207 37.4819H36.5207ZM36.5026 37.5H31.8186V38.5H36.5026V37.5ZM31.8186 37.5C31.8086 37.5 31.8005 37.4919 31.8005 37.4819H30.8005C30.8005 38.0442 31.2563 38.5 31.8186 38.5V37.5ZM31.8005 37.4819V30.7772H30.8005V37.4819H31.8005ZM31.8005 30.7772C31.8005 30.7672 31.8086 30.7591 31.8186 30.7591V29.7591C31.2563 29.7591 30.8005 30.2149 30.8005 30.7772H31.8005ZM36.4844 30.2539V28.1244H35.4844V30.2539H36.4844ZM35.9844 27.6244H32.3575V28.6244H35.9844V27.6244ZM31.8575 28.1244V30.2539H32.8575V28.1244H31.8575ZM35.9352 28.1244V24.8031H34.9352V28.1244H35.9352ZM35.9352 24.8031C35.9352 24.3325 35.7482 23.8811 35.4154 23.5483L34.7083 24.2554C34.8536 24.4007 34.9352 24.5977 34.9352 24.8031H35.9352ZM35.4154 23.5483C35.0826 23.2155 34.6312 23.0285 34.1606 23.0285V24.0285C34.366 24.0285 34.5631 24.1101 34.7083 24.2554L35.4154 23.5483ZM34.1606 23.0285C33.6899 23.0285 33.2386 23.2155 32.9058 23.5483L33.6129 24.2554C33.7581 24.1101 33.9552 24.0285 34.1606 24.0285V23.0285ZM32.9058 23.5483C32.573 23.8811 32.386 24.3325 32.386 24.8031H33.386C33.386 24.5977 33.4676 24.4007 33.6129 24.2554L32.9058 23.5483ZM32.386 24.8031V28.1244H33.386V24.8031H32.386ZM14.7254 33.7953H31.3057V32.7953H14.7254V33.7953ZM10.0907 18.3057C10.0907 18.1635 10.1472 18.0271 10.2477 17.9265L9.54063 17.2194C9.25253 17.5075 9.09067 17.8983 9.09067 18.3057H10.0907ZM10.2477 17.9265C10.3483 17.826 10.4847 17.7695 10.6269 17.7695V16.7695C10.2195 16.7695 9.82874 16.9313 9.54063 17.2194L10.2477 17.9265ZM10.6269 17.7695H11.5958V16.7695H10.6269V17.7695ZM11.5958 17.7695C11.7381 17.7695 11.8745 17.826 11.975 17.9265L12.6822 17.2194C12.394 16.9313 12.0033 16.7695 11.5958 16.7695V17.7695ZM11.975 17.9265C12.0756 18.0271 12.1321 18.1635 12.1321 18.3057H13.1321C13.1321 17.8983 12.9703 17.5075 12.6822 17.2194L11.975 17.9265ZM12.1321 18.3057V22.9689H13.1321V18.3057H12.1321ZM12.6321 22.4689H9.59067V23.4689H12.6321V22.4689ZM10.0907 22.9689V18.3057H9.09067V22.9689H10.0907ZM8 27.1891H14.2591V26.1891H8V27.1891ZM13.7591 26.6891V33.8135H14.7591V26.6891H13.7591ZM14.2591 33.3135H8V34.3135H14.2591V33.3135ZM8.5 33.8135V26.6891H7.5V33.8135H8.5ZM31.9062 13.8016C32.9919 15.5596 33.5654 17.5858 33.5622 19.6521L34.5622 19.6537C34.5657 17.4012 33.9405 15.1926 32.757 13.2762L31.9062 13.8016ZM33.5622 19.6529V23.2798H34.5622V19.6529H33.5622ZM12.9922 17.9223C12.9922 15.4234 13.9849 13.0268 15.7519 11.2597L15.0448 10.5526C13.0903 12.5072 11.9922 15.1581 11.9922 17.9223H12.9922ZM15.7519 11.2597C17.519 9.49273 19.9156 8.50003 22.4145 8.50003V7.50003C19.6503 7.50003 16.9994 8.59809 15.0448 10.5526L15.7519 11.2597ZM22.4157 8.50003C25.0904 8.49373 27.6771 9.45517 29.6984 11.2069L30.3533 10.4512C28.1496 8.54137 25.3294 7.49317 22.4133 7.50003L22.4157 8.50003ZM28.5693 12.8791C29.4266 13.2476 30.1099 13.9309 30.4785 14.7882L31.3972 14.3932C30.9275 13.3008 30.0568 12.43 28.9643 11.9604L28.5693 12.8791ZM30.4937 14.8204C30.5736 14.975 30.6972 15.1027 30.8491 15.1877L31.3374 14.315C31.3564 14.3256 31.3719 14.3416 31.3819 14.361L30.4937 14.8204ZM30.8185 15.1691C30.9649 15.2653 31.1367 15.3156 31.3118 15.3135L31.2996 14.3135C31.3238 14.3132 31.3477 14.3202 31.368 14.3336L30.8185 15.1691ZM31.309 15.3135C31.4749 15.3124 31.6374 15.2664 31.7793 15.1805L31.2613 14.3251C31.2737 14.3176 31.2879 14.3136 31.3024 14.3135L31.309 15.3135ZM31.7793 15.1805C31.9212 15.0945 32.0373 14.9718 32.1151 14.8253L31.232 14.3561C31.2388 14.3433 31.2489 14.3326 31.2613 14.3251L31.7793 15.1805ZM32.1328 14.7885C32.5024 13.9304 33.1874 13.247 34.0464 12.8794L33.653 11.96C32.5584 12.4285 31.6854 13.2994 31.2143 14.3929L32.1328 14.7885ZM34.0954 12.8552C34.2398 12.7737 34.3592 12.6543 34.4407 12.5099L33.5696 12.0186C33.5778 12.0043 33.5897 11.9923 33.6041 11.9842L34.0954 12.8552ZM34.4397 12.5117C34.5189 12.3725 34.5611 12.2153 34.5621 12.0552L33.5622 12.0485C33.5622 12.0374 33.5652 12.0265 33.5706 12.0169L34.4397 12.5117ZM34.5621 12.0484C34.561 11.8887 34.5199 11.7318 34.4426 11.5921L33.5677 12.0763C33.5641 12.0699 33.5622 12.0627 33.5622 12.0553L34.5621 12.0484ZM34.4257 11.5637C34.3469 11.4413 34.2427 11.3371 34.1202 11.2583L33.5792 12.0993C33.5814 12.1007 33.5832 12.1025 33.5846 12.1047L34.4257 11.5637ZM34.0448 11.2184C33.185 10.8541 32.4999 10.1706 32.1335 9.31161L31.2136 9.70398C31.6816 10.801 32.5565 11.6738 33.6546 12.1392L34.0448 11.2184ZM32.1029 9.2515C32.0282 9.12636 31.9275 9.01874 31.8076 8.93588L31.239 9.75847C31.2411 9.75996 31.2429 9.76188 31.2442 9.76409L32.1029 9.2515ZM31.7654 8.90969C31.6257 8.83238 31.4688 8.7913 31.3091 8.7902L31.3022 9.79017C31.2949 9.79012 31.2876 9.78822 31.2812 9.78467L31.7654 8.90969ZM31.3072 8.79019C31.1437 8.78969 30.983 8.83281 30.8417 8.91508L31.3448 9.77928C31.3325 9.78646 31.3185 9.79022 31.3042 9.79018L31.3072 8.79019ZM30.8289 8.92276C30.6951 9.0061 30.5838 9.12107 30.5049 9.25753L31.3707 9.75806C31.3675 9.76357 31.363 9.76822 31.3576 9.7716L30.8289 8.92276ZM30.4768 9.31415C30.1131 10.18 29.4292 10.8721 28.5677 11.246L28.9659 12.1633C30.0638 11.6868 30.9353 10.8048 31.3988 9.70145L30.4768 9.31415ZM28.5273 11.2658C28.3814 11.3454 28.2597 11.4631 28.1754 11.6064L29.037 12.1139C29.0297 12.1264 29.0191 12.1367 29.0063 12.1436L28.5273 11.2658ZM28.1822 11.5952C28.0916 11.7401 28.0437 11.9077 28.044 12.0787L29.044 12.0768C29.044 12.0939 29.0393 12.1106 29.0303 12.1251L28.1822 11.5952ZM28.0442 12.0916C28.0487 12.2536 28.0952 12.4116 28.1791 12.5501L29.0345 12.0321C29.0403 12.0417 29.0435 12.0526 29.0438 12.0639L28.0442 12.0916ZM28.1791 12.5501C28.2631 12.6887 28.3816 12.8031 28.523 12.8821L29.0107 12.0091C29.0205 12.0146 29.0287 12.0225 29.0345 12.0321L28.1791 12.5501ZM29.2668 12.4456V12.4197H28.2668V12.4456H29.2668Z" fill="#663130"/>
</svg>
