<svg width="38" height="23" viewBox="0 0 38 23" fill="none" xmlns="http://www.w3.org/2000/svg">
<path d="M27.0028 22.5188C20.9302 22.5188 16.0047 17.5885 16.0047 11.5163C16.0047 5.44402 20.9301 0.518799 27.0028 0.518799C33.0804 0.518799 38.0059 5.44402 38.0059 11.5163C38.0059 17.5885 33.0804 22.5188 27.0028 22.5188Z" fill="#E2001A"/>
<path d="M10.998 22.5188C4.92547 22.5188 -6.17987e-06 17.5885 -6.17987e-06 11.5163C-6.17987e-06 5.44402 4.9254 0.518799 10.998 0.518799C17.0757 0.518799 21.9961 5.44402 21.9961 11.5163C21.9961 17.5885 17.0757 22.5188 10.998 22.5188Z" fill="#F6A800"/>
<path d="M19.0076 19.0629C20.8591 17.0908 21.9961 14.4345 21.9961 11.5166C21.9961 8.62889 20.8792 5.99775 19.0629 4.03571L18.8315 4.15645C17.0756 6.10843 16.0039 8.68926 16.0039 11.5166C16.0039 14.3591 17.0856 16.9449 18.8516 18.9019L19.0076 19.0629Z" fill="#EB690A"/>
<path d="M29.9202 12.854V9.71979H29.2461V12.854H29.9202Z" fill="white"/>
<path d="M36.0082 12.8545V8.93549H35.334V12.8545H36.0082Z" fill="white"/>
<path d="M31.4602 9.72057H30.7559V12.8548H31.4704V10.782C31.6313 10.4449 32.1345 10.3745 32.2099 10.3745V9.70038C32.0489 9.70038 31.4804 9.82615 31.4602 10.133V9.72057Z" fill="white"/>
<path d="M25.2616 11.7327C25.0101 12.0497 24.6227 12.2509 24.19 12.2509C23.4353 12.2509 22.8266 11.6422 22.8266 10.8976C22.8266 10.143 23.4353 9.53422 24.19 9.53422C24.6176 9.53422 25.005 9.73042 25.2516 10.0423H26.137C25.81 9.26758 25.0503 8.75946 24.19 8.75946C23.0077 8.75946 22.0518 9.71533 22.0518 10.8976C22.0518 12.0698 23.0077 13.0307 24.19 13.0307C25.0654 13.0307 25.8201 12.4874 26.1521 11.7327H25.2616Z" fill="white"/>
<path d="M34.388 12.9295C35.2886 12.9295 36.0232 12.1949 36.0232 11.2994C36.0232 10.3938 35.2885 9.66437 34.388 9.66437V10.3586C34.9063 10.3586 35.3289 10.7812 35.3289 11.2994C35.3289 11.8125 34.9063 12.2351 34.388 12.2351V12.9295ZM34.388 12.9295V12.2351C33.8698 12.2351 33.4472 11.8125 33.4472 11.2994C33.4472 10.7812 33.8698 10.3586 34.388 10.3586V9.66437C33.4875 9.66437 32.7529 10.3938 32.7529 11.2994C32.7529 12.1949 33.4875 12.9295 34.388 12.9295Z" fill="white"/>
<path d="M28.3002 12.9295C29.2058 12.9295 29.9353 12.1949 29.9353 11.2994C29.9353 10.3938 29.2058 9.66437 28.3002 9.66437V10.3586C28.8184 10.3586 29.241 10.7812 29.241 11.2994C29.241 11.8125 28.8184 12.2351 28.3002 12.2351V12.9295ZM28.3002 9.66444C27.3996 9.66444 26.665 10.3939 26.665 11.2995C26.665 12.195 27.3997 12.9295 28.3002 12.9295V12.2351C27.782 12.2351 27.3593 11.8126 27.3593 11.2995C27.3593 10.7813 27.782 10.3586 28.3002 10.3586V9.66444Z" fill="white"/>
<path d="M6.46868 8.75348V12.871H5.64281V10.1929L4.53969 12.871H3.91439L2.80536 10.1929V12.871H1.97949V8.75348H2.91744L4.22704 11.8151L5.53663 8.75348H6.46868Z" fill="white"/>
<path d="M8.73636 12.9241C8.42175 12.9241 8.13859 12.8553 7.8869 12.7177C7.6352 12.5761 7.4366 12.3775 7.29109 12.1218C7.14951 11.8662 7.07873 11.5713 7.07873 11.237C7.07873 10.9027 7.15148 10.6078 7.29699 10.3521C7.44643 10.0965 7.64897 9.89986 7.9046 9.76222C8.16022 9.62064 8.44534 9.54985 8.75996 9.54985C9.07458 9.54985 9.3597 9.62064 9.61532 9.76222C9.87095 9.89986 10.0715 10.0965 10.217 10.3521C10.3665 10.6078 10.4412 10.9027 10.4412 11.237C10.4412 11.5713 10.3645 11.8662 10.2111 12.1218C10.0617 12.3775 9.85719 12.5761 9.59763 12.7177C9.342 12.8553 9.05491 12.9241 8.73636 12.9241ZM8.73636 12.2044C8.88581 12.2044 9.02542 12.169 9.1552 12.0982C9.28891 12.0235 9.39509 11.9134 9.47375 11.7679C9.5524 11.6224 9.59173 11.4454 9.59173 11.237C9.59173 10.9263 9.50914 10.6884 9.34397 10.5232C9.18273 10.3541 8.98412 10.2695 8.74816 10.2695C8.5122 10.2695 8.3136 10.3541 8.15236 10.5232C7.99505 10.6884 7.91639 10.9263 7.91639 11.237C7.91639 11.5477 7.99308 11.7876 8.14646 11.9567C8.30377 12.1218 8.5004 12.2044 8.73636 12.2044Z" fill="white"/>
<path d="M12.858 9.55575C13.2473 9.55575 13.562 9.67963 13.8019 9.92739C14.0418 10.1712 14.1617 10.5134 14.1617 10.9538V12.871H13.3358V11.0659C13.3358 10.8064 13.2709 10.6078 13.1412 10.4701C13.0114 10.3285 12.8344 10.2577 12.6103 10.2577C12.3822 10.2577 12.2012 10.3285 12.0675 10.4701C11.9378 10.6078 11.8729 10.8064 11.8729 11.0659V12.871H11.047V9.60294H11.8729V10.01C11.983 9.8684 12.1226 9.75829 12.2917 9.67963C12.4647 9.59705 12.6535 9.55575 12.858 9.55575Z" fill="white"/>
<path d="M17.9851 11.1662C17.9851 11.2842 17.9772 11.3904 17.9615 11.4847H15.5724C15.592 11.7207 15.6746 11.9055 15.8201 12.0393C15.9656 12.173 16.1446 12.2398 16.3569 12.2398C16.6637 12.2398 16.882 12.1081 17.0117 11.8446H17.9025C17.8081 12.1592 17.6272 12.4188 17.3598 12.6233C17.0924 12.8238 16.764 12.9241 16.3746 12.9241C16.06 12.9241 15.7769 12.8553 15.5252 12.7177C15.2774 12.5761 15.0827 12.3775 14.9412 12.1218C14.8035 11.8662 14.7347 11.5713 14.7347 11.237C14.7347 10.8988 14.8035 10.6019 14.9412 10.3462C15.0788 10.0906 15.2715 9.89396 15.5193 9.75632C15.767 9.61868 16.0522 9.54985 16.3746 9.54985C16.6853 9.54985 16.9626 9.61671 17.2064 9.75042C17.4542 9.88413 17.6449 10.0749 17.7786 10.3226C17.9163 10.5665 17.9851 10.8476 17.9851 11.1662ZM17.1297 10.9302C17.1258 10.7179 17.0491 10.5488 16.8997 10.4229C16.7502 10.2931 16.5673 10.2282 16.351 10.2282C16.1465 10.2282 15.9735 10.2912 15.8319 10.417C15.6943 10.5389 15.6097 10.71 15.5783 10.9302H17.1297Z" fill="white"/>
<path d="M21.7144 9.60294L19.691 14.4166H18.8121L19.5199 12.7884L18.2104 9.60294H19.1365L19.9801 11.8859L20.8354 9.60294H21.7144Z" fill="white"/>
</svg>
