<svg width="45" height="45" viewBox="0 0 45 45" fill="none" xmlns="http://www.w3.org/2000/svg">
<path d="M17.2089 22.5713C18.1416 22.8393 18.9898 23.3427 19.6719 24.033C20.354 24.7233 20.8472 25.5774 21.104 26.5133L23.714 36.0002L12.8084 39L10.1985 29.5131C9.94415 28.5788 9.93408 27.5949 10.1692 26.6556C10.4044 25.7163 10.8768 24.8531 11.5413 24.1488M26.7129 13.5633L22.94 16.6638M11.0793 22.4666C10.9764 22.0944 10.9481 21.7056 10.9959 21.3225C11.0437 20.9394 11.1668 20.5695 11.358 20.2341C11.5492 19.8986 11.8048 19.6043 12.11 19.3679C12.4153 19.1315 12.7643 18.9578 13.1369 18.8567C13.5098 18.7512 13.8998 18.7205 14.2845 18.7662C14.6693 18.8119 15.0413 18.9332 15.379 19.123C15.7168 19.3129 16.0137 19.5676 16.2528 19.8725C16.4919 20.1774 16.6684 20.5266 16.7721 20.8999L18.5771 27.441C18.6799 27.8132 18.7083 28.202 18.6604 28.5851C18.6126 28.9682 18.4896 29.3381 18.2984 29.6736C18.1072 30.009 17.8516 30.3034 17.5463 30.5397C17.241 30.7761 16.892 30.9498 16.5194 31.051C15.7694 31.2561 14.9686 31.156 14.2921 30.7724C13.6157 30.3889 13.1186 29.7531 12.9095 29.0041L11.0793 22.4666ZM24.5407 25.8491C25.4932 26.2567 26.2521 27.0156 26.6597 27.9681C26.6951 28.0329 26.7473 28.0869 26.8109 28.1245C26.8744 28.1622 26.9468 28.182 27.0207 28.182C27.0945 28.182 27.167 28.1622 27.2305 28.1245C27.294 28.0869 27.3462 28.0329 27.3817 27.9681C27.7902 27.0162 28.5488 26.2576 29.5007 25.8491C29.5645 25.8128 29.6175 25.7604 29.6544 25.6969C29.6914 25.6335 29.7108 25.5615 29.7108 25.4881C29.7108 25.4147 29.6914 25.3427 29.6544 25.2792C29.6175 25.2158 29.5645 25.1633 29.5007 25.1271C28.5488 24.7186 27.7902 23.96 27.3817 23.0081C27.3462 22.9433 27.294 22.8893 27.2305 22.8516C27.167 22.814 27.0945 22.7941 27.0207 22.7941C26.9468 22.7941 26.8744 22.814 26.8109 22.8516C26.7473 22.8893 26.6951 22.9433 26.6597 23.0081C26.2521 23.9606 25.4932 24.7195 24.5407 25.1271C24.4759 25.1625 24.4219 25.2148 24.3842 25.2783C24.3466 25.3418 24.3267 25.4143 24.3267 25.4881C24.3267 25.5619 24.3466 25.6344 24.3842 25.6979C24.4219 25.7614 24.4759 25.8136 24.5407 25.8491ZM10.4909 13.5718C11.4428 13.9803 12.2014 14.7389 12.6099 15.6908C12.6453 15.7555 12.6976 15.8096 12.7611 15.8472C12.8246 15.8849 12.8971 15.9047 12.9709 15.9047C13.0447 15.9047 13.1172 15.8849 13.1807 15.8472C13.2442 15.8096 13.2964 15.7555 13.3319 15.6908C13.7404 14.7389 14.499 13.9803 15.4509 13.5718C15.5147 13.5355 15.5678 13.483 15.6047 13.4196C15.6416 13.3562 15.661 13.2841 15.661 13.2108C15.661 13.1374 15.6416 13.0653 15.6047 13.0019C15.5678 12.9385 15.5147 12.886 15.4509 12.8498C14.499 12.4413 13.7404 11.6827 13.3319 10.7308C13.2964 10.666 13.2442 10.612 13.1807 10.5743C13.1172 10.5367 13.0447 10.5168 12.9709 10.5168C12.8971 10.5168 12.8246 10.5367 12.7611 10.5743C12.6976 10.612 12.6453 10.666 12.6099 10.7308C12.2023 11.6833 11.4434 12.4422 10.4909 12.8498C10.4261 12.8852 10.3721 12.9374 10.3344 13.001C10.2968 13.0645 10.2769 13.1369 10.2769 13.2108C10.2769 13.2846 10.2968 13.3571 10.3344 13.4206C10.3721 13.4841 10.4261 13.5363 10.4909 13.5718ZM24.8452 10.9415L31.0191 6L35.046 11.0358L28.872 15.9773L24.8452 10.9415ZM19.4945 17.5921C19.8292 17.3199 21.2635 16.9533 22.9385 16.6782C22.33 18.2641 21.6807 19.5914 21.342 19.8668C21.0365 20.1019 20.652 20.2098 20.2688 20.168C19.8856 20.1263 19.5334 19.9381 19.2857 19.6428C19.0435 19.3424 18.9296 18.9585 18.9687 18.5746C19.0078 18.1906 19.1967 17.8376 19.4945 17.5921Z" stroke="#663130"/>
</svg>
