<svg width="66" height="15" viewBox="0 0 66 15" fill="none" xmlns="http://www.w3.org/2000/svg">
<path d="M10.3257 3.78723C10.214 4.46871 9.95146 5.09433 9.5381 5.66409C9.12475 6.22268 8.56057 6.67513 7.84558 7.02146C7.14176 7.36778 6.30946 7.54095 5.34869 7.54095H3.7787C3.65931 7.54095 3.55709 7.62653 3.53611 7.74406L2.85455 11.5608C2.83356 11.6783 2.73135 11.7639 2.61195 11.7639H0.246504C0.0932537 11.7639 -0.0228328 11.6255 0.00382438 11.4746L1.99471 0.20357C2.01551 0.0858268 2.11783 0 2.23739 0H6.67254C7.90144 0 8.8287 0.273708 9.45431 0.821125C10.0799 1.35737 10.3927 2.08912 10.3927 3.01638C10.3927 3.29567 10.3704 3.55262 10.3257 3.78723ZM5.51627 5.29542C6.58876 5.29542 7.21996 4.79269 7.40988 3.78723C7.43222 3.60848 7.4434 3.48001 7.4434 3.40181C7.4434 3.04431 7.32609 2.7706 7.09148 2.58068C6.86805 2.37959 6.52173 2.27904 6.05251 2.27904H4.70167C4.58171 2.27904 4.47917 2.36543 4.45881 2.48365L4.02421 5.00716C3.99827 5.15776 4.11425 5.29542 4.26707 5.29542H5.51627Z" fill="#003087"/>
<path d="M9.66106 7.71231C9.80892 6.86457 10.0997 6.12033 10.5334 5.4796C10.9672 4.83887 11.4896 4.34599 12.1008 4.00098C12.7119 3.65597 13.3576 3.48347 14.0378 3.48347C14.6194 3.48347 15.1073 3.60176 15.5016 3.83834C15.6502 3.92751 15.7835 4.0272 15.9013 4.13739C16.0775 4.30222 16.4542 4.23374 16.4963 3.99613L16.5302 3.80519C16.551 3.68751 16.6533 3.60176 16.7728 3.60176H18.8006C18.954 3.60176 19.0701 3.74027 19.0433 3.89124L17.6669 11.6491C17.646 11.7667 17.5437 11.8524 17.4242 11.8524H15.3824C15.237 11.8524 15.1275 11.7202 15.1546 11.5773C15.1994 11.3414 14.8559 11.162 14.6599 11.3007C14.4952 11.4173 14.3174 11.5224 14.1265 11.6159C13.6435 11.8524 13.1112 11.9707 12.5296 11.9707C11.948 11.9707 11.4305 11.8377 10.977 11.5715C10.5334 11.3054 10.1884 10.9308 9.942 10.4478C9.69556 9.95488 9.57235 9.37822 9.57235 8.71777C9.57235 8.40233 9.60192 8.06718 9.66106 7.71231ZM15.8417 7.7271C15.8713 7.54966 15.886 7.38702 15.886 7.23915C15.886 6.75614 15.7431 6.37663 15.4572 6.10062C15.1812 5.82461 14.8264 5.68661 14.3926 5.68661C13.8899 5.68661 13.4315 5.86897 13.0175 6.2337C12.6035 6.58856 12.3423 7.08144 12.2339 7.71231C12.2043 7.88975 12.1895 8.05239 12.1895 8.20026C12.1895 8.68327 12.3275 9.06771 12.6035 9.35358C12.8894 9.62959 13.2442 9.76759 13.6681 9.76759C14.1708 9.76759 14.6292 9.58523 15.0432 9.2205C15.4572 8.85578 15.7234 8.35798 15.8417 7.7271Z" fill="#003087"/>
<path d="M22.8565 3.57325C22.9747 3.57325 23.0762 3.65717 23.0985 3.77326L23.7708 7.27809C23.8146 7.50618 24.1207 7.55266 24.2302 7.34785L26.1784 3.7035C26.2213 3.62331 26.3048 3.57325 26.3957 3.57325H28.778C28.9699 3.57325 29.0882 3.78302 28.9888 3.94726L22.373 14.8811C22.3284 14.9549 22.2484 15 22.1622 15H19.8103C19.6159 15 19.498 14.7854 19.6023 14.6214L21.8578 11.0735C21.8941 11.0164 21.9053 10.9469 21.8888 10.8813L20.1287 3.87977C20.0896 3.72415 20.2072 3.57325 20.3677 3.57325H22.8565Z" fill="#003087"/>
<path d="M43.6308 0.013477C43.7841 0.013477 43.9002 0.151866 43.8735 0.30278L41.8826 11.5738C41.8618 11.6915 41.7595 11.7774 41.64 11.7774H39.2753C39.1219 11.7774 39.0058 11.6387 39.0327 11.4877L39.9762 6.19135C40.0251 5.91691 39.6523 5.78504 39.5178 6.02919L36.4204 11.6499C36.3771 11.7285 36.2944 11.7774 36.2046 11.7774H34.2399C34.1223 11.7774 34.0211 11.6943 33.9982 11.5789L32.887 5.98329C32.8339 5.71561 32.4496 5.72 32.4025 5.98883L31.4256 11.5734C31.4049 11.6913 31.3025 11.7774 31.1828 11.7774H28.8181C28.6649 11.7774 28.5488 11.639 28.5754 11.4881L30.5663 0.217047C30.5871 0.0993038 30.6894 0.013477 30.809 0.013477H33.7912C33.906 0.013477 34.0056 0.0927213 34.0314 0.204572L35.7234 7.54689C35.7737 7.76505 36.0653 7.80856 36.1771 7.61457L40.4852 0.136891C40.5292 0.0605331 40.6106 0.013477 40.6988 0.013477H43.6308Z" fill="#0070E0"/>
<path d="M48.3235 4.52424C49.2461 4.52424 49.9766 4.77627 50.5148 5.28031C51.0615 5.77581 51.3349 6.45499 51.3349 7.31785C51.3349 7.59977 51.3136 7.85179 51.2709 8.07391C51.2458 8.21807 51.2115 8.36914 51.168 8.5271C51.1393 8.6314 51.0433 8.70183 50.9351 8.70183H46.3666C46.2461 8.70183 46.1462 8.78954 46.1451 8.91001C46.145 8.92142 46.145 8.93319 46.145 8.94531C46.145 9.32121 46.2475 9.6074 46.4525 9.80389C46.6576 10.0004 46.9309 10.0986 47.2727 10.0986C47.7731 10.0986 48.1661 9.90544 48.4518 9.51906C48.5022 9.45098 48.5799 9.40664 48.6646 9.40664H50.4888C50.6653 9.40664 50.7837 9.58661 50.7 9.74198C50.39 10.3177 49.9438 10.7997 49.3615 11.1879C48.6695 11.6492 47.892 11.8799 47.0292 11.8799C46.1065 11.8799 45.3676 11.6236 44.8123 11.111C44.2655 10.5984 43.9921 9.90214 43.9921 9.0222C43.9921 8.75736 44.0177 8.48398 44.069 8.20206C44.1972 7.45881 44.462 6.80953 44.8635 6.25423C45.265 5.69892 45.7648 5.27177 46.3628 4.97276C46.9608 4.67375 47.6144 4.52424 48.3235 4.52424ZM48.9043 7.58695C49.0269 7.58695 49.1352 7.49708 49.1425 7.37466C49.1433 7.36264 49.1436 7.35225 49.1436 7.34347C49.1436 7.00175 49.0368 6.74118 48.8232 6.56178C48.6097 6.37383 48.3277 6.27986 47.9775 6.27986C47.6016 6.27986 47.2684 6.39519 46.9779 6.62585C46.7706 6.78925 46.6048 7.0058 46.4806 7.27552C46.4113 7.42599 46.5303 7.58695 46.696 7.58695H48.9043Z" fill="#0070E0"/>
<path d="M57.3862 4.54987C58.1038 4.54987 58.6676 4.75064 59.0777 5.15216C59.4878 5.55369 59.6928 6.11327 59.6928 6.83089C59.6928 7.07009 59.6672 7.32639 59.6159 7.59977L58.9088 11.5741C58.8879 11.6917 58.7857 11.7774 58.6662 11.7774H56.9884C56.835 11.7774 56.7189 11.6387 56.7458 11.4877L57.3862 7.89451C57.4118 7.74927 57.4246 7.62113 57.4246 7.51007C57.4246 7.15125 57.3221 6.8736 57.117 6.67711C56.9206 6.48062 56.6429 6.38237 56.2841 6.38237C55.8569 6.38237 55.4981 6.51479 55.2077 6.77963C54.9236 7.03867 54.7375 7.39987 54.6496 7.86323C54.6489 7.8666 54.6438 7.86619 54.6438 7.86276C54.6438 7.85932 54.6388 7.85889 54.6382 7.86227L53.9876 11.5735C53.9669 11.6914 53.8645 11.7774 53.7448 11.7774H52.054C51.9009 11.7774 51.7848 11.6391 51.8113 11.4883L52.9806 4.83057C53.0013 4.71272 53.1036 4.62676 53.2233 4.62676H54.9604C55.0895 4.62676 55.1875 4.74315 55.1654 4.87039C55.1297 5.07658 55.4135 5.22602 55.5856 5.10695C55.7349 5.0036 55.8952 4.91188 56.0662 4.8318C56.4763 4.64385 56.9163 4.54987 57.3862 4.54987Z" fill="#0070E0"/>
<path d="M63.3684 9.31694C63.3599 9.35965 63.3556 9.41518 63.3556 9.48353C63.3556 9.6373 63.3983 9.74836 63.4837 9.81671C63.5777 9.88505 63.7272 9.91922 63.9323 9.91922H64.4194C64.5729 9.91922 64.6891 10.0581 64.662 10.2092L64.4172 11.5744C64.3961 11.6919 64.2939 11.7774 64.1746 11.7774H63.2659C61.8306 11.7774 61.113 11.1751 61.113 9.97048C61.113 9.79108 61.1344 9.56469 61.1771 9.29131L61.6374 6.73658C61.6646 6.58542 61.5485 6.44645 61.3949 6.44645H61.1119C60.9587 6.44645 60.8426 6.30815 60.8692 6.15728L61.1028 4.83047C61.1235 4.71266 61.2259 4.62676 61.3455 4.62676H61.8033C61.9229 4.62676 62.0252 4.54091 62.046 4.42315L62.2817 3.08757C62.3025 2.96981 62.4048 2.88397 62.5244 2.88397H64.2152C64.3684 2.88397 64.4845 3.02233 64.4579 3.17323L64.2524 4.3375C64.2258 4.4884 64.3419 4.62676 64.4951 4.62676H65.343C65.4962 4.62676 65.6123 4.76505 65.5857 4.91593L65.3521 6.24274C65.3314 6.36055 65.229 6.44645 65.1094 6.44645H64.0873C63.9679 6.44645 63.8657 6.53203 63.8447 6.64956L63.3684 9.31694Z" fill="#0070E0"/>
</svg>
