<svg width="49" height="15" viewBox="0 0 49 15" fill="none" xmlns="http://www.w3.org/2000/svg">
<path d="M0.00976562 13.7602L0.587766 10.3942C1.83443 10.7002 2.9621 10.8532 3.97077 10.8532C4.48077 10.8532 4.92843 10.8476 5.31377 10.8362C5.71043 10.8136 6.06177 10.7796 6.36777 10.7342V9.71422L4.53177 9.56122C3.70443 9.48189 3.0131 9.34589 2.45777 9.15322C1.90243 8.96056 1.45477 8.69989 1.11477 8.37122C0.786099 8.03122 0.548099 7.62889 0.400766 7.16422C0.264766 6.68822 0.196766 6.13289 0.196766 5.49822C0.196766 4.62556 0.287432 3.90022 0.468766 3.32222C0.650099 2.73289 0.939099 2.26256 1.33577 1.91122C1.73243 1.54856 2.24243 1.29356 2.86577 1.14622C3.50043 0.998889 4.2711 0.925223 5.17777 0.925223C6.97977 0.925223 8.61177 1.09522 10.0738 1.43522L9.56377 4.69922C8.29443 4.49522 7.2801 4.39322 6.52077 4.39322C5.76143 4.39322 5.11543 4.42722 4.58277 4.49522V5.49822L6.04477 5.63422C6.9401 5.72489 7.6881 5.87789 8.28877 6.09322C8.88943 6.29722 9.3711 6.56922 9.73377 6.90922C10.1078 7.24922 10.3684 7.65156 10.5158 8.11622C10.6744 8.58089 10.7538 9.11356 10.7538 9.71422C10.7538 10.5756 10.6404 11.3009 10.4138 11.8902C10.1871 12.4796 9.9151 12.9272 9.59777 13.2332C9.3371 13.4826 9.0141 13.6809 8.62877 13.8282C8.24343 13.9642 7.83543 14.0662 7.40477 14.1342C6.9741 14.2022 6.53777 14.2419 6.09577 14.2532C5.6651 14.2759 5.2741 14.2872 4.92277 14.2872C4.03877 14.2872 3.18877 14.2419 2.37277 14.1512C1.55677 14.0606 0.769099 13.9302 0.00976562 13.7602Z" fill="#862165"/>
<path d="M22.4903 13.9812H18.0873L16.5063 9.93522H16.3703V13.9812H12.2903V0.721222L16.3703 0.415222V7.14722H16.5063L17.9853 3.78122H22.3883L20.0253 8.64322L22.4903 13.9812Z" fill="#862165"/>
<path d="M23.5081 3.78122H27.5881V11.3122H28.2171C28.7158 11.3122 29.0728 11.2612 29.2881 11.1592C29.5148 11.0572 29.6281 10.8192 29.6281 10.4452V3.78122H33.7081V13.9812H31.6681L30.4781 12.8252C29.6621 13.7999 28.5005 14.2872 26.9931 14.2872C25.7805 14.2872 24.8965 14.0322 24.3411 13.5222C23.7858 13.0009 23.5081 12.1339 23.5081 10.9212V3.78122Z" fill="#862165"/>
<path d="M35.7483 13.9812V3.78122H37.7883L38.9103 4.92022C39.7263 4.17222 40.735 3.69056 41.9363 3.47522L42.1743 7.33422C42.0156 7.33422 41.8229 7.35689 41.5963 7.40222C41.3696 7.44756 41.1373 7.50422 40.8993 7.57222C40.6726 7.64022 40.4629 7.72522 40.2703 7.82722C40.0776 7.91789 39.9303 8.02556 39.8283 8.15022V13.9812H35.7483Z" fill="#862165"/>
<path d="M43.4016 0.721222L47.4816 0.415222V11.0572C47.6969 11.1026 47.8896 11.1366 48.0596 11.1592C48.2296 11.1819 48.3713 11.1989 48.4846 11.2102L48.2976 14.2022C46.5636 14.2022 45.4133 14.1002 44.8466 13.8962C44.3706 13.7262 44.0079 13.5052 43.7586 13.2332C43.5206 12.9612 43.4016 12.5702 43.4016 12.0602V0.721222Z" fill="#862165"/>
</svg>
