<svg width="45" height="45" viewBox="0 0 45 45" fill="none" xmlns="http://www.w3.org/2000/svg">
<path d="M30.0743 10.8131C29.9893 10.5503 29.7075 10.4062 29.4447 10.4912C29.182 10.5762 29.0379 10.8581 29.1229 11.1208L30.0743 10.8131ZM29.7921 11.5654L29.3164 11.7193V11.7193L29.7921 11.5654ZM29.3289 15.8168L28.8666 16.0072V16.0072L29.3289 15.8168ZM29.1362 16.6621C29.2414 16.9175 29.5336 17.0392 29.789 16.9341C30.0443 16.8289 30.1661 16.5367 30.0609 16.2814L29.1362 16.6621ZM29.5282 13.6031L29.9494 13.8727V13.8727L29.5282 13.6031ZM32.6626 10.8131C32.5776 10.5503 32.2957 10.4062 32.033 10.4912C31.7702 10.5762 31.6261 10.8581 31.7111 11.1208L32.6626 10.8131ZM32.3804 11.5654L31.9047 11.7193V11.7193L32.3804 11.5654ZM31.9172 15.8168L31.4548 16.0072L31.4548 16.0072L31.9172 15.8168ZM31.7245 16.6621C31.8297 16.9175 32.1219 17.0392 32.3772 16.9341C32.6326 16.8289 32.7543 16.5367 32.6492 16.2814L31.7245 16.6621ZM32.1165 13.6031L32.5376 13.8727V13.8727L32.1165 13.6031ZM27.6467 10.8131C27.5617 10.5503 27.2798 10.4062 27.0171 10.4912C26.7543 10.5762 26.6102 10.8581 26.6952 11.1208L27.6467 10.8131ZM27.3645 11.5654L27.8402 11.4115V11.4115L27.3645 11.5654ZM26.9013 15.8168L26.4389 16.0072V16.0072L26.9013 15.8168ZM26.7086 16.6621C26.8138 16.9175 27.106 17.0392 27.3613 16.9341C27.6167 16.8289 27.7384 16.5367 27.6333 16.2814L26.7086 16.6621ZM27.1006 13.6031L27.5217 13.8727V13.8727L27.1006 13.6031ZM2 32.7683V32.2683C1.82593 32.2683 1.66439 32.3588 1.57352 32.5073C1.48266 32.6558 1.47556 32.8408 1.55477 32.9958L2 32.7683ZM15.2943 32.7683L15.7395 32.9958C15.8188 32.8408 15.8116 32.6558 15.7208 32.5073C15.6299 32.3588 15.4684 32.2683 15.2943 32.2683V32.7683ZM12.6207 38V38.5C12.8085 38.5 12.9805 38.3948 13.0659 38.2275L12.6207 38ZM4.67362 38L4.22839 38.2275C4.31386 38.3948 4.48582 38.5 4.67362 38.5V38ZM11.9689 32.7683V33.2683H12.4689V32.7683H11.9689ZM5.39456 32.7683H4.89456V33.2683H5.39456V32.7683ZM2 37.5C1.72386 37.5 1.5 37.7239 1.5 38C1.5 38.2761 1.72386 38.5 2 38.5V37.5ZM43.3459 38.5C43.6221 38.5 43.8459 38.2761 43.8459 38C43.8459 37.7239 43.6221 37.5 43.3459 37.5V38.5ZM9.27041 13.4001C9.26684 13.124 9.0401 12.903 8.76398 12.9066C8.48786 12.9102 8.26692 13.1369 8.27049 13.413L9.27041 13.4001ZM8.3137 16.7499C8.31727 17.026 8.54401 17.2469 8.82013 17.2434C9.09625 17.2398 9.31719 17.0131 9.31361 16.7369L8.3137 16.7499ZM6.61986 12.1428L6.11985 12.1415L6.11986 12.1445L6.61986 12.1428ZM10.9916 12.1591L11.4915 12.1725L11.4916 12.1603L10.9916 12.1591ZM8.79085 14.5566L8.78693 15.0567L8.79778 15.0565L8.79085 14.5566ZM7.90524 8.61681L7.45274 8.4041V8.4041L7.90524 8.61681ZM9.72195 8.62082L10.1753 8.40992L9.72195 8.62082ZM29.1229 11.1208L29.3164 11.7193L30.2679 11.4115L30.0743 10.8131L29.1229 11.1208ZM28.8666 16.0072L29.1362 16.6621L30.0609 16.2814L29.7913 15.6264L28.8666 16.0072ZM29.1071 13.3336C28.5952 14.1334 28.5052 15.1297 28.8666 16.0072L29.7913 15.6264C29.5544 15.0512 29.613 14.3982 29.9494 13.8727L29.1071 13.3336ZM29.3164 11.7193C29.4916 12.2611 29.4153 12.8521 29.1071 13.3336L29.9494 13.8727C30.4183 13.14 30.5353 12.2385 30.2679 11.4115L29.3164 11.7193ZM31.7111 11.1208L31.9047 11.7193L32.8561 11.4115L32.6626 10.8131L31.7111 11.1208ZM31.4548 16.0072L31.7245 16.6621L32.6492 16.2814L32.3795 15.6264L31.4548 16.0072ZM31.6954 13.3336C31.1834 14.1334 31.0935 15.1297 31.4548 16.0072L32.3795 15.6264C32.1426 15.0512 32.2012 14.3982 32.5376 13.8727L31.6954 13.3336ZM31.9047 11.7193C32.0799 12.2611 32.0036 12.8521 31.6954 13.3336L32.5376 13.8727C33.0066 13.14 33.1236 12.2385 32.8561 11.4115L31.9047 11.7193ZM26.6952 11.1208L26.8888 11.7193L27.8402 11.4115L27.6467 10.8131L26.6952 11.1208ZM26.4389 16.0072L26.7086 16.6621L27.6333 16.2814L27.3636 15.6264L26.4389 16.0072ZM26.6795 13.3336C26.1675 14.1334 26.0776 15.1297 26.4389 16.0072L27.3636 15.6264C27.1267 15.0512 27.1853 14.3982 27.5217 13.8727L26.6795 13.3336ZM26.8888 11.7193C27.064 12.2611 26.9877 12.8521 26.6795 13.3336L27.5217 13.8727C27.9907 13.14 28.1077 12.2385 27.8402 11.4115L26.8888 11.7193ZM26.8103 20.0209H32.3804V19.0209H26.8103V20.0209ZM32.3804 24.3273C32.3754 24.3273 32.3704 24.3273 32.3654 24.3273C32.3604 24.3273 32.3554 24.3273 32.3504 24.3273C32.3454 24.3273 32.3405 24.3273 32.3355 24.3273C32.3305 24.3273 32.3256 24.3273 32.3206 24.3273C32.3157 24.3273 32.3107 24.3273 32.3058 24.3273C32.3009 24.3273 32.2959 24.3273 32.291 24.3273C32.2861 24.3273 32.2812 24.3273 32.2763 24.3273C32.2714 24.3273 32.2665 24.3273 32.2616 24.3273C32.2567 24.3273 32.2518 24.3273 32.247 24.3273C32.2421 24.3273 32.2372 24.3273 32.2324 24.3273C32.2275 24.3273 32.2227 24.3273 32.2179 24.3273C32.213 24.3273 32.2082 24.3273 32.2034 24.3273C32.1985 24.3273 32.1937 24.3273 32.1889 24.3273C32.1841 24.3273 32.1793 24.3273 32.1745 24.3273C32.1697 24.3273 32.1649 24.3273 32.1602 24.3273C32.1554 24.3273 32.1506 24.3273 32.1458 24.3273C32.1411 24.3273 32.1363 24.3273 32.1316 24.3273C32.1268 24.3273 32.1221 24.3273 32.1174 24.3273C32.1126 24.3273 32.1079 24.3273 32.1032 24.3273C32.0985 24.3273 32.0938 24.3273 32.0891 24.3273C32.0844 24.3273 32.0797 24.3273 32.075 24.3273C32.0703 24.3273 32.0656 24.3273 32.061 24.3273C32.0563 24.3273 32.0516 24.3273 32.047 24.3273C32.0423 24.3273 32.0377 24.3273 32.033 24.3273C32.0284 24.3273 32.0237 24.3273 32.0191 24.3273C32.0145 24.3273 32.0099 24.3273 32.0052 24.3273C32.0006 24.3273 31.996 24.3273 31.9914 24.3273C31.9868 24.3273 31.9822 24.3273 31.9777 24.3273C31.9731 24.3273 31.9685 24.3273 31.9639 24.3273C31.9594 24.3273 31.9548 24.3273 31.9502 24.3273C31.9457 24.3273 31.9411 24.3273 31.9366 24.3273C31.9321 24.3273 31.9275 24.3273 31.923 24.3273C31.9185 24.3273 31.914 24.3273 31.9094 24.3273C31.9049 24.3273 31.9004 24.3273 31.8959 24.3273C31.8914 24.3273 31.8869 24.3273 31.8825 24.3273C31.878 24.3273 31.8735 24.3273 31.869 24.3273C31.8646 24.3273 31.8601 24.3273 31.8556 24.3273C31.8512 24.3273 31.8467 24.3273 31.8423 24.3273C31.8379 24.3273 31.8334 24.3273 31.829 24.3273C31.8246 24.3273 31.8201 24.3273 31.8157 24.3273C31.8113 24.3273 31.8069 24.3273 31.8025 24.3273C31.7981 24.3273 31.7937 24.3273 31.7893 24.3273C31.7849 24.3273 31.7806 24.3273 31.7762 24.3273C31.7718 24.3273 31.7674 24.3273 31.7631 24.3273C31.7587 24.3273 31.7544 24.3273 31.75 24.3273C31.7457 24.3273 31.7413 24.3273 31.737 24.3273C31.7327 24.3273 31.7283 24.3273 31.724 24.3273C31.7197 24.3273 31.7154 24.3273 31.7111 24.3273C31.7068 24.3273 31.7025 24.3273 31.6982 24.3273C31.6939 24.3273 31.6896 24.3273 31.6853 24.3273C31.681 24.3273 31.6768 24.3273 31.6725 24.3273C31.6682 24.3273 31.664 24.3273 31.6597 24.3273C31.6555 24.3273 31.6512 24.3273 31.647 24.3273C31.6427 24.3273 31.6385 24.3273 31.6343 24.3273C31.63 24.3273 31.6258 24.3273 31.6216 24.3273C31.6174 24.3273 31.6132 24.3273 31.609 24.3273C31.6048 24.3273 31.6006 24.3273 31.5964 24.3273C31.5922 24.3273 31.588 24.3273 31.5838 24.3273C31.5797 24.3273 31.5755 24.3273 31.5713 24.3273C31.5672 24.3273 31.563 24.3273 31.5588 24.3273C31.5547 24.3273 31.5505 24.3273 31.5464 24.3273C31.5423 24.3273 31.5381 24.3273 31.534 24.3273C31.5299 24.3273 31.5258 24.3273 31.5216 24.3273C31.5175 24.3273 31.5134 24.3273 31.5093 24.3273C31.5052 24.3273 31.5011 24.3273 31.497 24.3273C31.4929 24.3273 31.4888 24.3273 31.4848 24.3273C31.4807 24.3273 31.4766 24.3273 31.4725 24.3273C31.4685 24.3273 31.4644 24.3273 31.4604 24.3273C31.4563 24.3273 31.4523 24.3273 31.4482 24.3273C31.4442 24.3273 31.4401 24.3273 31.4361 24.3273C31.4321 24.3273 31.428 24.3273 31.424 24.3273C31.42 24.3273 31.416 24.3273 31.412 24.3273C31.408 24.3273 31.404 24.3273 31.4 24.3273C31.396 24.3273 31.392 24.3273 31.388 24.3273C31.384 24.3273 31.38 24.3273 31.3761 24.3273C31.3721 24.3273 31.3681 24.3273 31.3642 24.3273C31.3602 24.3273 31.3563 24.3273 31.3523 24.3273C31.3484 24.3273 31.3444 24.3273 31.3405 24.3273C31.3365 24.3273 31.3326 24.3273 31.3287 24.3273C31.3247 24.3273 31.3208 24.3273 31.3169 24.3273C31.313 24.3273 31.3091 24.3273 31.3052 24.3273C31.3013 24.3273 31.2974 24.3273 31.2935 24.3273C31.2896 24.3273 31.2857 24.3273 31.2818 24.3273C31.2779 24.3273 31.274 24.3273 31.2702 24.3273C31.2663 24.3273 31.2624 24.3273 31.2586 24.3273C31.2547 24.3273 31.2509 24.3273 31.247 24.3273C31.2432 24.3273 31.2393 24.3273 31.2355 24.3273C31.2316 24.3273 31.2278 24.3273 31.224 24.3273C31.2201 24.3273 31.2163 24.3273 31.2125 24.3273C31.2087 24.3273 31.2049 24.3273 31.2011 24.3273C31.1973 24.3273 31.1935 24.3273 31.1897 24.3273C31.1859 24.3273 31.1821 24.3273 31.1783 24.3273C31.1745 24.3273 31.1707 24.3273 31.1669 24.3273C31.1632 24.3273 31.1594 24.3273 31.1556 24.3273C31.1519 24.3273 31.1481 24.3273 31.1443 24.3273C31.1406 24.3273 31.1368 24.3273 31.1331 24.3273C31.1293 24.3273 31.1256 24.3273 31.1219 24.3273C31.1181 24.3273 31.1144 24.3273 31.1107 24.3273C31.1069 24.3273 31.1032 24.3273 31.0995 24.3273C31.0958 24.3273 31.0921 24.3273 31.0884 24.3273C31.0847 24.3273 31.081 24.3273 31.0773 24.3273C31.0736 24.3273 31.0699 24.3273 31.0662 24.3273C31.0625 24.3273 31.0588 24.3273 31.0552 24.3273C31.0515 24.3273 31.0478 24.3273 31.0441 24.3273C31.0405 24.3273 31.0368 24.3273 31.0332 24.3273C31.0295 24.3273 31.0259 24.3273 31.0222 24.3273C31.0186 24.3273 31.0149 24.3273 31.0113 24.3273C31.0076 24.3273 31.004 24.3273 31.0004 24.3273C30.9968 24.3273 30.9931 24.3273 30.9895 24.3273C30.9859 24.3273 30.9823 24.3273 30.9787 24.3273C30.9751 24.3273 30.9715 24.3273 30.9679 24.3273C30.9643 24.3273 30.9607 24.3273 30.9571 24.3273C30.9535 24.3273 30.9499 24.3273 30.9463 24.3273C30.9427 24.3273 30.9391 24.3273 30.9356 24.3273C30.932 24.3273 30.9284 24.3273 30.9249 24.3273C30.9213 24.3273 30.9177 24.3273 30.9142 24.3273C30.9106 24.3273 30.9071 24.3273 30.9035 24.3273C30.9 24.3273 30.8965 24.3273 30.8929 24.3273C30.8894 24.3273 30.8858 24.3273 30.8823 24.3273C30.8788 24.3273 30.8753 24.3273 30.8717 24.3273C30.8682 24.3273 30.8647 24.3273 30.8612 24.3273C30.8577 24.3273 30.8542 24.3273 30.8507 24.3273C30.8472 24.3273 30.8437 24.3273 30.8402 24.3273C30.8367 24.3273 30.8332 24.3273 30.8297 24.3273C30.8262 24.3273 30.8227 24.3273 30.8193 24.3273C30.8158 24.3273 30.8123 24.3273 30.8088 24.3273C30.8054 24.3273 30.8019 24.3273 30.7984 24.3273C30.795 24.3273 30.7915 24.3273 30.7881 24.3273C30.7846 24.3273 30.7812 24.3273 30.7777 24.3273C30.7743 24.3273 30.7708 24.3273 30.7674 24.3273C30.764 24.3273 30.7605 24.3273 30.7571 24.3273C30.7537 24.3273 30.7503 24.3273 30.7468 24.3273C30.7434 24.3273 30.74 24.3273 30.7366 24.3273C30.7332 24.3273 30.7298 24.3273 30.7264 24.3273C30.7229 24.3273 30.7195 24.3273 30.7162 24.3273C30.7128 24.3273 30.7094 24.3273 30.706 24.3273C30.7026 24.3273 30.6992 24.3273 30.6958 24.3273C30.6924 24.3273 30.6891 24.3273 30.6857 24.3273C30.6823 24.3273 30.6789 24.3273 30.6756 24.3273C30.6722 24.3273 30.6688 24.3273 30.6655 24.3273C30.6621 24.3273 30.6588 24.3273 30.6554 24.3273C30.6521 24.3273 30.6487 24.3273 30.6454 24.3273C30.642 24.3273 30.6387 24.3273 30.6353 24.3273C30.632 24.3273 30.6287 24.3273 30.6253 24.3273C30.622 24.3273 30.6187 24.3273 30.6153 24.3273C30.612 24.3273 30.6087 24.3273 30.6054 24.3273C30.6021 24.3273 30.5988 24.3273 30.5954 24.3273C30.5921 24.3273 30.5888 24.3273 30.5855 24.3273C30.5822 24.3273 30.5789 24.3273 30.5756 24.3273C30.5723 24.3273 30.569 24.3273 30.5657 24.3273C30.5625 24.3273 30.5592 24.3273 30.5559 24.3273C30.5526 24.3273 30.5493 24.3273 30.5461 24.3273C30.5428 24.3273 30.5395 24.3273 30.5362 24.3273C30.533 24.3273 30.5297 24.3273 30.5264 24.3273C30.5232 24.3273 30.5199 24.3273 30.5167 24.3273C30.5134 24.3273 30.5101 24.3273 30.5069 24.3273C30.5036 24.3273 30.5004 24.3273 30.4972 24.3273C30.4939 24.3273 30.4907 24.3273 30.4874 24.3273C30.4842 24.3273 30.481 24.3273 30.4777 24.3273C30.4745 24.3273 30.4713 24.3273 30.468 24.3273C30.4648 24.3273 30.4616 24.3273 30.4584 24.3273C30.4552 24.3273 30.4519 24.3273 30.4487 24.3273C30.4455 24.3273 30.4423 24.3273 30.4391 24.3273C30.4359 24.3273 30.4327 24.3273 30.4295 24.3273C30.4263 24.3273 30.4231 24.3273 30.4199 24.3273C30.4167 24.3273 30.4135 24.3273 30.4103 24.3273C30.4071 24.3273 30.4039 24.3273 30.4007 24.3273C30.3976 24.3273 30.3944 24.3273 30.3912 24.3273C30.388 24.3273 30.3849 24.3273 30.3817 24.3273C30.3785 24.3273 30.3753 24.3273 30.3722 24.3273C30.369 24.3273 30.3658 24.3273 30.3627 24.3273C30.3595 24.3273 30.3564 24.3273 30.3532 24.3273C30.35 24.3273 30.3469 24.3273 30.3437 24.3273C30.3406 24.3273 30.3374 24.3273 30.3343 24.3273C30.3311 24.3273 30.328 24.3273 30.3249 24.3273C30.3217 24.3273 30.3186 24.3273 30.3154 24.3273C30.3123 24.3273 30.3092 24.3273 30.306 24.3273C30.3029 24.3273 30.2998 24.3273 30.2967 24.3273C30.2935 24.3273 30.2904 24.3273 30.2873 24.3273C30.2842 24.3273 30.281 24.3273 30.2779 24.3273C30.2748 24.3273 30.2717 24.3273 30.2686 24.3273C30.2655 24.3273 30.2624 24.3273 30.2593 24.3273C30.2562 24.3273 30.2531 24.3273 30.25 24.3273C30.2468 24.3273 30.2437 24.3273 30.2407 24.3273C30.2376 24.3273 30.2345 24.3273 30.2314 24.3273C30.2283 24.3273 30.2252 24.3273 30.2221 24.3273C30.219 24.3273 30.2159 24.3273 30.2128 24.3273C30.2098 24.3273 30.2067 24.3273 30.2036 24.3273C30.2005 24.3273 30.1974 24.3273 30.1944 24.3273C30.1913 24.3273 30.1882 24.3273 30.1851 24.3273C30.1821 24.3273 30.179 24.3273 30.1759 24.3273C30.1729 24.3273 30.1698 24.3273 30.1667 24.3273C30.1637 24.3273 30.1606 24.3273 30.1576 24.3273C30.1545 24.3273 30.1514 24.3273 30.1484 24.3273C30.1453 24.3273 30.1423 24.3273 30.1392 24.3273C30.1362 24.3273 30.1331 24.3273 30.1301 24.3273C30.127 24.3273 30.124 24.3273 30.121 24.3273C30.1179 24.3273 30.1149 24.3273 30.1118 24.3273C30.1088 24.3273 30.1057 24.3273 30.1027 24.3273C30.0997 24.3273 30.0966 24.3273 30.0936 24.3273C30.0906 24.3273 30.0875 24.3273 30.0845 24.3273C30.0815 24.3273 30.0785 24.3273 30.0754 24.3273C30.0724 24.3273 30.0694 24.3273 30.0664 24.3273C30.0633 24.3273 30.0603 24.3273 30.0573 24.3273C30.0543 24.3273 30.0513 24.3273 30.0483 24.3273C30.0452 24.3273 30.0422 24.3273 30.0392 24.3273C30.0362 24.3273 30.0332 24.3273 30.0302 24.3273C30.0272 24.3273 30.0242 24.3273 30.0212 24.3273C30.0182 24.3273 30.0152 24.3273 30.0122 24.3273C30.0091 24.3273 30.0061 24.3273 30.0031 24.3273C30.0001 24.3273 29.9971 24.3273 29.9942 24.3273C29.9912 24.3273 29.9882 24.3273 29.9852 24.3273C29.9822 24.3273 29.9792 24.3273 29.9762 24.3273C29.9732 24.3273 29.9702 24.3273 29.9672 24.3273C29.9642 24.3273 29.9612 24.3273 29.9583 24.3273C29.9553 24.3273 29.9523 24.3273 29.9493 24.3273C29.9463 24.3273 29.9433 24.3273 29.9404 24.3273C29.9374 24.3273 29.9344 24.3273 29.9314 24.3273C29.9284 24.3273 29.9255 24.3273 29.9225 24.3273C29.9195 24.3273 29.9165 24.3273 29.9136 24.3273C29.9106 24.3273 29.9076 24.3273 29.9046 24.3273C29.9017 24.3273 29.8987 24.3273 29.8957 24.3273C29.8928 24.3273 29.8898 24.3273 29.8868 24.3273C29.8839 24.3273 29.8809 24.3273 29.8779 24.3273C29.875 24.3273 29.872 24.3273 29.869 24.3273C29.8661 24.3273 29.8631 24.3273 29.8601 24.3273C29.8572 24.3273 29.8542 24.3273 29.8513 24.3273C29.8483 24.3273 29.8454 24.3273 29.8424 24.3273C29.8394 24.3273 29.8365 24.3273 29.8335 24.3273C29.8306 24.3273 29.8276 24.3273 29.8247 24.3273C29.8217 24.3273 29.8188 24.3273 29.8158 24.3273C29.8128 24.3273 29.8099 24.3273 29.8069 24.3273C29.804 24.3273 29.801 24.3273 29.7981 24.3273C29.7951 24.3273 29.7922 24.3273 29.7892 24.3273C29.7863 24.3273 29.7834 24.3273 29.7804 24.3273C29.7775 24.3273 29.7745 24.3273 29.7716 24.3273C29.7686 24.3273 29.7657 24.3273 29.7627 24.3273C29.7598 24.3273 29.7568 24.3273 29.7539 24.3273C29.751 24.3273 29.748 24.3273 29.7451 24.3273C29.7421 24.3273 29.7392 24.3273 29.7363 24.3273C29.7333 24.3273 29.7304 24.3273 29.7274 24.3273C29.7245 24.3273 29.7216 24.3273 29.7186 24.3273C29.7157 24.3273 29.7127 24.3273 29.7098 24.3273C29.7069 24.3273 29.7039 24.3273 29.701 24.3273C29.698 24.3273 29.6951 24.3273 29.6922 24.3273C29.6892 24.3273 29.6863 24.3273 29.6834 24.3273C29.6804 24.3273 29.6775 24.3273 29.6746 24.3273C29.6716 24.3273 29.6687 24.3273 29.6658 24.3273C29.6628 24.3273 29.6599 24.3273 29.657 24.3273C29.654 24.3273 29.6511 24.3273 29.6482 24.3273C29.6452 24.3273 29.6423 24.3273 29.6394 24.3273C29.6364 24.3273 29.6335 24.3273 29.6306 24.3273C29.6276 24.3273 29.6247 24.3273 29.6218 24.3273C29.6188 24.3273 29.6159 24.3273 29.613 24.3273C29.61 24.3273 29.6071 24.3273 29.6042 24.3273C29.6012 24.3273 29.5983 24.3273 29.5954 24.3273C29.5924 24.3273 29.5895 24.3273 29.5866 24.3273C29.5836 24.3273 29.5807 24.3273 29.5778 24.3273C29.5748 24.3273 29.5719 24.3273 29.569 24.3273C29.566 24.3273 29.5631 24.3273 29.5602 24.3273C29.5572 24.3273 29.5543 24.3273 29.5514 24.3273C29.5484 24.3273 29.5455 24.3273 29.5426 24.3273C29.5396 24.3273 29.5367 24.3273 29.5338 24.3273C29.5308 24.3273 29.5279 24.3273 29.525 24.3273C29.522 24.3273 29.5191 24.3273 29.5162 24.3273C29.5132 24.3273 29.5103 24.3273 29.5073 24.3273C29.5044 24.3273 29.5015 24.3273 29.4985 24.3273C29.4956 24.3273 29.4927 24.3273 29.4897 24.3273C29.4868 24.3273 29.4839 24.3273 29.4809 24.3273C29.478 24.3273 29.475 24.3273 29.4721 24.3273C29.4692 24.3273 29.4662 24.3273 29.4633 24.3273C29.4603 24.3273 29.4574 24.3273 29.4545 24.3273C29.4515 24.3273 29.4486 24.3273 29.4456 24.3273C29.4427 24.3273 29.4398 24.3273 29.4368 24.3273C29.4339 24.3273 29.4309 24.3273 29.428 24.3273C29.425 24.3273 29.4221 24.3273 29.4191 24.3273C29.4162 24.3273 29.4133 24.3273 29.4103 24.3273C29.4074 24.3273 29.4044 24.3273 29.4015 24.3273C29.3985 24.3273 29.3956 24.3273 29.3926 24.3273C29.3897 24.3273 29.3867 24.3273 29.3838 24.3273C29.3808 24.3273 29.3779 24.3273 29.3749 24.3273C29.372 24.3273 29.369 24.3273 29.3661 24.3273C29.3631 24.3273 29.3601 24.3273 29.3572 24.3273C29.3542 24.3273 29.3513 24.3273 29.3483 24.3273C29.3454 24.3273 29.3424 24.3273 29.3394 24.3273C29.3365 24.3273 29.3335 24.3273 29.3306 24.3273C29.3276 24.3273 29.3246 24.3273 29.3217 24.3273C29.3187 24.3273 29.3158 24.3273 29.3128 24.3273C29.3098 24.3273 29.3069 24.3273 29.3039 24.3273C29.3009 24.3273 29.298 24.3273 29.295 24.3273C29.292 24.3273 29.289 24.3273 29.2861 24.3273C29.2831 24.3273 29.2801 24.3273 29.2772 24.3273C29.2742 24.3273 29.2712 24.3273 29.2682 24.3273C29.2653 24.3273 29.2623 24.3273 29.2593 24.3273C29.2563 24.3273 29.2533 24.3273 29.2504 24.3273C29.2474 24.3273 29.2444 24.3273 29.2414 24.3273C29.2384 24.3273 29.2354 24.3273 29.2325 24.3273C29.2295 24.3273 29.2265 24.3273 29.2235 24.3273C29.2205 24.3273 29.2175 24.3273 29.2145 24.3273C29.2115 24.3273 29.2085 24.3273 29.2055 24.3273C29.2026 24.3273 29.1996 24.3273 29.1966 24.3273C29.1936 24.3273 29.1906 24.3273 29.1876 24.3273C29.1846 24.3273 29.1816 24.3273 29.1786 24.3273C29.1756 24.3273 29.1726 24.3273 29.1696 24.3273C29.1665 24.3273 29.1635 24.3273 29.1605 24.3273C29.1575 24.3273 29.1545 24.3273 29.1515 24.3273C29.1485 24.3273 29.1455 24.3273 29.1425 24.3273C29.1394 24.3273 29.1364 24.3273 29.1334 24.3273C29.1304 24.3273 29.1274 24.3273 29.1243 24.3273C29.1213 24.3273 29.1183 24.3273 29.1153 24.3273C29.1123 24.3273 29.1092 24.3273 29.1062 24.3273C29.1032 24.3273 29.1001 24.3273 29.0971 24.3273C29.0941 24.3273 29.091 24.3273 29.088 24.3273C29.085 24.3273 29.0819 24.3273 29.0789 24.3273C29.0758 24.3273 29.0728 24.3273 29.0698 24.3273C29.0667 24.3273 29.0637 24.3273 29.0606 24.3273C29.0576 24.3273 29.0545 24.3273 29.0515 24.3273C29.0484 24.3273 29.0454 24.3273 29.0423 24.3273C29.0393 24.3273 29.0362 24.3273 29.0332 24.3273C29.0301 24.3273 29.027 24.3273 29.024 24.3273C29.0209 24.3273 29.0178 24.3273 29.0148 24.3273C29.0117 24.3273 29.0086 24.3273 29.0056 24.3273C29.0025 24.3273 28.9994 24.3273 28.9964 24.3273C28.9933 24.3273 28.9902 24.3273 28.9871 24.3273C28.984 24.3273 28.981 24.3273 28.9779 24.3273C28.9748 24.3273 28.9717 24.3273 28.9686 24.3273C28.9655 24.3273 28.9624 24.3273 28.9593 24.3273C28.9563 24.3273 28.9532 24.3273 28.9501 24.3273C28.947 24.3273 28.9439 24.3273 28.9408 24.3273C28.9377 24.3273 28.9346 24.3273 28.9315 24.3273C28.9283 24.3273 28.9252 24.3273 28.9221 24.3273C28.919 24.3273 28.9159 24.3273 28.9128 24.3273C28.9097 24.3273 28.9065 24.3273 28.9034 24.3273C28.9003 24.3273 28.8972 24.3273 28.8941 24.3273C28.8909 24.3273 28.8878 24.3273 28.8847 24.3273C28.8815 24.3273 28.8784 24.3273 28.8753 24.3273C28.8721 24.3273 28.869 24.3273 28.8659 24.3273C28.8627 24.3273 28.8596 24.3273 28.8564 24.3273C28.8533 24.3273 28.8501 24.3273 28.847 24.3273C28.8438 24.3273 28.8407 24.3273 28.8375 24.3273C28.8344 24.3273 28.8312 24.3273 28.828 24.3273C28.8249 24.3273 28.8217 24.3273 28.8185 24.3273C28.8154 24.3273 28.8122 24.3273 28.809 24.3273C28.8059 24.3273 28.8027 24.3273 28.7995 24.3273C28.7963 24.3273 28.7931 24.3273 28.79 24.3273C28.7868 24.3273 28.7836 24.3273 28.7804 24.3273C28.7772 24.3273 28.774 24.3273 28.7708 24.3273C28.7676 24.3273 28.7644 24.3273 28.7612 24.3273C28.758 24.3273 28.7548 24.3273 28.7516 24.3273C28.7484 24.3273 28.7452 24.3273 28.742 24.3273C28.7388 24.3273 28.7356 24.3273 28.7323 24.3273C28.7291 24.3273 28.7259 24.3273 28.7227 24.3273C28.7194 24.3273 28.7162 24.3273 28.713 24.3273C28.7098 24.3273 28.7065 24.3273 28.7033 24.3273C28.7 24.3273 28.6968 24.3273 28.6936 24.3273C28.6903 24.3273 28.6871 24.3273 28.6838 24.3273C28.6806 24.3273 28.6773 24.3273 28.6741 24.3273C28.6708 24.3273 28.6675 24.3273 28.6643 24.3273C28.661 24.3273 28.6578 24.3273 28.6545 24.3273C28.6512 24.3273 28.6479 24.3273 28.6447 24.3273C28.6414 24.3273 28.6381 24.3273 28.6348 24.3273C28.6315 24.3273 28.6283 24.3273 28.625 24.3273C28.6217 24.3273 28.6184 24.3273 28.6151 24.3273C28.6118 24.3273 28.6085 24.3273 28.6052 24.3273C28.6019 24.3273 28.5986 24.3273 28.5953 24.3273C28.592 24.3273 28.5886 24.3273 28.5853 24.3273C28.582 24.3273 28.5787 24.3273 28.5754 24.3273C28.572 24.3273 28.5687 24.3273 28.5654 24.3273C28.5621 24.3273 28.5587 24.3273 28.5554 24.3273C28.552 24.3273 28.5487 24.3273 28.5454 24.3273C28.542 24.3273 28.5387 24.3273 28.5353 24.3273C28.532 24.3273 28.5286 24.3273 28.5252 24.3273C28.5219 24.3273 28.5185 24.3273 28.5152 24.3273C28.5118 24.3273 28.5084 24.3273 28.505 24.3273C28.5017 24.3273 28.4983 24.3273 28.4949 24.3273C28.4915 24.3273 28.4881 24.3273 28.4847 24.3273C28.4814 24.3273 28.478 24.3273 28.4746 24.3273C28.4712 24.3273 28.4678 24.3273 28.4644 24.3273C28.461 24.3273 28.4575 24.3273 28.4541 24.3273C28.4507 24.3273 28.4473 24.3273 28.4439 24.3273C28.4405 24.3273 28.437 24.3273 28.4336 24.3273C28.4302 24.3273 28.4267 24.3273 28.4233 24.3273C28.4199 24.3273 28.4164 24.3273 28.413 24.3273C28.4095 24.3273 28.4061 24.3273 28.4026 24.3273C28.3992 24.3273 28.3957 24.3273 28.3923 24.3273C28.3888 24.3273 28.3853 24.3273 28.3819 24.3273C28.3784 24.3273 28.3749 24.3273 28.3715 24.3273C28.368 24.3273 28.3645 24.3273 28.361 24.3273C28.3575 24.3273 28.354 24.3273 28.3505 24.3273C28.347 24.3273 28.3435 24.3273 28.34 24.3273C28.3365 24.3273 28.333 24.3273 28.3295 24.3273C28.326 24.3273 28.3225 24.3273 28.319 24.3273C28.3155 24.3273 28.3119 24.3273 28.3084 24.3273C28.3049 24.3273 28.3013 24.3273 28.2978 24.3273C28.2943 24.3273 28.2907 24.3273 28.2872 24.3273C28.2836 24.3273 28.2801 24.3273 28.2765 24.3273C28.273 24.3273 28.2694 24.3273 28.2658 24.3273C28.2623 24.3273 28.2587 24.3273 28.2551 24.3273C28.2516 24.3273 28.248 24.3273 28.2444 24.3273C28.2408 24.3273 28.2372 24.3273 28.2336 24.3273C28.2301 24.3273 28.2265 24.3273 28.2229 24.3273C28.2193 24.3273 28.2157 24.3273 28.212 24.3273C28.2084 24.3273 28.2048 24.3273 28.2012 24.3273C28.1976 24.3273 28.194 24.3273 28.1903 24.3273C28.1867 24.3273 28.1831 24.3273 28.1794 24.3273C28.1758 24.3273 28.1722 24.3273 28.1685 24.3273C28.1649 24.3273 28.1612 24.3273 28.1576 24.3273C28.1539 24.3273 28.1502 24.3273 28.1466 24.3273C28.1429 24.3273 28.1392 24.3273 28.1356 24.3273C28.1319 24.3273 28.1282 24.3273 28.1245 24.3273C28.1208 24.3273 28.1171 24.3273 28.1134 24.3273C28.1097 24.3273 28.106 24.3273 28.1023 24.3273C28.0986 24.3273 28.0949 24.3273 28.0912 24.3273C28.0875 24.3273 28.0838 24.3273 28.08 24.3273C28.0763 24.3273 28.0726 24.3273 28.0689 24.3273C28.0651 24.3273 28.0614 24.3273 28.0576 24.3273C28.0539 24.3273 28.0501 24.3273 28.0464 24.3273C28.0426 24.3273 28.0389 24.3273 28.0351 24.3273C28.0313 24.3273 28.0276 24.3273 28.0238 24.3273C28.02 24.3273 28.0162 24.3273 28.0124 24.3273C28.0087 24.3273 28.0049 24.3273 28.0011 24.3273C27.9973 24.3273 27.9935 24.3273 27.9897 24.3273C27.9858 24.3273 27.982 24.3273 27.9782 24.3273C27.9744 24.3273 27.9706 24.3273 27.9667 24.3273C27.9629 24.3273 27.9591 24.3273 27.9552 24.3273C27.9514 24.3273 27.9476 24.3273 27.9437 24.3273C27.9399 24.3273 27.936 24.3273 27.9321 24.3273C27.9283 24.3273 27.9244 24.3273 27.9205 24.3273C27.9167 24.3273 27.9128 24.3273 27.9089 24.3273C27.905 24.3273 27.9011 24.3273 27.8972 24.3273C27.8933 24.3273 27.8894 24.3273 27.8855 24.3273C27.8816 24.3273 27.8777 24.3273 27.8738 24.3273C27.8699 24.3273 27.866 24.3273 27.862 24.3273C27.8581 24.3273 27.8542 24.3273 27.8502 24.3273C27.8463 24.3273 27.8424 24.3273 27.8384 24.3273C27.8345 24.3273 27.8305 24.3273 27.8265 24.3273C27.8226 24.3273 27.8186 24.3273 27.8146 24.3273C27.8107 24.3273 27.8067 24.3273 27.8027 24.3273C27.7987 24.3273 27.7947 24.3273 27.7907 24.3273C27.7867 24.3273 27.7827 24.3273 27.7787 24.3273C27.7747 24.3273 27.7707 24.3273 27.7667 24.3273C27.7627 24.3273 27.7586 24.3273 27.7546 24.3273C27.7506 24.3273 27.7465 24.3273 27.7425 24.3273C27.7385 24.3273 27.7344 24.3273 27.7304 24.3273C27.7263 24.3273 27.7222 24.3273 27.7182 24.3273C27.7141 24.3273 27.71 24.3273 27.7059 24.3273C27.7019 24.3273 27.6978 24.3273 27.6937 24.3273C27.6896 24.3273 27.6855 24.3273 27.6814 24.3273C27.6773 24.3273 27.6732 24.3273 27.6691 24.3273C27.665 24.3273 27.6608 24.3273 27.6567 24.3273C27.6526 24.3273 27.6484 24.3273 27.6443 24.3273C27.6402 24.3273 27.636 24.3273 27.6319 24.3273C27.6277 24.3273 27.6236 24.3273 27.6194 24.3273C27.6152 24.3273 27.6111 24.3273 27.6069 24.3273C27.6027 24.3273 27.5985 24.3273 27.5943 24.3273C27.5901 24.3273 27.5859 24.3273 27.5817 24.3273C27.5775 24.3273 27.5733 24.3273 27.5691 24.3273C27.5649 24.3273 27.5607 24.3273 27.5564 24.3273C27.5522 24.3273 27.548 24.3273 27.5437 24.3273C27.5395 24.3273 27.5352 24.3273 27.531 24.3273C27.5267 24.3273 27.5225 24.3273 27.5182 24.3273C27.5139 24.3273 27.5097 24.3273 27.5054 24.3273C27.5011 24.3273 27.4968 24.3273 27.4925 24.3273C27.4882 24.3273 27.4839 24.3273 27.4796 24.3273C27.4753 24.3273 27.471 24.3273 27.4667 24.3273C27.4624 24.3273 27.458 24.3273 27.4537 24.3273C27.4494 24.3273 27.445 24.3273 27.4407 24.3273C27.4363 24.3273 27.432 24.3273 27.4276 24.3273C27.4233 24.3273 27.4189 24.3273 27.4145 24.3273C27.4102 24.3273 27.4058 24.3273 27.4014 24.3273C27.397 24.3273 27.3926 24.3273 27.3882 24.3273C27.3838 24.3273 27.3794 24.3273 27.375 24.3273C27.3706 24.3273 27.3662 24.3273 27.3617 24.3273C27.3573 24.3273 27.3529 24.3273 27.3484 24.3273C27.344 24.3273 27.3395 24.3273 27.3351 24.3273C27.3306 24.3273 27.3262 24.3273 27.3217 24.3273C27.3172 24.3273 27.3127 24.3273 27.3083 24.3273C27.3038 24.3273 27.2993 24.3273 27.2948 24.3273C27.2903 24.3273 27.2858 24.3273 27.2813 24.3273C27.2768 24.3273 27.2722 24.3273 27.2677 24.3273C27.2632 24.3273 27.2587 24.3273 27.2541 24.3273C27.2496 24.3273 27.245 24.3273 27.2405 24.3273C27.2359 24.3273 27.2314 24.3273 27.2268 24.3273C27.2222 24.3273 27.2176 24.3273 27.2131 24.3273C27.2085 24.3273 27.2039 24.3273 27.1993 24.3273C27.1947 24.3273 27.1901 24.3273 27.1855 24.3273C27.1809 24.3273 27.1762 24.3273 27.1716 24.3273C27.167 24.3273 27.1623 24.3273 27.1577 24.3273C27.1531 24.3273 27.1484 24.3273 27.1438 24.3273C27.1391 24.3273 27.1344 24.3273 27.1298 24.3273C27.1251 24.3273 27.1204 24.3273 27.1157 24.3273C27.111 24.3273 27.1063 24.3273 27.1016 24.3273C27.0969 24.3273 27.0922 24.3273 27.0875 24.3273C27.0828 24.3273 27.0781 24.3273 27.0733 24.3273C27.0686 24.3273 27.0639 24.3273 27.0591 24.3273C27.0544 24.3273 27.0496 24.3273 27.0449 24.3273C27.0401 24.3273 27.0353 24.3273 27.0306 24.3273C27.0258 24.3273 27.021 24.3273 27.0162 24.3273C27.0114 24.3273 27.0066 24.3273 27.0018 24.3273C26.997 24.3273 26.9922 24.3273 26.9874 24.3273C26.9825 24.3273 26.9777 24.3273 26.9729 24.3273C26.968 24.3273 26.9632 24.3273 26.9583 24.3273C26.9535 24.3273 26.9486 24.3273 26.9437 24.3273C26.9389 24.3273 26.934 24.3273 26.9291 24.3273C26.9242 24.3273 26.9193 24.3273 26.9144 24.3273C26.9095 24.3273 26.9046 24.3273 26.8997 24.3273C26.8948 24.3273 26.8899 24.3273 26.8849 24.3273C26.88 24.3273 26.875 24.3273 26.8701 24.3273C26.8651 24.3273 26.8602 24.3273 26.8552 24.3273C26.8503 24.3273 26.8453 24.3273 26.8403 24.3273C26.8353 24.3273 26.8303 24.3273 26.8253 24.3273C26.8203 24.3273 26.8153 24.3273 26.8103 24.3273V25.3273C26.8153 25.3273 26.8203 25.3273 26.8253 25.3273C26.8303 25.3273 26.8353 25.3273 26.8403 25.3273C26.8453 25.3273 26.8503 25.3273 26.8552 25.3273C26.8602 25.3273 26.8651 25.3273 26.8701 25.3273C26.875 25.3273 26.88 25.3273 26.8849 25.3273C26.8899 25.3273 26.8948 25.3273 26.8997 25.3273C26.9046 25.3273 26.9095 25.3273 26.9144 25.3273C26.9193 25.3273 26.9242 25.3273 26.9291 25.3273C26.934 25.3273 26.9389 25.3273 26.9437 25.3273C26.9486 25.3273 26.9535 25.3273 26.9583 25.3273C26.9632 25.3273 26.968 25.3273 26.9729 25.3273C26.9777 25.3273 26.9825 25.3273 26.9874 25.3273C26.9922 25.3273 26.997 25.3273 27.0018 25.3273C27.0066 25.3273 27.0114 25.3273 27.0162 25.3273C27.021 25.3273 27.0258 25.3273 27.0306 25.3273C27.0353 25.3273 27.0401 25.3273 27.0449 25.3273C27.0496 25.3273 27.0544 25.3273 27.0591 25.3273C27.0639 25.3273 27.0686 25.3273 27.0733 25.3273C27.0781 25.3273 27.0828 25.3273 27.0875 25.3273C27.0922 25.3273 27.0969 25.3273 27.1016 25.3273C27.1063 25.3273 27.111 25.3273 27.1157 25.3273C27.1204 25.3273 27.1251 25.3273 27.1298 25.3273C27.1344 25.3273 27.1391 25.3273 27.1438 25.3273C27.1484 25.3273 27.1531 25.3273 27.1577 25.3273C27.1623 25.3273 27.167 25.3273 27.1716 25.3273C27.1762 25.3273 27.1809 25.3273 27.1855 25.3273C27.1901 25.3273 27.1947 25.3273 27.1993 25.3273C27.2039 25.3273 27.2085 25.3273 27.2131 25.3273C27.2176 25.3273 27.2222 25.3273 27.2268 25.3273C27.2314 25.3273 27.2359 25.3273 27.2405 25.3273C27.245 25.3273 27.2496 25.3273 27.2541 25.3273C27.2587 25.3273 27.2632 25.3273 27.2677 25.3273C27.2722 25.3273 27.2768 25.3273 27.2813 25.3273C27.2858 25.3273 27.2903 25.3273 27.2948 25.3273C27.2993 25.3273 27.3038 25.3273 27.3083 25.3273C27.3127 25.3273 27.3172 25.3273 27.3217 25.3273C27.3262 25.3273 27.3306 25.3273 27.3351 25.3273C27.3395 25.3273 27.344 25.3273 27.3484 25.3273C27.3529 25.3273 27.3573 25.3273 27.3617 25.3273C27.3662 25.3273 27.3706 25.3273 27.375 25.3273C27.3794 25.3273 27.3838 25.3273 27.3882 25.3273C27.3926 25.3273 27.397 25.3273 27.4014 25.3273C27.4058 25.3273 27.4102 25.3273 27.4145 25.3273C27.4189 25.3273 27.4233 25.3273 27.4276 25.3273C27.432 25.3273 27.4363 25.3273 27.4407 25.3273C27.445 25.3273 27.4494 25.3273 27.4537 25.3273C27.458 25.3273 27.4624 25.3273 27.4667 25.3273C27.471 25.3273 27.4753 25.3273 27.4796 25.3273C27.4839 25.3273 27.4882 25.3273 27.4925 25.3273C27.4968 25.3273 27.5011 25.3273 27.5054 25.3273C27.5097 25.3273 27.5139 25.3273 27.5182 25.3273C27.5225 25.3273 27.5267 25.3273 27.531 25.3273C27.5352 25.3273 27.5395 25.3273 27.5437 25.3273C27.548 25.3273 27.5522 25.3273 27.5564 25.3273C27.5607 25.3273 27.5649 25.3273 27.5691 25.3273C27.5733 25.3273 27.5775 25.3273 27.5817 25.3273C27.5859 25.3273 27.5901 25.3273 27.5943 25.3273C27.5985 25.3273 27.6027 25.3273 27.6069 25.3273C27.6111 25.3273 27.6152 25.3273 27.6194 25.3273C27.6236 25.3273 27.6277 25.3273 27.6319 25.3273C27.636 25.3273 27.6402 25.3273 27.6443 25.3273C27.6484 25.3273 27.6526 25.3273 27.6567 25.3273C27.6608 25.3273 27.665 25.3273 27.6691 25.3273C27.6732 25.3273 27.6773 25.3273 27.6814 25.3273C27.6855 25.3273 27.6896 25.3273 27.6937 25.3273C27.6978 25.3273 27.7019 25.3273 27.7059 25.3273C27.71 25.3273 27.7141 25.3273 27.7182 25.3273C27.7222 25.3273 27.7263 25.3273 27.7304 25.3273C27.7344 25.3273 27.7385 25.3273 27.7425 25.3273C27.7465 25.3273 27.7506 25.3273 27.7546 25.3273C27.7586 25.3273 27.7627 25.3273 27.7667 25.3273C27.7707 25.3273 27.7747 25.3273 27.7787 25.3273C27.7827 25.3273 27.7867 25.3273 27.7907 25.3273C27.7947 25.3273 27.7987 25.3273 27.8027 25.3273C27.8067 25.3273 27.8107 25.3273 27.8146 25.3273C27.8186 25.3273 27.8226 25.3273 27.8265 25.3273C27.8305 25.3273 27.8345 25.3273 27.8384 25.3273C27.8424 25.3273 27.8463 25.3273 27.8502 25.3273C27.8542 25.3273 27.8581 25.3273 27.862 25.3273C27.866 25.3273 27.8699 25.3273 27.8738 25.3273C27.8777 25.3273 27.8816 25.3273 27.8855 25.3273C27.8894 25.3273 27.8933 25.3273 27.8972 25.3273C27.9011 25.3273 27.905 25.3273 27.9089 25.3273C27.9128 25.3273 27.9167 25.3273 27.9205 25.3273C27.9244 25.3273 27.9283 25.3273 27.9321 25.3273C27.936 25.3273 27.9399 25.3273 27.9437 25.3273C27.9476 25.3273 27.9514 25.3273 27.9552 25.3273C27.9591 25.3273 27.9629 25.3273 27.9667 25.3273C27.9706 25.3273 27.9744 25.3273 27.9782 25.3273C27.982 25.3273 27.9858 25.3273 27.9897 25.3273C27.9935 25.3273 27.9973 25.3273 28.0011 25.3273C28.0049 25.3273 28.0087 25.3273 28.0124 25.3273C28.0162 25.3273 28.02 25.3273 28.0238 25.3273C28.0276 25.3273 28.0313 25.3273 28.0351 25.3273C28.0389 25.3273 28.0426 25.3273 28.0464 25.3273C28.0501 25.3273 28.0539 25.3273 28.0576 25.3273C28.0614 25.3273 28.0651 25.3273 28.0689 25.3273C28.0726 25.3273 28.0763 25.3273 28.08 25.3273C28.0838 25.3273 28.0875 25.3273 28.0912 25.3273C28.0949 25.3273 28.0986 25.3273 28.1023 25.3273C28.106 25.3273 28.1097 25.3273 28.1134 25.3273C28.1171 25.3273 28.1208 25.3273 28.1245 25.3273C28.1282 25.3273 28.1319 25.3273 28.1356 25.3273C28.1392 25.3273 28.1429 25.3273 28.1466 25.3273C28.1502 25.3273 28.1539 25.3273 28.1576 25.3273C28.1612 25.3273 28.1649 25.3273 28.1685 25.3273C28.1722 25.3273 28.1758 25.3273 28.1794 25.3273C28.1831 25.3273 28.1867 25.3273 28.1903 25.3273C28.194 25.3273 28.1976 25.3273 28.2012 25.3273C28.2048 25.3273 28.2084 25.3273 28.212 25.3273C28.2157 25.3273 28.2193 25.3273 28.2229 25.3273C28.2265 25.3273 28.2301 25.3273 28.2336 25.3273C28.2372 25.3273 28.2408 25.3273 28.2444 25.3273C28.248 25.3273 28.2516 25.3273 28.2551 25.3273C28.2587 25.3273 28.2623 25.3273 28.2658 25.3273C28.2694 25.3273 28.273 25.3273 28.2765 25.3273C28.2801 25.3273 28.2836 25.3273 28.2872 25.3273C28.2907 25.3273 28.2943 25.3273 28.2978 25.3273C28.3013 25.3273 28.3049 25.3273 28.3084 25.3273C28.3119 25.3273 28.3155 25.3273 28.319 25.3273C28.3225 25.3273 28.326 25.3273 28.3295 25.3273C28.333 25.3273 28.3365 25.3273 28.34 25.3273C28.3435 25.3273 28.347 25.3273 28.3505 25.3273C28.354 25.3273 28.3575 25.3273 28.361 25.3273C28.3645 25.3273 28.368 25.3273 28.3715 25.3273C28.3749 25.3273 28.3784 25.3273 28.3819 25.3273C28.3853 25.3273 28.3888 25.3273 28.3923 25.3273C28.3957 25.3273 28.3992 25.3273 28.4026 25.3273C28.4061 25.3273 28.4095 25.3273 28.413 25.3273C28.4164 25.3273 28.4199 25.3273 28.4233 25.3273C28.4267 25.3273 28.4302 25.3273 28.4336 25.3273C28.437 25.3273 28.4405 25.3273 28.4439 25.3273C28.4473 25.3273 28.4507 25.3273 28.4541 25.3273C28.4575 25.3273 28.461 25.3273 28.4644 25.3273C28.4678 25.3273 28.4712 25.3273 28.4746 25.3273C28.478 25.3273 28.4814 25.3273 28.4847 25.3273C28.4881 25.3273 28.4915 25.3273 28.4949 25.3273C28.4983 25.3273 28.5017 25.3273 28.505 25.3273C28.5084 25.3273 28.5118 25.3273 28.5152 25.3273C28.5185 25.3273 28.5219 25.3273 28.5252 25.3273C28.5286 25.3273 28.532 25.3273 28.5353 25.3273C28.5387 25.3273 28.542 25.3273 28.5454 25.3273C28.5487 25.3273 28.552 25.3273 28.5554 25.3273C28.5587 25.3273 28.5621 25.3273 28.5654 25.3273C28.5687 25.3273 28.572 25.3273 28.5754 25.3273C28.5787 25.3273 28.582 25.3273 28.5853 25.3273C28.5886 25.3273 28.592 25.3273 28.5953 25.3273C28.5986 25.3273 28.6019 25.3273 28.6052 25.3273C28.6085 25.3273 28.6118 25.3273 28.6151 25.3273C28.6184 25.3273 28.6217 25.3273 28.625 25.3273C28.6283 25.3273 28.6315 25.3273 28.6348 25.3273C28.6381 25.3273 28.6414 25.3273 28.6447 25.3273C28.6479 25.3273 28.6512 25.3273 28.6545 25.3273C28.6578 25.3273 28.661 25.3273 28.6643 25.3273C28.6675 25.3273 28.6708 25.3273 28.6741 25.3273C28.6773 25.3273 28.6806 25.3273 28.6838 25.3273C28.6871 25.3273 28.6903 25.3273 28.6936 25.3273C28.6968 25.3273 28.7 25.3273 28.7033 25.3273C28.7065 25.3273 28.7098 25.3273 28.713 25.3273C28.7162 25.3273 28.7194 25.3273 28.7227 25.3273C28.7259 25.3273 28.7291 25.3273 28.7323 25.3273C28.7356 25.3273 28.7388 25.3273 28.742 25.3273C28.7452 25.3273 28.7484 25.3273 28.7516 25.3273C28.7548 25.3273 28.758 25.3273 28.7612 25.3273C28.7644 25.3273 28.7676 25.3273 28.7708 25.3273C28.774 25.3273 28.7772 25.3273 28.7804 25.3273C28.7836 25.3273 28.7868 25.3273 28.79 25.3273C28.7931 25.3273 28.7963 25.3273 28.7995 25.3273C28.8027 25.3273 28.8059 25.3273 28.809 25.3273C28.8122 25.3273 28.8154 25.3273 28.8185 25.3273C28.8217 25.3273 28.8249 25.3273 28.828 25.3273C28.8312 25.3273 28.8344 25.3273 28.8375 25.3273C28.8407 25.3273 28.8438 25.3273 28.847 25.3273C28.8501 25.3273 28.8533 25.3273 28.8564 25.3273C28.8596 25.3273 28.8627 25.3273 28.8659 25.3273C28.869 25.3273 28.8721 25.3273 28.8753 25.3273C28.8784 25.3273 28.8815 25.3273 28.8847 25.3273C28.8878 25.3273 28.8909 25.3273 28.8941 25.3273C28.8972 25.3273 28.9003 25.3273 28.9034 25.3273C28.9065 25.3273 28.9097 25.3273 28.9128 25.3273C28.9159 25.3273 28.919 25.3273 28.9221 25.3273C28.9252 25.3273 28.9283 25.3273 28.9315 25.3273C28.9346 25.3273 28.9377 25.3273 28.9408 25.3273C28.9439 25.3273 28.947 25.3273 28.9501 25.3273C28.9532 25.3273 28.9563 25.3273 28.9593 25.3273C28.9624 25.3273 28.9655 25.3273 28.9686 25.3273C28.9717 25.3273 28.9748 25.3273 28.9779 25.3273C28.981 25.3273 28.984 25.3273 28.9871 25.3273C28.9902 25.3273 28.9933 25.3273 28.9964 25.3273C28.9994 25.3273 29.0025 25.3273 29.0056 25.3273C29.0086 25.3273 29.0117 25.3273 29.0148 25.3273C29.0178 25.3273 29.0209 25.3273 29.024 25.3273C29.027 25.3273 29.0301 25.3273 29.0332 25.3273C29.0362 25.3273 29.0393 25.3273 29.0423 25.3273C29.0454 25.3273 29.0484 25.3273 29.0515 25.3273C29.0545 25.3273 29.0576 25.3273 29.0606 25.3273C29.0637 25.3273 29.0667 25.3273 29.0698 25.3273C29.0728 25.3273 29.0758 25.3273 29.0789 25.3273C29.0819 25.3273 29.085 25.3273 29.088 25.3273C29.091 25.3273 29.0941 25.3273 29.0971 25.3273C29.1001 25.3273 29.1032 25.3273 29.1062 25.3273C29.1092 25.3273 29.1123 25.3273 29.1153 25.3273C29.1183 25.3273 29.1213 25.3273 29.1243 25.3273C29.1274 25.3273 29.1304 25.3273 29.1334 25.3273C29.1364 25.3273 29.1394 25.3273 29.1425 25.3273C29.1455 25.3273 29.1485 25.3273 29.1515 25.3273C29.1545 25.3273 29.1575 25.3273 29.1605 25.3273C29.1635 25.3273 29.1665 25.3273 29.1696 25.3273C29.1726 25.3273 29.1756 25.3273 29.1786 25.3273C29.1816 25.3273 29.1846 25.3273 29.1876 25.3273C29.1906 25.3273 29.1936 25.3273 29.1966 25.3273C29.1996 25.3273 29.2026 25.3273 29.2055 25.3273C29.2085 25.3273 29.2115 25.3273 29.2145 25.3273C29.2175 25.3273 29.2205 25.3273 29.2235 25.3273C29.2265 25.3273 29.2295 25.3273 29.2325 25.3273C29.2354 25.3273 29.2384 25.3273 29.2414 25.3273C29.2444 25.3273 29.2474 25.3273 29.2504 25.3273C29.2533 25.3273 29.2563 25.3273 29.2593 25.3273C29.2623 25.3273 29.2653 25.3273 29.2682 25.3273C29.2712 25.3273 29.2742 25.3273 29.2772 25.3273C29.2801 25.3273 29.2831 25.3273 29.2861 25.3273C29.289 25.3273 29.292 25.3273 29.295 25.3273C29.298 25.3273 29.3009 25.3273 29.3039 25.3273C29.3069 25.3273 29.3098 25.3273 29.3128 25.3273C29.3158 25.3273 29.3187 25.3273 29.3217 25.3273C29.3246 25.3273 29.3276 25.3273 29.3306 25.3273C29.3335 25.3273 29.3365 25.3273 29.3394 25.3273C29.3424 25.3273 29.3454 25.3273 29.3483 25.3273C29.3513 25.3273 29.3542 25.3273 29.3572 25.3273C29.3601 25.3273 29.3631 25.3273 29.3661 25.3273C29.369 25.3273 29.372 25.3273 29.3749 25.3273C29.3779 25.3273 29.3808 25.3273 29.3838 25.3273C29.3867 25.3273 29.3897 25.3273 29.3926 25.3273C29.3956 25.3273 29.3985 25.3273 29.4015 25.3273C29.4044 25.3273 29.4074 25.3273 29.4103 25.3273C29.4133 25.3273 29.4162 25.3273 29.4191 25.3273C29.4221 25.3273 29.425 25.3273 29.428 25.3273C29.4309 25.3273 29.4339 25.3273 29.4368 25.3273C29.4398 25.3273 29.4427 25.3273 29.4456 25.3273C29.4486 25.3273 29.4515 25.3273 29.4545 25.3273C29.4574 25.3273 29.4603 25.3273 29.4633 25.3273C29.4662 25.3273 29.4692 25.3273 29.4721 25.3273C29.475 25.3273 29.478 25.3273 29.4809 25.3273C29.4839 25.3273 29.4868 25.3273 29.4897 25.3273C29.4927 25.3273 29.4956 25.3273 29.4985 25.3273C29.5015 25.3273 29.5044 25.3273 29.5073 25.3273C29.5103 25.3273 29.5132 25.3273 29.5162 25.3273C29.5191 25.3273 29.522 25.3273 29.525 25.3273C29.5279 25.3273 29.5308 25.3273 29.5338 25.3273C29.5367 25.3273 29.5396 25.3273 29.5426 25.3273C29.5455 25.3273 29.5484 25.3273 29.5514 25.3273C29.5543 25.3273 29.5572 25.3273 29.5602 25.3273C29.5631 25.3273 29.566 25.3273 29.569 25.3273C29.5719 25.3273 29.5748 25.3273 29.5778 25.3273C29.5807 25.3273 29.5836 25.3273 29.5866 25.3273C29.5895 25.3273 29.5924 25.3273 29.5954 25.3273C29.5983 25.3273 29.6012 25.3273 29.6042 25.3273C29.6071 25.3273 29.61 25.3273 29.613 25.3273C29.6159 25.3273 29.6188 25.3273 29.6218 25.3273C29.6247 25.3273 29.6276 25.3273 29.6306 25.3273C29.6335 25.3273 29.6364 25.3273 29.6394 25.3273C29.6423 25.3273 29.6452 25.3273 29.6482 25.3273C29.6511 25.3273 29.654 25.3273 29.657 25.3273C29.6599 25.3273 29.6628 25.3273 29.6658 25.3273C29.6687 25.3273 29.6716 25.3273 29.6746 25.3273C29.6775 25.3273 29.6804 25.3273 29.6834 25.3273C29.6863 25.3273 29.6892 25.3273 29.6922 25.3273C29.6951 25.3273 29.698 25.3273 29.701 25.3273C29.7039 25.3273 29.7069 25.3273 29.7098 25.3273C29.7127 25.3273 29.7157 25.3273 29.7186 25.3273C29.7216 25.3273 29.7245 25.3273 29.7274 25.3273C29.7304 25.3273 29.7333 25.3273 29.7363 25.3273C29.7392 25.3273 29.7421 25.3273 29.7451 25.3273C29.748 25.3273 29.751 25.3273 29.7539 25.3273C29.7568 25.3273 29.7598 25.3273 29.7627 25.3273C29.7657 25.3273 29.7686 25.3273 29.7716 25.3273C29.7745 25.3273 29.7775 25.3273 29.7804 25.3273C29.7834 25.3273 29.7863 25.3273 29.7892 25.3273C29.7922 25.3273 29.7951 25.3273 29.7981 25.3273C29.801 25.3273 29.804 25.3273 29.8069 25.3273C29.8099 25.3273 29.8128 25.3273 29.8158 25.3273C29.8188 25.3273 29.8217 25.3273 29.8247 25.3273C29.8276 25.3273 29.8306 25.3273 29.8335 25.3273C29.8365 25.3273 29.8394 25.3273 29.8424 25.3273C29.8454 25.3273 29.8483 25.3273 29.8513 25.3273C29.8542 25.3273 29.8572 25.3273 29.8601 25.3273C29.8631 25.3273 29.8661 25.3273 29.869 25.3273C29.872 25.3273 29.875 25.3273 29.8779 25.3273C29.8809 25.3273 29.8839 25.3273 29.8868 25.3273C29.8898 25.3273 29.8928 25.3273 29.8957 25.3273C29.8987 25.3273 29.9017 25.3273 29.9046 25.3273C29.9076 25.3273 29.9106 25.3273 29.9136 25.3273C29.9165 25.3273 29.9195 25.3273 29.9225 25.3273C29.9255 25.3273 29.9284 25.3273 29.9314 25.3273C29.9344 25.3273 29.9374 25.3273 29.9404 25.3273C29.9433 25.3273 29.9463 25.3273 29.9493 25.3273C29.9523 25.3273 29.9553 25.3273 29.9583 25.3273C29.9612 25.3273 29.9642 25.3273 29.9672 25.3273C29.9702 25.3273 29.9732 25.3273 29.9762 25.3273C29.9792 25.3273 29.9822 25.3273 29.9852 25.3273C29.9882 25.3273 29.9912 25.3273 29.9942 25.3273C29.9971 25.3273 30.0001 25.3273 30.0031 25.3273C30.0061 25.3273 30.0091 25.3273 30.0122 25.3273C30.0152 25.3273 30.0182 25.3273 30.0212 25.3273C30.0242 25.3273 30.0272 25.3273 30.0302 25.3273C30.0332 25.3273 30.0362 25.3273 30.0392 25.3273C30.0422 25.3273 30.0452 25.3273 30.0483 25.3273C30.0513 25.3273 30.0543 25.3273 30.0573 25.3273C30.0603 25.3273 30.0633 25.3273 30.0664 25.3273C30.0694 25.3273 30.0724 25.3273 30.0754 25.3273C30.0785 25.3273 30.0815 25.3273 30.0845 25.3273C30.0875 25.3273 30.0906 25.3273 30.0936 25.3273C30.0966 25.3273 30.0997 25.3273 30.1027 25.3273C30.1057 25.3273 30.1088 25.3273 30.1118 25.3273C30.1149 25.3273 30.1179 25.3273 30.121 25.3273C30.124 25.3273 30.127 25.3273 30.1301 25.3273C30.1331 25.3273 30.1362 25.3273 30.1392 25.3273C30.1423 25.3273 30.1453 25.3273 30.1484 25.3273C30.1514 25.3273 30.1545 25.3273 30.1576 25.3273C30.1606 25.3273 30.1637 25.3273 30.1667 25.3273C30.1698 25.3273 30.1729 25.3273 30.1759 25.3273C30.179 25.3273 30.1821 25.3273 30.1851 25.3273C30.1882 25.3273 30.1913 25.3273 30.1944 25.3273C30.1974 25.3273 30.2005 25.3273 30.2036 25.3273C30.2067 25.3273 30.2098 25.3273 30.2128 25.3273C30.2159 25.3273 30.219 25.3273 30.2221 25.3273C30.2252 25.3273 30.2283 25.3273 30.2314 25.3273C30.2345 25.3273 30.2376 25.3273 30.2407 25.3273C30.2437 25.3273 30.2468 25.3273 30.25 25.3273C30.2531 25.3273 30.2562 25.3273 30.2593 25.3273C30.2624 25.3273 30.2655 25.3273 30.2686 25.3273C30.2717 25.3273 30.2748 25.3273 30.2779 25.3273C30.281 25.3273 30.2842 25.3273 30.2873 25.3273C30.2904 25.3273 30.2935 25.3273 30.2967 25.3273C30.2998 25.3273 30.3029 25.3273 30.306 25.3273C30.3092 25.3273 30.3123 25.3273 30.3154 25.3273C30.3186 25.3273 30.3217 25.3273 30.3249 25.3273C30.328 25.3273 30.3311 25.3273 30.3343 25.3273C30.3374 25.3273 30.3406 25.3273 30.3437 25.3273C30.3469 25.3273 30.35 25.3273 30.3532 25.3273C30.3564 25.3273 30.3595 25.3273 30.3627 25.3273C30.3658 25.3273 30.369 25.3273 30.3722 25.3273C30.3753 25.3273 30.3785 25.3273 30.3817 25.3273C30.3849 25.3273 30.388 25.3273 30.3912 25.3273C30.3944 25.3273 30.3976 25.3273 30.4007 25.3273C30.4039 25.3273 30.4071 25.3273 30.4103 25.3273C30.4135 25.3273 30.4167 25.3273 30.4199 25.3273C30.4231 25.3273 30.4263 25.3273 30.4295 25.3273C30.4327 25.3273 30.4359 25.3273 30.4391 25.3273C30.4423 25.3273 30.4455 25.3273 30.4487 25.3273C30.4519 25.3273 30.4552 25.3273 30.4584 25.3273C30.4616 25.3273 30.4648 25.3273 30.468 25.3273C30.4713 25.3273 30.4745 25.3273 30.4777 25.3273C30.481 25.3273 30.4842 25.3273 30.4874 25.3273C30.4907 25.3273 30.4939 25.3273 30.4972 25.3273C30.5004 25.3273 30.5036 25.3273 30.5069 25.3273C30.5101 25.3273 30.5134 25.3273 30.5167 25.3273C30.5199 25.3273 30.5232 25.3273 30.5264 25.3273C30.5297 25.3273 30.533 25.3273 30.5362 25.3273C30.5395 25.3273 30.5428 25.3273 30.5461 25.3273C30.5493 25.3273 30.5526 25.3273 30.5559 25.3273C30.5592 25.3273 30.5625 25.3273 30.5657 25.3273C30.569 25.3273 30.5723 25.3273 30.5756 25.3273C30.5789 25.3273 30.5822 25.3273 30.5855 25.3273C30.5888 25.3273 30.5921 25.3273 30.5954 25.3273C30.5988 25.3273 30.6021 25.3273 30.6054 25.3273C30.6087 25.3273 30.612 25.3273 30.6153 25.3273C30.6187 25.3273 30.622 25.3273 30.6253 25.3273C30.6287 25.3273 30.632 25.3273 30.6353 25.3273C30.6387 25.3273 30.642 25.3273 30.6454 25.3273C30.6487 25.3273 30.6521 25.3273 30.6554 25.3273C30.6588 25.3273 30.6621 25.3273 30.6655 25.3273C30.6688 25.3273 30.6722 25.3273 30.6756 25.3273C30.6789 25.3273 30.6823 25.3273 30.6857 25.3273C30.6891 25.3273 30.6924 25.3273 30.6958 25.3273C30.6992 25.3273 30.7026 25.3273 30.706 25.3273C30.7094 25.3273 30.7128 25.3273 30.7162 25.3273C30.7195 25.3273 30.7229 25.3273 30.7264 25.3273C30.7298 25.3273 30.7332 25.3273 30.7366 25.3273C30.74 25.3273 30.7434 25.3273 30.7468 25.3273C30.7503 25.3273 30.7537 25.3273 30.7571 25.3273C30.7605 25.3273 30.764 25.3273 30.7674 25.3273C30.7708 25.3273 30.7743 25.3273 30.7777 25.3273C30.7812 25.3273 30.7846 25.3273 30.7881 25.3273C30.7915 25.3273 30.795 25.3273 30.7984 25.3273C30.8019 25.3273 30.8054 25.3273 30.8088 25.3273C30.8123 25.3273 30.8158 25.3273 30.8193 25.3273C30.8227 25.3273 30.8262 25.3273 30.8297 25.3273C30.8332 25.3273 30.8367 25.3273 30.8402 25.3273C30.8437 25.3273 30.8472 25.3273 30.8507 25.3273C30.8542 25.3273 30.8577 25.3273 30.8612 25.3273C30.8647 25.3273 30.8682 25.3273 30.8717 25.3273C30.8753 25.3273 30.8788 25.3273 30.8823 25.3273C30.8858 25.3273 30.8894 25.3273 30.8929 25.3273C30.8965 25.3273 30.9 25.3273 30.9035 25.3273C30.9071 25.3273 30.9106 25.3273 30.9142 25.3273C30.9177 25.3273 30.9213 25.3273 30.9249 25.3273C30.9284 25.3273 30.932 25.3273 30.9356 25.3273C30.9391 25.3273 30.9427 25.3273 30.9463 25.3273C30.9499 25.3273 30.9535 25.3273 30.9571 25.3273C30.9607 25.3273 30.9643 25.3273 30.9679 25.3273C30.9715 25.3273 30.9751 25.3273 30.9787 25.3273C30.9823 25.3273 30.9859 25.3273 30.9895 25.3273C30.9931 25.3273 30.9968 25.3273 31.0004 25.3273C31.004 25.3273 31.0076 25.3273 31.0113 25.3273C31.0149 25.3273 31.0186 25.3273 31.0222 25.3273C31.0259 25.3273 31.0295 25.3273 31.0332 25.3273C31.0368 25.3273 31.0405 25.3273 31.0441 25.3273C31.0478 25.3273 31.0515 25.3273 31.0552 25.3273C31.0588 25.3273 31.0625 25.3273 31.0662 25.3273C31.0699 25.3273 31.0736 25.3273 31.0773 25.3273C31.081 25.3273 31.0847 25.3273 31.0884 25.3273C31.0921 25.3273 31.0958 25.3273 31.0995 25.3273C31.1032 25.3273 31.1069 25.3273 31.1107 25.3273C31.1144 25.3273 31.1181 25.3273 31.1219 25.3273C31.1256 25.3273 31.1293 25.3273 31.1331 25.3273C31.1368 25.3273 31.1406 25.3273 31.1443 25.3273C31.1481 25.3273 31.1519 25.3273 31.1556 25.3273C31.1594 25.3273 31.1632 25.3273 31.1669 25.3273C31.1707 25.3273 31.1745 25.3273 31.1783 25.3273C31.1821 25.3273 31.1859 25.3273 31.1897 25.3273C31.1935 25.3273 31.1973 25.3273 31.2011 25.3273C31.2049 25.3273 31.2087 25.3273 31.2125 25.3273C31.2163 25.3273 31.2201 25.3273 31.224 25.3273C31.2278 25.3273 31.2316 25.3273 31.2355 25.3273C31.2393 25.3273 31.2432 25.3273 31.247 25.3273C31.2509 25.3273 31.2547 25.3273 31.2586 25.3273C31.2624 25.3273 31.2663 25.3273 31.2702 25.3273C31.274 25.3273 31.2779 25.3273 31.2818 25.3273C31.2857 25.3273 31.2896 25.3273 31.2935 25.3273C31.2974 25.3273 31.3013 25.3273 31.3052 25.3273C31.3091 25.3273 31.313 25.3273 31.3169 25.3273C31.3208 25.3273 31.3247 25.3273 31.3287 25.3273C31.3326 25.3273 31.3365 25.3273 31.3405 25.3273C31.3444 25.3273 31.3484 25.3273 31.3523 25.3273C31.3563 25.3273 31.3602 25.3273 31.3642 25.3273C31.3681 25.3273 31.3721 25.3273 31.3761 25.3273C31.38 25.3273 31.384 25.3273 31.388 25.3273C31.392 25.3273 31.396 25.3273 31.4 25.3273C31.404 25.3273 31.408 25.3273 31.412 25.3273C31.416 25.3273 31.42 25.3273 31.424 25.3273C31.428 25.3273 31.4321 25.3273 31.4361 25.3273C31.4401 25.3273 31.4442 25.3273 31.4482 25.3273C31.4523 25.3273 31.4563 25.3273 31.4604 25.3273C31.4644 25.3273 31.4685 25.3273 31.4725 25.3273C31.4766 25.3273 31.4807 25.3273 31.4848 25.3273C31.4888 25.3273 31.4929 25.3273 31.497 25.3273C31.5011 25.3273 31.5052 25.3273 31.5093 25.3273C31.5134 25.3273 31.5175 25.3273 31.5216 25.3273C31.5258 25.3273 31.5299 25.3273 31.534 25.3273C31.5381 25.3273 31.5423 25.3273 31.5464 25.3273C31.5505 25.3273 31.5547 25.3273 31.5588 25.3273C31.563 25.3273 31.5672 25.3273 31.5713 25.3273C31.5755 25.3273 31.5797 25.3273 31.5838 25.3273C31.588 25.3273 31.5922 25.3273 31.5964 25.3273C31.6006 25.3273 31.6048 25.3273 31.609 25.3273C31.6132 25.3273 31.6174 25.3273 31.6216 25.3273C31.6258 25.3273 31.63 25.3273 31.6343 25.3273C31.6385 25.3273 31.6427 25.3273 31.647 25.3273C31.6512 25.3273 31.6555 25.3273 31.6597 25.3273C31.664 25.3273 31.6682 25.3273 31.6725 25.3273C31.6768 25.3273 31.681 25.3273 31.6853 25.3273C31.6896 25.3273 31.6939 25.3273 31.6982 25.3273C31.7025 25.3273 31.7068 25.3273 31.7111 25.3273C31.7154 25.3273 31.7197 25.3273 31.724 25.3273C31.7283 25.3273 31.7327 25.3273 31.737 25.3273C31.7413 25.3273 31.7457 25.3273 31.75 25.3273C31.7544 25.3273 31.7587 25.3273 31.7631 25.3273C31.7674 25.3273 31.7718 25.3273 31.7762 25.3273C31.7806 25.3273 31.7849 25.3273 31.7893 25.3273C31.7937 25.3273 31.7981 25.3273 31.8025 25.3273C31.8069 25.3273 31.8113 25.3273 31.8157 25.3273C31.8201 25.3273 31.8246 25.3273 31.829 25.3273C31.8334 25.3273 31.8379 25.3273 31.8423 25.3273C31.8467 25.3273 31.8512 25.3273 31.8556 25.3273C31.8601 25.3273 31.8646 25.3273 31.869 25.3273C31.8735 25.3273 31.878 25.3273 31.8825 25.3273C31.8869 25.3273 31.8914 25.3273 31.8959 25.3273C31.9004 25.3273 31.9049 25.3273 31.9094 25.3273C31.914 25.3273 31.9185 25.3273 31.923 25.3273C31.9275 25.3273 31.9321 25.3273 31.9366 25.3273C31.9411 25.3273 31.9457 25.3273 31.9502 25.3273C31.9548 25.3273 31.9594 25.3273 31.9639 25.3273C31.9685 25.3273 31.9731 25.3273 31.9777 25.3273C31.9822 25.3273 31.9868 25.3273 31.9914 25.3273C31.996 25.3273 32.0006 25.3273 32.0052 25.3273C32.0099 25.3273 32.0145 25.3273 32.0191 25.3273C32.0237 25.3273 32.0284 25.3273 32.033 25.3273C32.0377 25.3273 32.0423 25.3273 32.047 25.3273C32.0516 25.3273 32.0563 25.3273 32.061 25.3273C32.0656 25.3273 32.0703 25.3273 32.075 25.3273C32.0797 25.3273 32.0844 25.3273 32.0891 25.3273C32.0938 25.3273 32.0985 25.3273 32.1032 25.3273C32.1079 25.3273 32.1126 25.3273 32.1174 25.3273C32.1221 25.3273 32.1268 25.3273 32.1316 25.3273C32.1363 25.3273 32.1411 25.3273 32.1458 25.3273C32.1506 25.3273 32.1554 25.3273 32.1602 25.3273C32.1649 25.3273 32.1697 25.3273 32.1745 25.3273C32.1793 25.3273 32.1841 25.3273 32.1889 25.3273C32.1937 25.3273 32.1985 25.3273 32.2034 25.3273C32.2082 25.3273 32.213 25.3273 32.2179 25.3273C32.2227 25.3273 32.2275 25.3273 32.2324 25.3273C32.2372 25.3273 32.2421 25.3273 32.247 25.3273C32.2518 25.3273 32.2567 25.3273 32.2616 25.3273C32.2665 25.3273 32.2714 25.3273 32.2763 25.3273C32.2812 25.3273 32.2861 25.3273 32.291 25.3273C32.2959 25.3273 32.3009 25.3273 32.3058 25.3273C32.3107 25.3273 32.3157 25.3273 32.3206 25.3273C32.3256 25.3273 32.3305 25.3273 32.3355 25.3273C32.3405 25.3273 32.3454 25.3273 32.3504 25.3273C32.3554 25.3273 32.3604 25.3273 32.3654 25.3273C32.3704 25.3273 32.3754 25.3273 32.3804 25.3273V24.3273ZM26.8103 24.3273C25.6004 24.3273 24.6288 23.3583 24.6288 22.1741H23.6288C23.6288 23.9205 25.0582 25.3273 26.8103 25.3273V24.3273ZM34.562 22.1741C34.562 23.3583 33.5903 24.3273 32.3804 24.3273V25.3273C34.1325 25.3273 35.562 23.9205 35.562 22.1741H34.562ZM32.3804 20.0209C33.5903 20.0209 34.562 20.9899 34.562 22.1741H35.562C35.562 20.4276 34.1325 19.0209 32.3804 19.0209V20.0209ZM26.8103 19.0209C25.0582 19.0209 23.6288 20.4276 23.6288 22.1741H24.6288C24.6288 20.9899 25.6004 20.0209 26.8103 20.0209V19.0209ZM23.7325 25.3273H35.4582V24.3273H23.7325V25.3273ZM35.4582 30.4836H23.7325V31.4836H35.4582V30.4836ZM23.7325 30.4836C22.2854 30.4836 21.1214 29.3243 21.1214 27.9054H20.1214C20.1214 29.8866 21.7432 31.4836 23.7325 31.4836V30.4836ZM38.0693 27.9054C38.0693 29.3243 36.9053 30.4836 35.4582 30.4836V31.4836C37.4476 31.4836 39.0693 29.8866 39.0693 27.9054H38.0693ZM35.4582 25.3273C36.9053 25.3273 38.0693 26.4866 38.0693 27.9054H39.0693C39.0693 25.9243 37.4476 24.3273 35.4582 24.3273V25.3273ZM23.7325 24.3273C21.7432 24.3273 20.1214 25.9243 20.1214 27.9054H21.1214C21.1214 26.4866 22.2854 25.3273 23.7325 25.3273V24.3273ZM20.5781 31.4836H38.6127V30.4836H20.5781V31.4836ZM38.6127 37.5H20.5781V38.5H38.6127V37.5ZM20.5781 37.5C18.891 37.5 17.5324 36.1482 17.5324 34.4918H16.5324C16.5324 36.7105 18.3487 38.5 20.5781 38.5V37.5ZM41.6583 34.4918C41.6583 36.1482 40.2998 37.5 38.6127 37.5V38.5C40.842 38.5 42.6583 36.7105 42.6583 34.4918H41.6583ZM38.6127 31.4836C40.2998 31.4836 41.6583 32.8354 41.6583 34.4918H42.6583C42.6583 32.2731 40.842 30.4836 38.6127 30.4836V31.4836ZM20.5781 30.4836C18.3487 30.4836 16.5324 32.2731 16.5324 34.4918H17.5324C17.5324 32.8354 18.891 31.4836 20.5781 31.4836V30.4836ZM2 33.2683H15.2943V32.2683H2V33.2683ZM14.8491 32.5408L12.1755 37.7725L13.0659 38.2275L15.7395 32.9958L14.8491 32.5408ZM12.6207 37.5H4.67362V38.5H12.6207V37.5ZM5.11885 37.7725L2.44523 32.5408L1.55477 32.9958L4.22839 38.2275L5.11885 37.7725ZM11.4689 16.933V32.7683H12.4689V16.933H11.4689ZM11.9689 32.2683H5.39456V33.2683H11.9689V32.2683ZM5.89456 32.7683V16.933H4.89456V32.7683H5.89456ZM7.13314 16.1629H10.2303V15.1629H7.13314V16.1629ZM10.2303 18.6033H7.13314V19.6033H10.2303V18.6033ZM7.13314 18.6033C6.44407 18.6033 5.89456 18.052 5.89456 17.3831H4.89456C4.89456 18.6143 5.90183 19.6033 7.13314 19.6033V18.6033ZM11.4689 17.3831C11.4689 18.052 10.9194 18.6033 10.2303 18.6033V19.6033C11.4616 19.6033 12.4689 18.6143 12.4689 17.3831H11.4689ZM10.2303 16.1629C10.9194 16.1629 11.4689 16.7142 11.4689 17.3831H12.4689C12.4689 16.1519 11.4616 15.1629 10.2303 15.1629V16.1629ZM7.13314 15.1629C5.90183 15.1629 4.89456 16.1519 4.89456 17.3831H5.89456C5.89456 16.7142 6.44406 16.1629 7.13314 16.1629V15.1629ZM2 38.5H43.3459V37.5H2V38.5ZM8.27049 13.413L8.3137 16.7499L9.31361 16.7369L9.27041 13.4001L8.27049 13.413ZM7.11985 12.144C7.12002 12.0774 7.1387 11.9439 7.19551 11.7295C7.25017 11.5232 7.33259 11.2693 7.44147 10.9734C7.65906 10.3821 7.97371 9.64646 8.35774 8.82952L7.45274 8.4041C7.06132 9.23678 6.73391 10.0006 6.50299 10.6281C6.38762 10.9416 6.29417 11.2269 6.22886 11.4734C6.16571 11.7118 6.12033 11.9446 6.11986 12.1415L7.11985 12.144ZM9.26861 8.83173C9.64947 9.65042 9.9608 10.3874 10.1756 10.9803C10.283 11.2769 10.3642 11.5317 10.4178 11.739C10.4735 11.9541 10.4917 12.0892 10.4916 12.1578L11.4916 12.1603C11.492 11.9623 11.448 11.7284 11.386 11.4885C11.3219 11.2407 11.2297 10.9542 11.1158 10.6397C10.8877 10.0101 10.5636 9.2446 10.1753 8.40992L9.26861 8.83173ZM10.4917 12.1457C10.4777 12.6688 10.2817 13.1567 9.95755 13.5099L10.6942 14.1861C11.1903 13.6457 11.4712 12.9234 11.4914 12.1725L10.4917 12.1457ZM9.95755 13.5099C9.63483 13.8614 9.21309 14.0507 8.78392 14.0566L8.79778 15.0565C9.51858 15.0465 10.1968 14.728 10.6942 14.1861L9.95755 13.5099ZM8.79477 14.0566C8.36806 14.0532 7.94799 13.8638 7.62954 13.5098L6.88603 14.1785C7.3805 14.7283 8.06219 15.0509 8.78693 15.0566L8.79477 14.0566ZM7.62954 13.5098C7.30961 13.1541 7.12169 12.6629 7.11985 12.141L6.11986 12.1445C6.12251 12.8988 6.39304 13.6304 6.88603 14.1785L7.62954 13.5098ZM8.35774 8.82952C8.47254 8.58531 8.65863 8.49966 8.8137 8.5C8.96878 8.50034 9.15467 8.58682 9.26861 8.83173L10.1753 8.40992C9.90496 7.82883 9.37622 7.50122 8.81587 7.5C8.2555 7.49879 7.72538 7.82413 7.45274 8.4041L8.35774 8.82952Z" fill="#663130"/>
</svg>
