<svg width="45" height="45" viewBox="0 0 45 45" fill="none" xmlns="http://www.w3.org/2000/svg">
<path d="M9.27529 24.2086V23.7086H8.77529V24.2086H9.27529ZM35.461 24.2086H35.961V23.7086H35.461V24.2086ZM37.3883 15.1944L36.9601 14.9363L37.3883 15.1944ZM38.1266 12.3765L38.6265 12.3661V12.366L38.1266 12.3765ZM37.5248 9.8369L37.9798 9.62968L37.8377 9.31763L37.4954 9.33777L37.5248 9.8369ZM34.7737 10.0443C34.527 10.1683 34.4274 10.4688 34.5513 10.7155C34.6752 10.9623 34.9757 11.0619 35.2225 10.938L34.7737 10.0443ZM32.6855 17.3188C32.4098 17.3351 32.1995 17.5717 32.2158 17.8474C32.232 18.123 32.4686 18.3333 32.7443 18.3171L32.6855 17.3188ZM35.2418 17.1636L35.4662 17.6105L35.4663 17.6104L35.2418 17.1636ZM27.2524 15.1943L26.8242 15.4524L27.2524 15.1943ZM26.5142 12.3764L26.0143 12.366L26.0143 12.3661L26.5142 12.3764ZM27.116 9.83687L27.1454 9.33773L26.8031 9.31759L26.661 9.62964L27.116 9.83687ZM29.4183 10.9379C29.665 11.0619 29.9655 10.9623 30.0895 10.7155C30.2134 10.4687 30.1138 10.1682 29.867 10.0443L29.4183 10.9379ZM31.8965 18.317C32.1721 18.3333 32.4088 18.123 32.425 17.8473C32.4412 17.5717 32.2309 17.335 31.9553 17.3188L31.8965 18.317ZM29.399 17.1636L29.1745 17.6104L29.1746 17.6104L29.399 17.1636ZM34.2754 9.96439L34.6982 9.69749L34.6982 9.69745L34.2754 9.96439ZM32.3511 8L32.6339 7.58764C32.4635 7.47078 32.2388 7.47079 32.0684 7.58765L32.3511 8ZM30.4269 9.96449L30.8497 10.2314L30.8497 10.2314L30.4269 9.96449ZM30.4269 15.8534L30.004 16.1202L30.0041 16.1202L30.4269 15.8534ZM32.3511 17.818L32.0683 18.2303C32.2387 18.3472 32.4635 18.3472 32.634 18.2303L32.3511 17.818ZM34.2756 15.8533L34.6984 16.1201L34.6985 16.1201L34.2756 15.8533ZM18.9972 17.5173L18.8147 17.9827C19.051 18.0755 19.3194 17.9763 19.4386 17.7522L18.9972 17.5173ZM17.9968 17.3636L17.5434 17.5744C17.6311 17.7632 17.8266 17.8778 18.0342 17.8622L17.9968 17.3636ZM17.2103 16.3515L16.8939 16.7387L16.894 16.7388L17.2103 16.3515ZM13.5968 16.3515L13.9129 16.7389L13.913 16.7388L13.5968 16.3515ZM12.81 17.3636L12.7727 17.8622C12.9803 17.8778 13.1758 17.7631 13.2635 17.5743L12.81 17.3636ZM10.4144 19.0841L10.5418 19.5676C10.7164 19.5216 10.8527 19.385 10.8983 19.2103L10.4144 19.0841ZM9.32513 19.7301L9.68785 20.0743C9.69552 20.0662 9.70291 20.0579 9.71002 20.0493L9.32513 19.7301ZM9.3836 27.2447C9.10746 27.2447 8.8836 27.4686 8.8836 27.7447C8.8836 28.0208 9.10746 28.2447 9.3836 28.2447V27.2447ZM30.3003 28.2447C30.5764 28.2447 30.8003 28.0208 30.8003 27.7447C30.8003 27.4686 30.5764 27.2447 30.3003 27.2447V28.2447ZM14.0693 37.612C13.855 37.7862 13.8225 38.1011 13.9967 38.3154C14.1709 38.5297 14.4858 38.5622 14.7001 38.388L14.0693 37.612ZM17.6954 35.953C17.9097 35.7788 17.9422 35.4639 17.768 35.2496C17.5938 35.0353 17.2789 35.0028 17.0647 35.177L17.6954 35.953ZM30.8397 38.388C31.054 38.5622 31.3689 38.5297 31.5431 38.3154C31.7173 38.1011 31.6848 37.7862 31.4705 37.612L30.8397 38.388ZM28.4752 35.177C28.2609 35.0028 27.946 35.0353 27.7718 35.2496C27.5976 35.4639 27.6301 35.7788 27.8444 35.953L28.4752 35.177ZM9.27529 24.7086H35.461V23.7086H9.27529V24.7086ZM34.961 24.2086V32.1662H35.961V24.2086H34.961ZM32.0621 35.0651H12.6742V36.0651H32.0621V35.0651ZM9.77529 32.1662V27.7412H8.77529V32.1662H9.77529ZM9.77529 27.7412V24.2086H8.77529V27.7412H9.77529ZM9.27529 28.2412H30.5911V27.2412H9.27529V28.2412ZM12.6742 35.0651C11.0732 35.0651 9.77529 33.7672 9.77529 32.1662H8.77529C8.77529 34.3195 10.5209 36.0651 12.6742 36.0651V35.0651ZM34.961 32.1662C34.961 33.7672 33.6631 35.0651 32.0621 35.0651V36.0651C34.2154 36.0651 35.961 34.3195 35.961 32.1662H34.961ZM8.19502 22.3186H36.4614V21.3186H8.19502V22.3186ZM36.4614 23.7086H8.19502V24.7086H36.4614V23.7086ZM8.19502 23.7086C7.81117 23.7086 7.5 23.3974 7.5 23.0136H6.5C6.5 23.9497 7.25888 24.7086 8.19502 24.7086V23.7086ZM37.1565 23.0136C37.1565 23.3974 36.8453 23.7086 36.4614 23.7086V24.7086C37.3976 24.7086 38.1565 23.9497 38.1565 23.0136H37.1565ZM36.4614 22.3186C36.8453 22.3186 37.1565 22.6297 37.1565 23.0136H38.1565C38.1565 22.0775 37.3976 21.3186 36.4614 21.3186V22.3186ZM8.19502 21.3186C7.25888 21.3186 6.5 22.0775 6.5 23.0136H7.5C7.5 22.6297 7.81117 22.3186 8.19502 22.3186V21.3186ZM37.8166 15.4525C38.3908 14.4996 38.6487 13.4373 38.6265 12.3661L37.6267 12.3868C37.6452 13.2816 37.4305 14.1556 36.9601 14.9363L37.8166 15.4525ZM38.6265 12.366C38.6073 11.4461 38.3828 10.5147 37.9798 9.62968L37.0697 10.0441C37.4217 10.817 37.6106 11.615 37.6267 12.3869L38.6265 12.366ZM37.4954 9.33777C36.5243 9.39489 35.5961 9.63136 34.7737 10.0443L35.2225 10.938C35.9123 10.5916 36.706 10.3859 37.5541 10.336L37.4954 9.33777ZM32.7443 18.3171C33.7153 18.2599 34.6438 18.0234 35.4662 17.6105L35.0174 16.7168C34.3276 17.0632 33.5337 17.2688 32.6855 17.3188L32.7443 18.3171ZM35.4663 17.6104C36.4235 17.1295 37.2421 16.4056 37.8166 15.4525L36.9601 14.9363C36.4895 15.7172 35.8172 16.315 35.0173 16.7169L35.4663 17.6104ZM27.6807 14.9363C27.2102 14.1556 26.9955 13.2816 27.0141 12.3868L26.0143 12.3661C25.9921 13.4373 26.2499 14.4995 26.8242 15.4524L27.6807 14.9363ZM27.0141 12.3868C27.0301 11.615 27.2191 10.8169 27.571 10.0441L26.661 9.62964C26.2579 10.5147 26.0334 11.4461 26.0143 12.366L27.0141 12.3868ZM27.0866 10.336C27.9347 10.3859 28.7284 10.5915 29.4183 10.9379L29.867 10.0443C29.0447 9.63132 28.1164 9.39486 27.1454 9.33773L27.0866 10.336ZM31.9553 17.3188C31.1071 17.2688 30.3132 17.0632 29.6234 16.7168L29.1746 17.6104C29.997 18.0234 30.9254 18.2598 31.8965 18.317L31.9553 17.3188ZM29.6234 16.7168C28.8236 16.315 28.1513 15.7172 27.6807 14.9363L26.8242 15.4524C27.3986 16.4056 28.2172 17.1295 29.1745 17.6104L29.6234 16.7168ZM35.6417 12.9088C35.6417 11.742 35.2983 10.6481 34.6982 9.69749L33.8526 10.2313C34.3585 11.0327 34.6417 11.9431 34.6417 12.9088H35.6417ZM34.6982 9.69745C34.1827 8.88108 33.4762 8.16524 32.6339 7.58764L32.0684 8.41236C32.809 8.92025 33.4162 9.54022 33.8526 10.2313L34.6982 9.69745ZM32.0684 7.58765C31.2259 8.16543 30.5195 8.88107 30.0041 9.69762L30.8497 10.2314C31.286 9.54023 31.893 8.92046 32.6339 8.41235L32.0684 7.58765ZM30.0041 9.6976C29.404 10.6482 29.0606 11.7421 29.0606 12.9088H30.0606C30.0606 11.9432 30.3438 11.0328 30.8497 10.2314L30.0041 9.6976ZM29.0606 12.9088C29.0606 14.0758 29.4043 15.1695 30.004 16.1202L30.8498 15.5866C30.344 14.7848 30.0606 13.8746 30.0606 12.9088H29.0606ZM30.0041 16.1202C30.5195 16.937 31.2259 17.6524 32.0683 18.2303L32.634 17.4056C31.893 16.8974 31.286 16.2778 30.8498 15.5865L30.0041 16.1202ZM32.634 18.2303C33.4764 17.6524 34.183 16.9367 34.6984 16.1201L33.8528 15.5864C33.4166 16.2775 32.8093 16.8974 32.0683 17.4056L32.634 18.2303ZM34.6985 16.1201C35.2982 15.1695 35.6417 14.076 35.6417 12.9088H34.6417C34.6417 13.8748 34.3585 14.7849 33.8527 15.5865L34.6985 16.1201ZM24.2421 22.3282C25.2837 21.6028 25.9197 20.4084 25.9197 19.1189H24.9197C24.9197 20.0775 24.4468 20.967 23.6706 21.5076L24.2421 22.3282ZM25.9197 19.1189C25.9197 16.9586 24.1682 15.2067 22.0078 15.2067V16.2067C23.6158 16.2067 24.9197 17.5108 24.9197 19.1189H25.9197ZM22.0078 15.2067C20.5577 15.2067 19.234 16.0082 18.5559 17.2824L19.4386 17.7522C19.9441 16.8024 20.9294 16.2067 22.0078 16.2067V15.2067ZM19.1798 17.0518C18.797 16.9016 18.3758 16.8337 17.9593 16.865L18.0342 17.8622C18.2949 17.8426 18.5659 17.8852 18.8147 17.9827L19.1798 17.0518ZM18.4502 17.1528C18.2346 16.6891 17.9171 16.2832 17.5265 15.9642L16.894 16.7388C17.1686 16.963 17.3919 17.2485 17.5434 17.5744L18.4502 17.1528ZM17.5266 15.9643C16.2951 14.9582 14.5119 14.9586 13.2805 15.9642L13.913 16.7388C14.7765 16.0336 16.0308 16.0335 16.8939 16.7387L17.5266 15.9643ZM13.2807 15.9641C12.89 16.2829 12.5722 16.6888 12.3565 17.153L13.2635 17.5743C13.4148 17.2485 13.6382 16.963 13.9129 16.7389L13.2807 15.9641ZM12.8473 16.865C11.5043 16.7646 10.2686 17.6623 9.93064 18.9579L10.8983 19.2103C11.1159 18.3761 11.9176 17.7983 12.7727 17.8622L12.8473 16.865ZM10.2871 18.6006C10.058 18.6609 9.8059 18.7673 9.57642 18.899C9.35023 19.0289 9.11369 19.2018 8.94023 19.411L9.71002 20.0493C9.78026 19.9646 9.90727 19.8622 10.0743 19.7663C10.238 19.6723 10.4087 19.6027 10.5418 19.5676L10.2871 18.6006ZM8.9624 19.386C8.48405 19.8902 8.18849 20.5719 8.18849 21.3203H9.18849C9.18849 20.84 9.37734 20.4016 9.68785 20.0743L8.9624 19.386ZM8.18849 21.3203C8.18849 21.638 8.24478 21.9597 8.35074 22.2576L9.29294 21.9226C9.22475 21.7308 9.18849 21.5225 9.18849 21.3203H8.18849ZM9.3836 28.2447H30.3003V27.2447H9.3836V28.2447ZM14.7001 38.388L17.6954 35.953L17.0647 35.177L14.0693 37.612L14.7001 38.388ZM31.4705 37.612L28.4752 35.177L27.8444 35.953L30.8397 38.388L31.4705 37.612Z" fill="#663130"/>
</svg>
