<svg width="68" height="20" viewBox="0 0 68 20" fill="none" xmlns="http://www.w3.org/2000/svg">
<path d="M27.1724 20H22.0879L25.2665 0.35791H30.3447L27.1724 20Z" fill="#00579F"/>
<path d="M30.3438 19.792V19.792C30.6718 17.8491 31.5545 16.0426 32.8857 14.5899L42.2885 4.32949H32.9337V4.32949C33.3578 1.8294 35.5237 0 38.0595 0H49.8265L49.3239 2.97653L37.8817 15.4625H47.2365L46.502 19.792H30.3438Z" fill="#FAA61A"/>
<path d="M56.6554 13.0401C57.0754 11.9116 58.6804 7.54181 58.6804 7.54181C58.6616 7.5857 59.1005 6.39451 59.3512 5.66098L59.7086 7.35373C59.7086 7.35373 60.6678 12.0558 60.881 13.0401C60.0848 13.0401 57.6585 13.0401 56.6554 13.0401ZM62.9248 0.357056H58.9939C57.7839 0.357056 56.8623 0.714413 56.3419 1.9871L48.7998 19.9991H54.1288C54.1288 19.9991 55.0065 17.5729 55.1946 17.0525C55.7777 17.0525 60.9625 17.0525 61.7148 17.0525C61.859 17.7422 62.3229 19.9991 62.3229 19.9991H67.025L62.9248 0.357056Z" fill="#00579F"/>
<path d="M17.8494 0.35791L12.8777 13.7494L12.3323 11.0347C11.4107 7.90002 8.52676 4.49573 5.31055 2.80298L9.86841 19.9812H15.235L23.216 0.35791H17.8494Z" fill="#00579F"/>
<path d="M8.25682 0.35791H0.0815024L0 0.752884C6.376 2.38293 10.5953 6.31386 12.3319 11.0347L10.5514 2.00677C10.263 0.752883 9.36024 0.395527 8.25682 0.35791Z" fill="#00579F"/>
</svg>
